M48
; DRILL file {KiCad 8.0.2} date 2024-08-20T16:45:32-0300
; FORMAT={-:-/ absolute / inch / decimal}
; #@! TF.CreationDate,2024-08-20T16:45:32-03:00
; #@! TF.GenerationSoftware,Kicad,Pcbnew,8.0.2
; #@! TF.FileFunction,Plated,1,4,PTH
FMAT,2
INCH
; #@! TA.AperFunction,Plated,PTH,ViaDrill
T1C0.0118
; #@! TA.AperFunction,Plated,PTH,ViaDrill
T2C0.0197
; #@! TA.AperFunction,Plated,PTH,ComponentDrill
T3C0.0197
; #@! TA.AperFunction,Plated,PTH,ComponentDrill
T4C0.0217
; #@! TA.AperFunction,Plated,PTH,ComponentDrill
T5C0.0350
; #@! TA.AperFunction,Plated,PTH,ComponentDrill
T6C0.0390
; #@! TA.AperFunction,Plated,PTH,ComponentDrill
T7C0.0394
%
G90
G05
T1
X3.8858Y-2.2205
X3.9055Y-2.1299
X3.9646Y-2.3858
X4.0354Y-3.0827
X4.0709Y-3.9961
X4.1063Y-2.5118
X4.1339Y-2.5945
X4.1339Y-2.7126
X4.1575Y-2.5394
X4.1742Y-3.0396
X4.1781Y-1.6545
X4.1811Y-2.7756
X4.2559Y-2.8937
X4.2913Y-1.9291
X4.2913Y-1.9764
X4.2913Y-2.0157
X4.2913Y-3.1378
X4.2992Y-2.1024
X4.3071Y-2.189
X4.3071Y-2.2362
X4.3071Y-2.2835
X4.3071Y-2.9528
X4.3442Y-2.9629
X4.3622Y-2.8583
X4.378Y-3.0551
X4.3858Y-2.7205
X4.3898Y-2.3622
X4.3927Y-2.8671
X4.3937Y-2.5079
X4.4055Y-2.8976
X4.4183Y-2.9281
X4.4232Y-2.3957
X4.4409Y-1.9902
X4.4421Y-1.8956
X4.4449Y-3.3898
X4.4525Y-2.7601
X4.4646Y-2.9567
X4.4685Y-2.3701
X4.4803Y-2.1644
X4.4843Y-2.5276
X4.4872Y-2.9862
X4.4882Y-2.4764
X4.5118Y-3.3504
X4.5197Y-2.622
X4.5413Y-2.063
X4.5472Y-2.563
X4.5472Y-2.8189
X4.5509Y-1.5137
X4.5512Y-2.6457
X4.5549Y-1.5617
X4.5551Y-2.3937
X4.5835Y-2.8068
X4.5866Y-2.4921
X4.5874Y-2.7244
X4.5886Y-2.4469
X4.6024Y-1.811
X4.6037Y-2.9488
X4.6169Y-2.6797
X4.6181Y-2.0551
X4.6191Y-2.3553
X4.622Y-1.8583
X4.622Y-2.311
X4.6375Y-2.4373
X4.6417Y-2.6457
X4.6693Y-2.8222
X4.6772Y-2.8966
X4.6811Y-3.0472
X4.69Y-2.8612
X4.7031Y-2.774
X4.7047Y-3.7835
X4.7116Y-3.3612
X4.7127Y-2.5115
X4.7158Y-2.4409
X4.7165Y-2.2362
X4.7205Y-3.6575
X4.7295Y-2.374
X4.74Y-2.2105
X4.7426Y-2.6708
X4.7441Y-3.2357
X4.753Y-2.3504
X4.7549Y-3.0617
X4.7559Y-2.1181
X4.7598Y-3.0276
X4.7777Y-2.9752
X4.7924Y-2.5522
X4.8031Y-2.3898
X4.8109Y-2.7577
X4.811Y-2.2362
X4.815Y-2.8524
X4.8346Y-2.5157
X4.8346Y-3.3504
X4.8386Y-2.2559
X4.8504Y-3.0394
X4.8543Y-3.1339
X4.8583Y-2.1063
X4.8606Y-2.8723
X4.8701Y-3.3661
X4.874Y-2.2553
X4.878Y-2.7362
X4.886Y-2.5657
X4.9033Y-2.703
X4.9055Y-3.3504
X4.907Y-2.8647
X4.9083Y-2.6103
X4.9094Y-2.8333
X4.9169Y-3.2337
X4.9252Y-2.4567
X4.9398Y-2.4882
X4.9447Y-2.6654
X4.9469Y-2.8917
X4.9503Y-2.5256
X4.9537Y-2.4183
X4.9544Y-2.7874
X4.9849Y-2.8598
X4.9882Y-2.5
X5.0079Y-2.1024
X5.017Y-2.5394
X5.0276Y-2.9744
X5.031Y-2.5717
X5.0482Y-2.7563
X5.0669Y-2.0787
X5.0729Y-2.5737
X5.0729Y-2.6337
X5.0748Y-2.9488
X5.0906Y-3.3583
X5.0984Y-2.0669
X5.1024Y-1.5276
X5.1024Y-1.9134
X5.1024Y-2.5
X5.1024Y-2.9291
X5.122Y-1.9764
X5.1263Y-2.7212
X5.1417Y-2.252
X5.1457Y-2.8977
X5.1535Y-3.0061
X5.1549Y-2.8577
X5.1554Y-2.7085
X5.1614Y-2.6732
X5.1654Y-2.1772
X5.1742Y-2.7707
X5.188Y-2.4798
X5.189Y-2.2795
X5.1895Y-2.8189
X5.1929Y-2.2441
X5.2185Y-2.5157
X5.2323Y-2.2638
X5.2333Y-2.5945
X5.2385Y-2.563
X5.2433Y-2.1118
X5.2441Y-2.6654
X5.2461Y-2.0689
X5.248Y-3.1575
X5.252Y-2.7047
X5.2548Y-2.526
X5.2598Y-1.6339
X5.2638Y-3.4803
X5.2677Y-2.8543
X5.2756Y-3.3346
X5.2805Y-2.5079
X5.3189Y-2.8661
X5.3228Y-2.8977
X5.3287Y-2.4469
X5.3504Y-3.311
X5.3602Y-2.3701
X5.3937Y-2.6457
X5.4331Y-2.8661
X5.4902Y-2.9227
X5.6654Y-2.6457
T2
X4.2559Y-4.0551
T5
X4.1468Y-3.7175
X4.1468Y-3.8175
X4.2886Y-3.424
X4.3886Y-3.424
T6
X5.3665Y-1.7036
X5.3665Y-1.8016
X5.3665Y-1.8996
X5.3665Y-1.9976
T7
X3.9685Y-2.9124
X3.9685Y-3.0124
X3.9685Y-3.1124
X3.9685Y-3.2124
X3.9685Y-3.3124
X3.9685Y-3.4124
X3.9685Y-3.5124
X3.9685Y-3.6124
X3.9685Y-3.7124
X3.9685Y-3.8124
X4.3937Y-3.9309
X4.3937Y-4.0309
X4.3937Y-4.1309
X4.5945Y-3.9309
X4.5945Y-4.0309
X4.5945Y-4.1309
X4.7776Y-3.9309
X4.7776Y-4.0309
X4.7776Y-4.1309
X4.9606Y-3.9309
X4.9606Y-4.0309
X4.9606Y-4.1309
X5.1437Y-3.9309
X5.1437Y-4.0309
X5.1437Y-4.1309
X5.3268Y-3.9309
X5.3268Y-4.0309
X5.3268Y-4.1309
X5.5236Y-3.2805
X5.5236Y-3.3805
X5.5236Y-3.4805
X5.5236Y-3.5805
X5.5236Y-3.6805
X5.6811Y-2.9124
X5.6811Y-3.0124
X5.6811Y-3.1124
X5.6811Y-3.2124
X5.6811Y-3.3124
X5.6811Y-3.4124
X5.6811Y-3.5124
X5.6811Y-3.6124
X5.6811Y-3.7124
X5.6811Y-3.8124
T3
G00X3.9616Y-2.4567
M15
G01X3.936Y-2.4567
M16
G05
G00X3.9616Y-2.7323
M15
G01X3.936Y-2.7323
M16
G05
G00X5.7077Y-2.4567
M15
G01X5.7333Y-2.4567
M16
G05
G00X5.7077Y-2.7323
M15
G01X5.7333Y-2.7323
M16
G05
T4
G00X4.0551Y-2.4902
M15
G01X4.0551Y-2.502
M16
G05
G00X4.0551Y-2.687
M15
G01X4.0551Y-2.6988
M16
G05
G00X5.6142Y-2.502
M15
G01X5.6142Y-2.4902
M16
G05
G00X5.6142Y-2.6988
M15
G01X5.6142Y-2.687
M16
G05
M30
