M48
; DRILL file {KiCad 8.0.2} date 2024-06-02T12:05:09-0300
; FORMAT={-:-/ absolute / inch / decimal}
; #@! TF.CreationDate,2024-06-02T12:05:09-03:00
; #@! TF.GenerationSoftware,Kicad,Pcbnew,8.0.2
; #@! TF.FileFunction,Plated,1,2,Blind
FMAT,2
INCH
; #@! TA.AperFunction,Plated,Buried,ViaDrill
T1C0.0118
%
G90
G05
T1
X3.8858Y-2.2205
X3.9055Y-2.1299
X3.9646Y-2.3858
X4.1535Y-2.5945
X4.1654Y-2.5709
X4.311Y-2.9685
X4.3238Y-2.8858
X4.3622Y-2.8386
X4.3819Y-2.9016
X4.3898Y-2.3622
X4.3937Y-2.5
X4.4104Y-2.0443
X4.4114Y-1.9173
X4.5197Y-2.5512
X4.6181Y-2.0551
X4.6339Y-2.4409
X4.685Y-2.4685
X4.811Y-2.8543
X4.8169Y-3.3248
X4.8701Y-3.3661
X4.8976Y-3.3346
X4.9134Y-2.7126
X4.9775Y-2.7662
X5.0223Y-2.5341
X5.0591Y-2.5236
X5.0669Y-2.8661
X5.1024Y-1.5276
M30
