%TF.GenerationSoftware,KiCad,Pcbnew,8.0.2*%
%TF.CreationDate,2024-06-02T11:57:14-03:00*%
%TF.ProjectId,dough,646f7567-682e-46b6-9963-61645f706362,rev?*%
%TF.SameCoordinates,Original*%
%TF.FileFunction,Copper,L2,Inr*%
%TF.FilePolarity,Positive*%
%FSLAX46Y46*%
G04 Gerber Fmt 4.6, Leading zero omitted, Abs format (unit mm)*
G04 Created by KiCad (PCBNEW 8.0.2) date 2024-06-02 11:57:14*
%MOMM*%
%LPD*%
G01*
G04 APERTURE LIST*
%TA.AperFunction,ComponentPad*%
%ADD10C,1.143000*%
%TD*%
%TA.AperFunction,ComponentPad*%
%ADD11R,1.700000X1.700000*%
%TD*%
%TA.AperFunction,ComponentPad*%
%ADD12O,1.700000X1.700000*%
%TD*%
%TA.AperFunction,HeatsinkPad*%
%ADD13C,0.600000*%
%TD*%
%TA.AperFunction,ComponentPad*%
%ADD14C,1.498600*%
%TD*%
%TA.AperFunction,ComponentPad*%
%ADD15O,1.550000X0.890000*%
%TD*%
%TA.AperFunction,ComponentPad*%
%ADD16O,0.950000X1.250000*%
%TD*%
%TA.AperFunction,ViaPad*%
%ADD17C,0.600000*%
%TD*%
%TA.AperFunction,ViaPad*%
%ADD18C,1.000000*%
%TD*%
%TA.AperFunction,Conductor*%
%ADD19C,0.250000*%
%TD*%
%TA.AperFunction,Conductor*%
%ADD20C,0.500000*%
%TD*%
%TA.AperFunction,Conductor*%
%ADD21C,0.150000*%
%TD*%
%TA.AperFunction,Conductor*%
%ADD22C,0.200000*%
%TD*%
G04 APERTURE END LIST*
D10*
%TO.N,GND*%
%TO.C,J1*%
X110820000Y-90400000D03*
%TO.N,Net-(D2-K)*%
X108280000Y-90400000D03*
%TD*%
D11*
%TO.N,GND*%
%TO.C,J7*%
X126000000Y-104925000D03*
D12*
%TO.N,Net-(J7-Pin_2)*%
X126000000Y-102385000D03*
%TO.N,SER_3*%
X126000000Y-99845000D03*
%TD*%
D11*
%TO.N,GND*%
%TO.C,J6*%
X130650000Y-104925000D03*
D12*
%TO.N,Net-(J6-Pin_2)*%
X130650000Y-102385000D03*
%TO.N,SER_2*%
X130650000Y-99845000D03*
%TD*%
D11*
%TO.N,GND*%
%TO.C,J12*%
X100800000Y-73975000D03*
D12*
%TO.N,SPI_BIT2*%
X100800000Y-76515000D03*
%TO.N,SPI0_MISO*%
X100800000Y-79055000D03*
%TO.N,SPI0_CLK*%
X100800000Y-81595000D03*
%TO.N,SPI0_MOSI*%
X100800000Y-84135000D03*
%TO.N,SPI_BIT3*%
X100800000Y-86675000D03*
%TO.N,SPI0_CS2*%
X100800000Y-89215000D03*
%TO.N,GPIO6_esp*%
X100800000Y-91755000D03*
%TO.N,GPIO5_esp*%
X100800000Y-94295000D03*
%TO.N,GPIO4_esp*%
X100800000Y-96835000D03*
%TD*%
D13*
%TO.N,GND*%
%TO.C,U9*%
X119900000Y-44160000D03*
X119900000Y-45560000D03*
X120600000Y-43460000D03*
X120600000Y-44860000D03*
X120600000Y-46260000D03*
X121300000Y-44160000D03*
X121300000Y-45560000D03*
X122000000Y-43460000D03*
X122000000Y-44860000D03*
X122000000Y-46260000D03*
X122700000Y-44160000D03*
X122700000Y-45560000D03*
%TD*%
D11*
%TO.N,GND*%
%TO.C,J4*%
X111600000Y-104925000D03*
D12*
%TO.N,Net-(J4-Pin_2)*%
X111600000Y-102385000D03*
%TO.N,SER_6*%
X111600000Y-99845000D03*
%TD*%
D11*
%TO.N,GND*%
%TO.C,J9*%
X116700000Y-104925000D03*
D12*
%TO.N,Net-(J9-Pin_2)*%
X116700000Y-102385000D03*
%TO.N,SER_5*%
X116700000Y-99845000D03*
%TD*%
D14*
%TO.N,GND*%
%TO.C,U11*%
X136308000Y-43271100D03*
%TO.N,UART1_RX*%
X136308000Y-45760300D03*
%TO.N,UART1_TX*%
X136308000Y-48249500D03*
%TO.N,+3V3*%
X136308000Y-50738700D03*
%TD*%
D11*
%TO.N,GND*%
%TO.C,J8*%
X121350000Y-104925000D03*
D12*
%TO.N,Net-(J8-Pin_2)*%
X121350000Y-102385000D03*
%TO.N,SER_4*%
X121350000Y-99845000D03*
%TD*%
D11*
%TO.N,GND*%
%TO.C,J5*%
X135300000Y-104925000D03*
D12*
%TO.N,Net-(J5-Pin_2)*%
X135300000Y-102385000D03*
%TO.N,SER_1*%
X135300000Y-99845000D03*
%TD*%
D15*
%TO.N,GND*%
%TO.C,J10*%
X145300000Y-69400000D03*
D16*
X142600000Y-68400000D03*
X142600000Y-63400000D03*
D15*
X145300000Y-62400000D03*
%TD*%
D11*
%TO.N,+5V*%
%TO.C,J2*%
X140300000Y-83325000D03*
D12*
%TO.N,+3V3*%
X140300000Y-85865000D03*
%TO.N,SDA0*%
X140300000Y-88405000D03*
%TO.N,SCL0*%
X140300000Y-90945000D03*
%TO.N,GND*%
X140300000Y-93485000D03*
%TD*%
D11*
%TO.N,GND*%
%TO.C,J11*%
X144300000Y-73975000D03*
D12*
%TO.N,ADC0*%
X144300000Y-76515000D03*
%TO.N,ADC1*%
X144300000Y-79055000D03*
%TO.N,ADC2*%
X144300000Y-81595000D03*
%TO.N,GPIO15*%
X144300000Y-84135000D03*
%TO.N,GPIO16*%
X144300000Y-86675000D03*
%TO.N,GPIO17*%
X144300000Y-89215000D03*
%TO.N,GPIO18*%
X144300000Y-91755000D03*
%TO.N,+5V*%
X144300000Y-94295000D03*
%TO.N,+3V3*%
X144300000Y-96835000D03*
%TD*%
D15*
%TO.N,GND*%
%TO.C,J3*%
X100300000Y-62400000D03*
D16*
X103000000Y-63400000D03*
X103000000Y-68400000D03*
D15*
X100300000Y-69400000D03*
%TD*%
D17*
%TO.N,GND*%
X116529632Y-71400001D03*
X116550000Y-62150000D03*
X113600000Y-75400000D03*
X132900000Y-57500000D03*
X126200000Y-73000000D03*
X124100000Y-75500000D03*
D18*
X119500000Y-96100000D03*
D17*
X117400000Y-47200000D03*
X124759635Y-66634635D03*
X123300000Y-79600000D03*
%TO.N,+5V*%
X108100000Y-103000000D03*
X103400000Y-101500000D03*
%TO.N,+3V3*%
X127587600Y-69887600D03*
X120977600Y-82187200D03*
X116500000Y-63300000D03*
X117900000Y-67201200D03*
X115500000Y-71600000D03*
X115592800Y-38448400D03*
X119352000Y-70554000D03*
D18*
X133300000Y-80200000D03*
D17*
X123466800Y-72586000D03*
X121577513Y-64943819D03*
X132400000Y-63800000D03*
%TO.N,+1V1*%
X125717155Y-63917155D03*
X122196800Y-70046000D03*
%TO.N,ADC3*%
X112600355Y-74890383D03*
%TO.N,ADC_VREF*%
X117269200Y-68064800D03*
%TO.N,SDA1*%
X119000000Y-62700000D03*
X125896319Y-70887443D03*
X112050000Y-48700000D03*
X130700000Y-73602000D03*
X118700000Y-73800000D03*
X112025000Y-51925000D03*
X136700000Y-72600000D03*
X123046867Y-65600000D03*
%TO.N,SCL1*%
X130300000Y-74300000D03*
X128700000Y-72800000D03*
X116900000Y-74200000D03*
X117700000Y-62000000D03*
X124300000Y-69500000D03*
X127216977Y-71816978D03*
%TO.N,SER_1*%
X129600000Y-38800000D03*
X124800000Y-68900000D03*
%TO.N,SER_2*%
X133600000Y-41500000D03*
X126429221Y-70261129D03*
X129300000Y-85300000D03*
%TO.N,SER_3*%
X123200000Y-57000000D03*
X125400000Y-68300000D03*
%TO.N,SER_4*%
X124700000Y-53299998D03*
X131700000Y-70700000D03*
X131200000Y-55300000D03*
%TO.N,SWCLK*%
X125471224Y-63100000D03*
%TO.N,SWD*%
X124105557Y-65170025D03*
%TO.N,SER_5*%
X131043411Y-69884282D03*
%TO.N,LED_R*%
X111500000Y-60000000D03*
X99200000Y-54100000D03*
%TO.N,LED_G*%
X98700000Y-56400000D03*
X119818524Y-63860772D03*
X114200000Y-64200000D03*
%TO.N,LED_B*%
X111600000Y-63500000D03*
X100700000Y-60600000D03*
%TO.N,BMI_INT2*%
X127276800Y-75430800D03*
%TO.N,BMI_INT1*%
X129290461Y-75300000D03*
%TO.N,Net-(U2-XIN)*%
X127100000Y-63200000D03*
%TO.N,Net-(U2-XOUT)*%
X126400000Y-62775000D03*
%TO.N,USB1_D-*%
X105800000Y-65300000D03*
X120774400Y-77158000D03*
%TO.N,USB1_D+*%
X120774400Y-77767600D03*
X105500000Y-65900000D03*
%TO.N,Net-(U8-SDO)*%
X130934400Y-72586000D03*
%TO.N,Net-(D4-A)*%
X143900000Y-67200000D03*
%TO.N,Net-(D8-A)*%
X104900000Y-68700000D03*
%TO.N,ESP32_RST*%
X106123058Y-42023058D03*
X128500000Y-64100000D03*
%TO.N,Net-(D9-A)*%
X137000000Y-67200000D03*
%TO.N,Net-(Q1-S)*%
X135350000Y-62150000D03*
X115694400Y-39667600D03*
%TO.N,SPI0_CLK*%
X122200000Y-56800000D03*
%TO.N,Net-(D6-A)*%
X105300000Y-64600000D03*
%TO.N,SPI_CS*%
X119600000Y-56600000D03*
%TO.N,USB2_D+*%
X117600000Y-58700000D03*
X119858058Y-75841942D03*
%TO.N,USB2_D-*%
X121166942Y-75383058D03*
X117324265Y-59824265D03*
%TO.N,SD_CD*%
X129600000Y-48600000D03*
%TO.N,SPI_BIT3*%
X118400000Y-56800000D03*
%TO.N,SPI0_MISO*%
X123400000Y-53700000D03*
%TO.N,SPI_BIT2*%
X106950000Y-76500000D03*
X124700000Y-56700000D03*
%TO.N,SPI0_MOSI*%
X120800000Y-53800000D03*
X102500000Y-78300000D03*
%TO.N,UART1_TX*%
X119500000Y-60800000D03*
%TO.N,UART1_RX*%
X118300000Y-60650000D03*
%TO.N,SCL0*%
X126000000Y-61525000D03*
X128851600Y-65372400D03*
X115200000Y-61000000D03*
X133100000Y-65100000D03*
%TO.N,SDA0*%
X128851600Y-66896400D03*
X128850000Y-57900000D03*
X133200000Y-67700000D03*
%TO.N,Net-(R18-Pad1)*%
X111400000Y-69100000D03*
%TO.N,/RP2040 section/QSPI_SS*%
X124889200Y-82136400D03*
X122200000Y-72500000D03*
X113100000Y-69800000D03*
%TO.N,Net-(U2-USB_DM)*%
X118793200Y-71874800D03*
%TO.N,Net-(U2-USB_DP)*%
X119150846Y-72888754D03*
%TO.N,SER_6*%
X130150000Y-68850000D03*
%TO.N,Net-(D7-A)*%
X131900000Y-57000000D03*
%TO.N,BUZZER*%
X114800000Y-64800000D03*
X128850000Y-56048367D03*
%TO.N,GPIO17*%
X133400000Y-68700000D03*
X138800000Y-73100000D03*
X131100000Y-67900000D03*
%TO.N,ADC1*%
X115730454Y-67261825D03*
X133700000Y-84700000D03*
X124400000Y-84700000D03*
X112000000Y-74200000D03*
%TO.N,ADC0*%
X122350000Y-84450000D03*
X114800000Y-66600000D03*
X136119669Y-84080331D03*
X111000000Y-72900000D03*
%TO.N,ADC2*%
X111300000Y-73700000D03*
X123700000Y-85500000D03*
X132400000Y-86000000D03*
%TO.N,GPIO15*%
X127566206Y-64366206D03*
X134000000Y-66500000D03*
X129500000Y-64400000D03*
%TO.N,GPIO16*%
X130948231Y-68796785D03*
X133700000Y-69900000D03*
X139450000Y-74236828D03*
%TO.N,Net-(Q4-S)*%
X135400000Y-72500000D03*
X133179266Y-53640042D03*
%TO.N,GPIO6_esp*%
X110800000Y-72100000D03*
%TO.N,SPI0_CS2*%
X117300000Y-52200000D03*
X106100000Y-70600000D03*
X113700000Y-63200000D03*
%TO.N,GPIO5_esp*%
X109825000Y-73300000D03*
%TO.N,GPIO4_esp*%
X109500000Y-75400000D03*
%TO.N,ESP32_BOOT*%
X136150000Y-60200000D03*
%TO.N,Net-(Q5-S)*%
X119574265Y-85474265D03*
X125500000Y-62150000D03*
X116520026Y-69199999D03*
%TO.N,RP2040_RST*%
X116900000Y-46000000D03*
%TO.N,Net-(U9-IO20)*%
X113800000Y-54975000D03*
%TO.N,Net-(U9-IO19)*%
X115350000Y-52400000D03*
%TD*%
D19*
%TO.N,GND*%
X118325000Y-61741116D02*
X117958884Y-61375000D01*
X121165686Y-66300000D02*
X118325000Y-63459314D01*
X117325000Y-61375000D02*
X116550000Y-62150000D01*
X117958884Y-61375000D02*
X117325000Y-61375000D01*
X118325000Y-63459314D02*
X118325000Y-61741116D01*
X124759635Y-66634635D02*
X124425000Y-66300000D01*
X124425000Y-66300000D02*
X121165686Y-66300000D01*
D20*
%TO.N,+3V3*%
X131800000Y-59900000D02*
X136308000Y-55392000D01*
X136308000Y-55392000D02*
X136308000Y-50738700D01*
X131800000Y-63200000D02*
X131800000Y-59900000D01*
D19*
X121434800Y-70554000D02*
X119352000Y-70554000D01*
X118846000Y-70554000D02*
X117100000Y-72300000D01*
X116000000Y-72300000D02*
X115500000Y-71800000D01*
X117100000Y-72300000D02*
X116000000Y-72300000D01*
D20*
X132400000Y-63800000D02*
X131800000Y-63200000D01*
D19*
X123466800Y-72586000D02*
X121434800Y-70554000D01*
X119352000Y-70554000D02*
X118846000Y-70554000D01*
D21*
X115500000Y-71800000D02*
X115500000Y-71600000D01*
%TO.N,SDA1*%
X112050000Y-51900000D02*
X112050000Y-48700000D01*
X120146867Y-62700000D02*
X123046867Y-65600000D01*
X112025000Y-51925000D02*
X112050000Y-51900000D01*
D19*
X135698000Y-73602000D02*
X136700000Y-72600000D01*
D21*
X119000000Y-62700000D02*
X120146867Y-62700000D01*
D19*
X130700000Y-73602000D02*
X135698000Y-73602000D01*
D21*
%TO.N,SCL1*%
X117700000Y-62000000D02*
X117700000Y-63400000D01*
X123800000Y-69500000D02*
X124300000Y-69500000D01*
D22*
X128600000Y-72900000D02*
X128700000Y-72800000D01*
D21*
X117700000Y-63400000D02*
X123800000Y-69500000D01*
D22*
X128299999Y-72900000D02*
X128600000Y-72900000D01*
X127216977Y-71816978D02*
X128299999Y-72900000D01*
%TO.N,SER_1*%
X127350000Y-67350000D02*
X129300000Y-69300000D01*
D21*
X127350000Y-67050000D02*
X127450000Y-66950000D01*
X128276600Y-66123400D02*
X128976600Y-66123400D01*
D22*
X125592893Y-67200000D02*
X127200000Y-67200000D01*
D21*
X127450000Y-66950000D02*
X128276600Y-66123400D01*
X127200000Y-67200000D02*
X127450000Y-66950000D01*
D22*
X134449119Y-79559212D02*
X134449119Y-98994119D01*
X124800000Y-68900000D02*
X124800000Y-67992893D01*
X127200000Y-67200000D02*
X127350000Y-67350000D01*
D21*
X128976600Y-66123400D02*
X130175000Y-64925000D01*
X130175000Y-64925000D02*
X130175000Y-39375000D01*
D22*
X129300000Y-69300000D02*
X129300000Y-74410093D01*
D21*
X127350000Y-67350000D02*
X127350000Y-67050000D01*
D22*
X124800000Y-67992893D02*
X125592893Y-67200000D01*
D21*
X130175000Y-39375000D02*
X129600000Y-38800000D01*
D22*
X134449119Y-98994119D02*
X135300000Y-99845000D01*
X129300000Y-74410093D02*
X134449119Y-79559212D01*
D21*
%TO.N,SER_2*%
X126429221Y-72305365D02*
X126429221Y-71881509D01*
X129300000Y-77452288D02*
X129300000Y-76200000D01*
D22*
X126429221Y-70261129D02*
X126429221Y-71881509D01*
D21*
X129300000Y-76200000D02*
X127500000Y-74400000D01*
D22*
X129300000Y-98495000D02*
X130650000Y-99845000D01*
D21*
X127500000Y-73376144D02*
X126429221Y-72305365D01*
D22*
X129300000Y-77452288D02*
X129300000Y-85300000D01*
D21*
X127500000Y-74400000D02*
X127500000Y-73376144D01*
D22*
X129300000Y-85300000D02*
X129300000Y-98495000D01*
%TO.N,SER_3*%
X125400000Y-71700000D02*
X125400000Y-74261107D01*
X125101302Y-71401302D02*
X125400000Y-71700000D01*
X125400000Y-74261107D02*
X126000000Y-74861107D01*
X125400000Y-70050000D02*
X125101302Y-70348698D01*
X126000000Y-74861107D02*
X126000000Y-99845000D01*
X125101302Y-70348698D02*
X125101302Y-71401302D01*
X125400000Y-68300000D02*
X125400000Y-70050000D01*
D21*
%TO.N,SER_4*%
X131700000Y-70800000D02*
X131700000Y-63842462D01*
X131200000Y-63342462D02*
X131200000Y-55300000D01*
X131700000Y-70700000D02*
X131700000Y-70800000D01*
X131700000Y-63842462D02*
X131200000Y-63342462D01*
D19*
%TO.N,LED_R*%
X105100000Y-60000000D02*
X99200000Y-54100000D01*
X111500000Y-60000000D02*
X105100000Y-60000000D01*
%TO.N,LED_G*%
X114200000Y-64200000D02*
X113300000Y-64200000D01*
X113300000Y-64200000D02*
X109700000Y-60600000D01*
X109700000Y-60600000D02*
X102900000Y-60600000D01*
X102900000Y-60600000D02*
X98700000Y-56400000D01*
%TO.N,LED_B*%
X109500000Y-61400000D02*
X101500000Y-61400000D01*
X101500000Y-61400000D02*
X100700000Y-60600000D01*
X111600000Y-63500000D02*
X109500000Y-61400000D01*
D22*
%TO.N,USB1_D-*%
X120774400Y-77158000D02*
X117658000Y-77158000D01*
X117658000Y-77158000D02*
X105800000Y-65300000D01*
%TO.N,USB1_D+*%
X120774400Y-77767600D02*
X117367600Y-77767600D01*
X117367600Y-77767600D02*
X105500000Y-65900000D01*
D21*
%TO.N,ESP32_RST*%
X119900000Y-48186827D02*
X119900000Y-48200000D01*
X119900000Y-48200000D02*
X123100000Y-48200000D01*
X129425000Y-60975000D02*
X128500000Y-61900000D01*
X107500000Y-44300000D02*
X116013173Y-44300000D01*
X128500000Y-61900000D02*
X128500000Y-64100000D01*
X106123058Y-42023058D02*
X106123058Y-42923058D01*
X129425000Y-54525000D02*
X129425000Y-60975000D01*
X123100000Y-48200000D02*
X129425000Y-54525000D01*
X116013173Y-44300000D02*
X119900000Y-48186827D01*
X106123058Y-42923058D02*
X107500000Y-44300000D01*
D22*
%TO.N,SPI0_MOSI*%
X102200000Y-78600000D02*
X102200000Y-82735000D01*
X102200000Y-82735000D02*
X100800000Y-84135000D01*
X102500000Y-78300000D02*
X102200000Y-78600000D01*
%TO.N,SCL0*%
X133751471Y-67100000D02*
X133800000Y-67100000D01*
X133800000Y-67100000D02*
X141500000Y-74800000D01*
X133100000Y-65100000D02*
X133100000Y-66448529D01*
X133100000Y-66448529D02*
X133751471Y-67100000D01*
X141500000Y-89745000D02*
X140300000Y-90945000D01*
X141500000Y-74800000D02*
X141500000Y-89745000D01*
%TO.N,SDA0*%
X137600000Y-72100000D02*
X137600000Y-85705000D01*
X133200000Y-67700000D02*
X137600000Y-72100000D01*
X137600000Y-85705000D02*
X140300000Y-88405000D01*
%TO.N,/RP2040 section/QSPI_SS*%
X113100000Y-69800000D02*
X113400000Y-70100000D01*
D19*
X124889200Y-79989200D02*
X119800000Y-74900000D01*
D22*
X116600000Y-74900000D02*
X119800000Y-74900000D01*
D19*
X124889200Y-82136400D02*
X124889200Y-79989200D01*
D22*
X122200000Y-72500000D02*
X119800000Y-74900000D01*
X113400000Y-71700000D02*
X116600000Y-74900000D01*
X113400000Y-70100000D02*
X113400000Y-71700000D01*
D19*
%TO.N,BUZZER*%
X115025000Y-64575000D02*
X114800000Y-64800000D01*
X115025000Y-62511396D02*
X115025000Y-64575000D01*
X128850000Y-56048367D02*
X122017749Y-56048367D01*
X122017749Y-56048367D02*
X117604289Y-60461827D01*
X117074569Y-60461827D02*
X115025000Y-62511396D01*
X117604289Y-60461827D02*
X117074569Y-60461827D01*
D21*
%TO.N,ADC1*%
X112000000Y-75103201D02*
X112000000Y-74200000D01*
X122800000Y-83100000D02*
X119996799Y-83100000D01*
X124400000Y-84700000D02*
X122800000Y-83100000D01*
X119996799Y-83100000D02*
X112000000Y-75103201D01*
%TO.N,ADC0*%
X117406849Y-81500000D02*
X117400000Y-81500000D01*
X110725000Y-73175000D02*
X111000000Y-72900000D01*
X122350000Y-84450000D02*
X121900000Y-84000000D01*
X117400000Y-81500000D02*
X110725000Y-74825000D01*
X110725000Y-74825000D02*
X110725000Y-73175000D01*
X121900000Y-84000000D02*
X119906849Y-84000000D01*
X119906849Y-84000000D02*
X117406849Y-81500000D01*
%TO.N,ADC2*%
X123700000Y-84986827D02*
X122213173Y-83500000D01*
X119901824Y-83500000D02*
X111300000Y-74898176D01*
X111300000Y-74898176D02*
X111300000Y-73700000D01*
X122213173Y-83500000D02*
X119901824Y-83500000D01*
X123700000Y-85500000D02*
X123700000Y-84986827D01*
%TO.N,GPIO15*%
X127875000Y-64675000D02*
X129225000Y-64675000D01*
X142500000Y-75200000D02*
X145200000Y-75200000D01*
X129225000Y-64675000D02*
X129450000Y-64450000D01*
X146000000Y-76000000D02*
X146000000Y-82435000D01*
X127566206Y-64366206D02*
X127875000Y-64675000D01*
X134000000Y-66500000D02*
X134000000Y-66700000D01*
X134000000Y-66700000D02*
X142500000Y-75200000D01*
X146000000Y-82435000D02*
X144300000Y-84135000D01*
X145200000Y-75200000D02*
X146000000Y-76000000D01*
D19*
%TO.N,GPIO6_esp*%
X110800000Y-72100000D02*
X110300000Y-71600000D01*
X108100000Y-71600000D02*
X104100000Y-75600000D01*
X104100000Y-75600000D02*
X104100000Y-88455000D01*
X110300000Y-71600000D02*
X108100000Y-71600000D01*
X104100000Y-88455000D02*
X100800000Y-91755000D01*
%TO.N,SPI0_CS2*%
X103400000Y-73300000D02*
X103400000Y-86615000D01*
X114575000Y-62325000D02*
X114575000Y-54825000D01*
X113700000Y-63200000D02*
X114575000Y-62325000D01*
X117200000Y-52200000D02*
X117300000Y-52200000D01*
X117300000Y-52100000D02*
X117200000Y-52200000D01*
X103400000Y-86615000D02*
X100800000Y-89215000D01*
X106100000Y-70600000D02*
X106000000Y-70500000D01*
X117300000Y-52200000D02*
X117300000Y-52100000D01*
X106100000Y-70600000D02*
X103400000Y-73300000D01*
X114575000Y-54825000D02*
X117200000Y-52200000D01*
%TO.N,GPIO5_esp*%
X107600000Y-74400000D02*
X105400000Y-76600000D01*
X105400000Y-89695000D02*
X100800000Y-94295000D01*
X109825000Y-73300000D02*
X108725000Y-74400000D01*
X108725000Y-74400000D02*
X107600000Y-74400000D01*
X105400000Y-76600000D02*
X105400000Y-89695000D01*
%TO.N,GPIO4_esp*%
X107383500Y-90251500D02*
X100800000Y-96835000D01*
X109500000Y-75500000D02*
X107383500Y-77616500D01*
X109500000Y-75400000D02*
X109500000Y-75500000D01*
X107383500Y-77616500D02*
X107383500Y-90251500D01*
%TD*%
M02*
