%TF.GenerationSoftware,KiCad,Pcbnew,8.0.2*%
%TF.CreationDate,2024-08-20T16:45:35-03:00*%
%TF.ProjectId,dough,646f7567-682e-46b6-9963-61645f706362,rev?*%
%TF.SameCoordinates,Original*%
%TF.FileFunction,Legend,Bot*%
%TF.FilePolarity,Positive*%
%FSLAX46Y46*%
G04 Gerber Fmt 4.6, Leading zero omitted, Abs format (unit mm)*
G04 Created by KiCad (PCBNEW 8.0.2) date 2024-08-20 16:45:35*
%MOMM*%
%LPD*%
G01*
G04 APERTURE LIST*
%ADD10C,0.200000*%
%ADD11C,0.150000*%
%ADD12C,0.152400*%
%ADD13C,0.508000*%
%ADD14C,0.120000*%
%ADD15C,0.100000*%
G04 APERTURE END LIST*
D10*
G36*
X121331127Y-68734336D02*
G01*
X121377390Y-68752330D01*
X121381274Y-68756055D01*
X121399127Y-68803133D01*
X121398936Y-68808935D01*
X121377390Y-68854180D01*
X121354931Y-68866672D01*
X121304849Y-68873475D01*
X121212770Y-68873475D01*
X121434054Y-69389316D01*
X121461098Y-69390861D01*
X121508792Y-69408855D01*
X121514116Y-69413870D01*
X121531507Y-69459658D01*
X121531316Y-69465460D01*
X121509769Y-69510704D01*
X121487469Y-69523197D01*
X121437473Y-69530000D01*
X121247941Y-69530000D01*
X121221664Y-69528473D01*
X121175401Y-69510704D01*
X121170306Y-69505632D01*
X121153663Y-69459658D01*
X121153854Y-69453857D01*
X121175401Y-69408855D01*
X121197859Y-69396204D01*
X121247941Y-69389316D01*
X121282135Y-69389316D01*
X121247941Y-69295526D01*
X120905757Y-69295526D01*
X120872051Y-69389316D01*
X120906489Y-69389316D01*
X120932767Y-69390861D01*
X120979030Y-69408855D01*
X120982871Y-69412580D01*
X121000523Y-69459658D01*
X121000334Y-69465460D01*
X120979030Y-69510704D01*
X120956571Y-69523197D01*
X120906489Y-69530000D01*
X120716957Y-69530000D01*
X120690718Y-69528473D01*
X120644905Y-69510704D01*
X120641064Y-69506935D01*
X120623412Y-69459658D01*
X120625904Y-69442360D01*
X120654919Y-69402016D01*
X120671566Y-69394277D01*
X120720376Y-69389316D01*
X120820429Y-69154842D01*
X120964131Y-69154842D01*
X121191521Y-69154842D01*
X121077459Y-68912798D01*
X120964131Y-69154842D01*
X120820429Y-69154842D01*
X121000523Y-68732791D01*
X121304849Y-68732791D01*
X121331127Y-68734336D01*
G37*
G36*
X120572020Y-68734336D02*
G01*
X120618283Y-68752330D01*
X120622124Y-68756055D01*
X120639776Y-68803133D01*
X120639589Y-68808935D01*
X120618527Y-68854180D01*
X120601148Y-68865165D01*
X120552581Y-68873475D01*
X120552581Y-69389316D01*
X120570752Y-69390251D01*
X120618283Y-69408855D01*
X120622124Y-69412580D01*
X120639776Y-69459658D01*
X120639587Y-69465460D01*
X120618283Y-69510704D01*
X120595824Y-69523197D01*
X120545743Y-69530000D01*
X120262665Y-69530000D01*
X120229537Y-69529248D01*
X120180651Y-69524920D01*
X120131711Y-69515454D01*
X120084856Y-69499225D01*
X120073957Y-69493936D01*
X120031453Y-69467982D01*
X119992533Y-69437676D01*
X119969070Y-69415282D01*
X119938399Y-69376023D01*
X119913154Y-69329965D01*
X119895911Y-69282179D01*
X119885825Y-69229834D01*
X119882868Y-69178290D01*
X119882868Y-69114054D01*
X119882916Y-69110879D01*
X120023796Y-69110879D01*
X120023796Y-69173161D01*
X120024487Y-69195244D01*
X120032760Y-69246465D01*
X120052128Y-69291618D01*
X120057635Y-69300041D01*
X120092382Y-69337901D01*
X120135659Y-69366845D01*
X120159595Y-69376676D01*
X120209430Y-69386660D01*
X120262177Y-69389316D01*
X120411898Y-69389316D01*
X120411898Y-68873475D01*
X120263642Y-68873475D01*
X120236408Y-68874436D01*
X120187247Y-68882130D01*
X120138834Y-68900830D01*
X120111599Y-68919849D01*
X120077751Y-68956509D01*
X120049197Y-69001458D01*
X120044658Y-69010388D01*
X120028658Y-69059160D01*
X120023796Y-69110879D01*
X119882916Y-69110879D01*
X119883127Y-69096808D01*
X119887555Y-69045451D01*
X119899476Y-68995108D01*
X119902688Y-68985988D01*
X119923064Y-68940196D01*
X119948569Y-68897166D01*
X119976572Y-68858017D01*
X120011339Y-68819497D01*
X120027179Y-68805947D01*
X120071217Y-68777938D01*
X120116852Y-68757948D01*
X120149779Y-68747262D01*
X120199914Y-68736958D01*
X120250942Y-68733524D01*
X120545743Y-68732791D01*
X120572020Y-68734336D01*
G37*
G36*
X119176517Y-68779685D02*
G01*
X119148185Y-68744515D01*
X119114724Y-68732791D01*
X119067930Y-68749841D01*
X119064166Y-68753551D01*
X119045847Y-68800400D01*
X119044626Y-68823161D01*
X119044626Y-68938688D01*
X119051515Y-68987287D01*
X119064166Y-69009030D01*
X119109009Y-69029608D01*
X119114724Y-69029790D01*
X119160153Y-69015380D01*
X119183341Y-68970660D01*
X119185554Y-68961158D01*
X119204849Y-68920125D01*
X119246126Y-68890528D01*
X119283496Y-68874940D01*
X119333932Y-68862117D01*
X119384612Y-68857843D01*
X119434317Y-68862035D01*
X119484059Y-68875927D01*
X119500872Y-68883244D01*
X119544696Y-68911548D01*
X119581204Y-68948713D01*
X119594173Y-68965799D01*
X119618879Y-69011537D01*
X119631510Y-69058834D01*
X119634717Y-69101353D01*
X119634717Y-69185617D01*
X119628882Y-69235920D01*
X119608713Y-69286056D01*
X119578243Y-69325999D01*
X119560956Y-69342177D01*
X119520381Y-69369639D01*
X119472662Y-69389255D01*
X119417799Y-69401024D01*
X119363933Y-69404886D01*
X119355792Y-69404947D01*
X119304747Y-69402321D01*
X119255580Y-69393465D01*
X119223168Y-69382721D01*
X119180026Y-69355112D01*
X119156001Y-69331919D01*
X119121563Y-69302365D01*
X119093475Y-69295526D01*
X119047940Y-69313379D01*
X119043893Y-69317264D01*
X119022831Y-69362640D01*
X119022644Y-69368066D01*
X119038856Y-69414595D01*
X119051465Y-69431081D01*
X119089548Y-69467344D01*
X119131714Y-69494736D01*
X119159420Y-69508018D01*
X119210741Y-69526200D01*
X119258792Y-69537366D01*
X119309132Y-69543831D01*
X119355059Y-69545631D01*
X119408589Y-69543294D01*
X119459758Y-69536281D01*
X119508566Y-69524594D01*
X119555014Y-69508231D01*
X119580495Y-69496782D01*
X119624214Y-69471226D01*
X119664146Y-69438522D01*
X119700292Y-69398669D01*
X119718736Y-69373440D01*
X119743634Y-69330346D01*
X119763141Y-69279567D01*
X119773644Y-69226353D01*
X119775645Y-69189525D01*
X119775645Y-69099155D01*
X119772455Y-69048002D01*
X119762883Y-68998588D01*
X119746931Y-68950915D01*
X119724598Y-68904982D01*
X119696495Y-68862499D01*
X119663476Y-68825176D01*
X119625543Y-68793012D01*
X119582693Y-68766008D01*
X119536592Y-68744637D01*
X119489148Y-68729371D01*
X119440361Y-68720212D01*
X119390230Y-68717159D01*
X119338131Y-68720105D01*
X119289117Y-68728940D01*
X119275680Y-68732547D01*
X119227373Y-68750568D01*
X119182286Y-68775780D01*
X119176517Y-68779685D01*
G37*
X106196993Y-98943409D02*
X106054136Y-98991028D01*
X106054136Y-98991028D02*
X106006517Y-99038647D01*
X106006517Y-99038647D02*
X105958898Y-99133885D01*
X105958898Y-99133885D02*
X105958898Y-99276742D01*
X105958898Y-99276742D02*
X106006517Y-99371980D01*
X106006517Y-99371980D02*
X106054136Y-99419600D01*
X106054136Y-99419600D02*
X106149374Y-99467219D01*
X106149374Y-99467219D02*
X106530326Y-99467219D01*
X106530326Y-99467219D02*
X106530326Y-98467219D01*
X106530326Y-98467219D02*
X106196993Y-98467219D01*
X106196993Y-98467219D02*
X106101755Y-98514838D01*
X106101755Y-98514838D02*
X106054136Y-98562457D01*
X106054136Y-98562457D02*
X106006517Y-98657695D01*
X106006517Y-98657695D02*
X106006517Y-98752933D01*
X106006517Y-98752933D02*
X106054136Y-98848171D01*
X106054136Y-98848171D02*
X106101755Y-98895790D01*
X106101755Y-98895790D02*
X106196993Y-98943409D01*
X106196993Y-98943409D02*
X106530326Y-98943409D01*
X105577945Y-99181504D02*
X105101755Y-99181504D01*
X105673183Y-99467219D02*
X105339850Y-98467219D01*
X105339850Y-98467219D02*
X105006517Y-99467219D01*
X104816040Y-98467219D02*
X104244612Y-98467219D01*
X104530326Y-99467219D02*
X104530326Y-98467219D01*
X104054135Y-98467219D02*
X103482707Y-98467219D01*
X103768421Y-99467219D02*
X103768421Y-98467219D01*
X105954136Y-101167219D02*
X106430326Y-101167219D01*
X106430326Y-101167219D02*
X106477945Y-101643409D01*
X106477945Y-101643409D02*
X106430326Y-101595790D01*
X106430326Y-101595790D02*
X106335088Y-101548171D01*
X106335088Y-101548171D02*
X106096993Y-101548171D01*
X106096993Y-101548171D02*
X106001755Y-101595790D01*
X106001755Y-101595790D02*
X105954136Y-101643409D01*
X105954136Y-101643409D02*
X105906517Y-101738647D01*
X105906517Y-101738647D02*
X105906517Y-101976742D01*
X105906517Y-101976742D02*
X105954136Y-102071980D01*
X105954136Y-102071980D02*
X106001755Y-102119600D01*
X106001755Y-102119600D02*
X106096993Y-102167219D01*
X106096993Y-102167219D02*
X106335088Y-102167219D01*
X106335088Y-102167219D02*
X106430326Y-102119600D01*
X106430326Y-102119600D02*
X106477945Y-102071980D01*
X105620802Y-101167219D02*
X105287469Y-102167219D01*
X105287469Y-102167219D02*
X104954136Y-101167219D01*
X107196993Y-76043409D02*
X107054136Y-76091028D01*
X107054136Y-76091028D02*
X107006517Y-76138647D01*
X107006517Y-76138647D02*
X106958898Y-76233885D01*
X106958898Y-76233885D02*
X106958898Y-76376742D01*
X106958898Y-76376742D02*
X107006517Y-76471980D01*
X107006517Y-76471980D02*
X107054136Y-76519600D01*
X107054136Y-76519600D02*
X107149374Y-76567219D01*
X107149374Y-76567219D02*
X107530326Y-76567219D01*
X107530326Y-76567219D02*
X107530326Y-75567219D01*
X107530326Y-75567219D02*
X107196993Y-75567219D01*
X107196993Y-75567219D02*
X107101755Y-75614838D01*
X107101755Y-75614838D02*
X107054136Y-75662457D01*
X107054136Y-75662457D02*
X107006517Y-75757695D01*
X107006517Y-75757695D02*
X107006517Y-75852933D01*
X107006517Y-75852933D02*
X107054136Y-75948171D01*
X107054136Y-75948171D02*
X107101755Y-75995790D01*
X107101755Y-75995790D02*
X107196993Y-76043409D01*
X107196993Y-76043409D02*
X107530326Y-76043409D01*
X106530326Y-75567219D02*
X106530326Y-76376742D01*
X106530326Y-76376742D02*
X106482707Y-76471980D01*
X106482707Y-76471980D02*
X106435088Y-76519600D01*
X106435088Y-76519600D02*
X106339850Y-76567219D01*
X106339850Y-76567219D02*
X106149374Y-76567219D01*
X106149374Y-76567219D02*
X106054136Y-76519600D01*
X106054136Y-76519600D02*
X106006517Y-76471980D01*
X106006517Y-76471980D02*
X105958898Y-76376742D01*
X105958898Y-76376742D02*
X105958898Y-75567219D01*
X105625564Y-75567219D02*
X105054136Y-75567219D01*
X105339850Y-76567219D02*
X105339850Y-75567219D01*
X104863659Y-75567219D02*
X104292231Y-75567219D01*
X104577945Y-76567219D02*
X104577945Y-75567219D01*
X104630326Y-72267219D02*
X104630326Y-71267219D01*
X104630326Y-71267219D02*
X104392231Y-71267219D01*
X104392231Y-71267219D02*
X104249374Y-71314838D01*
X104249374Y-71314838D02*
X104154136Y-71410076D01*
X104154136Y-71410076D02*
X104106517Y-71505314D01*
X104106517Y-71505314D02*
X104058898Y-71695790D01*
X104058898Y-71695790D02*
X104058898Y-71838647D01*
X104058898Y-71838647D02*
X104106517Y-72029123D01*
X104106517Y-72029123D02*
X104154136Y-72124361D01*
X104154136Y-72124361D02*
X104249374Y-72219600D01*
X104249374Y-72219600D02*
X104392231Y-72267219D01*
X104392231Y-72267219D02*
X104630326Y-72267219D01*
X103630326Y-72267219D02*
X103630326Y-71267219D01*
X103201755Y-72219600D02*
X103058898Y-72267219D01*
X103058898Y-72267219D02*
X102820803Y-72267219D01*
X102820803Y-72267219D02*
X102725565Y-72219600D01*
X102725565Y-72219600D02*
X102677946Y-72171980D01*
X102677946Y-72171980D02*
X102630327Y-72076742D01*
X102630327Y-72076742D02*
X102630327Y-71981504D01*
X102630327Y-71981504D02*
X102677946Y-71886266D01*
X102677946Y-71886266D02*
X102725565Y-71838647D01*
X102725565Y-71838647D02*
X102820803Y-71791028D01*
X102820803Y-71791028D02*
X103011279Y-71743409D01*
X103011279Y-71743409D02*
X103106517Y-71695790D01*
X103106517Y-71695790D02*
X103154136Y-71648171D01*
X103154136Y-71648171D02*
X103201755Y-71552933D01*
X103201755Y-71552933D02*
X103201755Y-71457695D01*
X103201755Y-71457695D02*
X103154136Y-71362457D01*
X103154136Y-71362457D02*
X103106517Y-71314838D01*
X103106517Y-71314838D02*
X103011279Y-71267219D01*
X103011279Y-71267219D02*
X102773184Y-71267219D01*
X102773184Y-71267219D02*
X102630327Y-71314838D01*
X104630326Y-74243409D02*
X104296993Y-74243409D01*
X104154136Y-74767219D02*
X104630326Y-74767219D01*
X104630326Y-74767219D02*
X104630326Y-73767219D01*
X104630326Y-73767219D02*
X104154136Y-73767219D01*
X103725564Y-74767219D02*
X103725564Y-73767219D01*
X103725564Y-73767219D02*
X103154136Y-74767219D01*
X103154136Y-74767219D02*
X103154136Y-73767219D01*
D11*
X111649999Y-78554819D02*
X111649999Y-78792914D01*
X111888094Y-78697676D02*
X111649999Y-78792914D01*
X111649999Y-78792914D02*
X111411904Y-78697676D01*
X111792856Y-78983390D02*
X111649999Y-78792914D01*
X111649999Y-78792914D02*
X111507142Y-78983390D01*
X111649999Y-78554819D02*
X111649999Y-78792914D01*
X111888094Y-78697676D02*
X111649999Y-78792914D01*
X111649999Y-78792914D02*
X111411904Y-78697676D01*
X111792856Y-78983390D02*
X111649999Y-78792914D01*
X111649999Y-78792914D02*
X111507142Y-78983390D01*
X123351904Y-98354819D02*
X123351904Y-99164342D01*
X123351904Y-99164342D02*
X123304285Y-99259580D01*
X123304285Y-99259580D02*
X123256666Y-99307200D01*
X123256666Y-99307200D02*
X123161428Y-99354819D01*
X123161428Y-99354819D02*
X122970952Y-99354819D01*
X122970952Y-99354819D02*
X122875714Y-99307200D01*
X122875714Y-99307200D02*
X122828095Y-99259580D01*
X122828095Y-99259580D02*
X122780476Y-99164342D01*
X122780476Y-99164342D02*
X122780476Y-98354819D01*
X122399523Y-98354819D02*
X121780476Y-98354819D01*
X121780476Y-98354819D02*
X122113809Y-98735771D01*
X122113809Y-98735771D02*
X121970952Y-98735771D01*
X121970952Y-98735771D02*
X121875714Y-98783390D01*
X121875714Y-98783390D02*
X121828095Y-98831009D01*
X121828095Y-98831009D02*
X121780476Y-98926247D01*
X121780476Y-98926247D02*
X121780476Y-99164342D01*
X121780476Y-99164342D02*
X121828095Y-99259580D01*
X121828095Y-99259580D02*
X121875714Y-99307200D01*
X121875714Y-99307200D02*
X121970952Y-99354819D01*
X121970952Y-99354819D02*
X122256666Y-99354819D01*
X122256666Y-99354819D02*
X122351904Y-99307200D01*
X122351904Y-99307200D02*
X122399523Y-99259580D01*
D12*
%TO.C,U12*%
X106817200Y-84178100D02*
X110982800Y-84178100D01*
X110982800Y-79021900D02*
X106817200Y-79021900D01*
D13*
%TO.C,J1*%
X114851000Y-86970200D02*
G75*
G02*
X114089000Y-86970200I-381000J0D01*
G01*
X114089000Y-86970200D02*
G75*
G02*
X114851000Y-86970200I381000J0D01*
G01*
%TO.C,J13*%
X105710801Y-102603900D02*
G75*
G02*
X104948801Y-102603900I-381000J0D01*
G01*
X104948801Y-102603900D02*
G75*
G02*
X105710801Y-102603900I381000J0D01*
G01*
%TO.C,U11*%
X136689000Y-38864200D02*
G75*
G02*
X135927000Y-38864200I-381000J0D01*
G01*
X135927000Y-38864200D02*
G75*
G02*
X136689000Y-38864200I381000J0D01*
G01*
D14*
%TO.C,C5*%
X120569200Y-79855433D02*
X120569200Y-80147967D01*
X121589200Y-79855433D02*
X121589200Y-80147967D01*
%TO.C,C14*%
X115290000Y-69346267D02*
X115290000Y-69053733D01*
X116310000Y-69346267D02*
X116310000Y-69053733D01*
%TO.C,R12*%
X133777500Y-61904724D02*
X133777500Y-61395276D01*
X134822500Y-61904724D02*
X134822500Y-61395276D01*
%TO.C,D3*%
X114900000Y-87140000D02*
X118660000Y-87140000D01*
X114900000Y-89160000D02*
X118660000Y-89160000D01*
X118660000Y-89160000D02*
X118660000Y-87140000D01*
%TO.C,C20*%
X136790000Y-93546267D02*
X136790000Y-93253733D01*
X137810000Y-93546267D02*
X137810000Y-93253733D01*
%TO.C,R13*%
X133804724Y-58127500D02*
X133295276Y-58127500D01*
X133804724Y-59172500D02*
X133295276Y-59172500D01*
%TO.C,R41*%
X114777500Y-57904724D02*
X114777500Y-57395276D01*
X115822500Y-57904724D02*
X115822500Y-57395276D01*
%TO.C,JP2*%
X106550000Y-101300000D02*
X106550000Y-101900000D01*
X106550000Y-101300000D02*
X106850000Y-101600000D01*
X106550000Y-101900000D02*
X106850000Y-101600000D01*
X107050000Y-101800000D02*
X107050000Y-99000000D01*
X107750000Y-98350000D02*
X108350000Y-98350000D01*
X108350000Y-102450000D02*
X107750000Y-102450000D01*
X109050000Y-99000000D02*
X109050000Y-101800000D01*
X107050000Y-99050000D02*
G75*
G02*
X107750000Y-98350000I700000J0D01*
G01*
X107750000Y-102450000D02*
G75*
G02*
X107050000Y-101750000I-1J699999D01*
G01*
X108350000Y-98350000D02*
G75*
G02*
X109050000Y-99050000I0J-700000D01*
G01*
X109050000Y-101750000D02*
G75*
G02*
X108350000Y-102450000I-699999J-1D01*
G01*
%TO.C,Q3*%
X107840000Y-94120000D02*
X108640000Y-94120000D01*
X107840000Y-95050000D02*
X107840000Y-94120000D01*
X107840000Y-96350000D02*
X107840000Y-97280000D01*
X109300000Y-97280000D02*
X107840000Y-97280000D01*
X109440000Y-94120000D02*
X108640000Y-94120000D01*
X109940000Y-94090000D02*
X109700000Y-93760000D01*
X110180000Y-93760000D01*
X109940000Y-94090000D01*
G36*
X109940000Y-94090000D02*
G01*
X109700000Y-93760000D01*
X110180000Y-93760000D01*
X109940000Y-94090000D01*
G37*
%TO.C,TP4*%
X133850000Y-64350000D02*
X135750000Y-64350000D01*
X133850000Y-66250000D02*
X133850000Y-64350000D01*
X135750000Y-64350000D02*
X135750000Y-66250000D01*
X135750000Y-66250000D02*
X133850000Y-66250000D01*
%TO.C,R6*%
X132277500Y-103654724D02*
X132277500Y-103145276D01*
X133322500Y-103654724D02*
X133322500Y-103145276D01*
%TO.C,R44*%
X110245276Y-77022500D02*
X110754724Y-77022500D01*
X110245276Y-75977500D02*
X110754724Y-75977500D01*
%TO.C,Q2*%
X127900000Y-54340000D02*
X128550000Y-54340000D01*
X127900000Y-57460000D02*
X128550000Y-57460000D01*
X129200000Y-54340000D02*
X128550000Y-54340000D01*
X129200000Y-57460000D02*
X128550000Y-57460000D01*
X129712500Y-54390000D02*
X129472500Y-54060000D01*
X129952500Y-54060000D01*
X129712500Y-54390000D01*
G36*
X129712500Y-54390000D02*
G01*
X129472500Y-54060000D01*
X129952500Y-54060000D01*
X129712500Y-54390000D01*
G37*
%TO.C,R37*%
X111777500Y-89145276D02*
X111777500Y-89654724D01*
X112822500Y-89145276D02*
X112822500Y-89654724D01*
%TO.C,TP6*%
X135750000Y-70050000D02*
X137650000Y-70050000D01*
X135750000Y-71950000D02*
X135750000Y-70050000D01*
X137650000Y-70050000D02*
X137650000Y-71950000D01*
X137650000Y-71950000D02*
X135750000Y-71950000D01*
%TO.C,R27*%
X130527276Y-66373900D02*
X131036724Y-66373900D01*
X130527276Y-67418900D02*
X131036724Y-67418900D01*
%TO.C,U5*%
X115450000Y-71540000D02*
X116100000Y-71540000D01*
X115450000Y-74660000D02*
X116100000Y-74660000D01*
X116750000Y-71540000D02*
X116100000Y-71540000D01*
X116750000Y-74660000D02*
X116100000Y-74660000D01*
X117262500Y-71590000D02*
X117022500Y-71260000D01*
X117502500Y-71260000D01*
X117262500Y-71590000D01*
G36*
X117262500Y-71590000D02*
G01*
X117022500Y-71260000D01*
X117502500Y-71260000D01*
X117262500Y-71590000D01*
G37*
%TO.C,R4*%
X137027500Y-103654724D02*
X137027500Y-103145276D01*
X138072500Y-103654724D02*
X138072500Y-103145276D01*
%TO.C,R38*%
X139527500Y-56145276D02*
X139527500Y-56654724D01*
X140572500Y-56145276D02*
X140572500Y-56654724D01*
%TO.C,BZ1*%
X116700000Y-51300000D02*
X125900000Y-51300000D01*
X116700000Y-53500000D02*
X116700000Y-51300000D01*
X116700000Y-60500000D02*
X116700000Y-58300000D01*
X125900000Y-53500000D02*
X125900000Y-51300000D01*
X125900000Y-60500000D02*
X116700000Y-60500000D01*
X125900000Y-60500000D02*
X125900000Y-58300000D01*
X126300000Y-53500000D02*
X125900000Y-53500000D01*
%TO.C,R23*%
X105277500Y-39895276D02*
X105277500Y-40404724D01*
X106322500Y-39895276D02*
X106322500Y-40404724D01*
%TO.C,C3*%
X113290000Y-95796267D02*
X113290000Y-95503733D01*
X114310000Y-95796267D02*
X114310000Y-95503733D01*
%TO.C,X1*%
X126090000Y-68520000D02*
X126090000Y-67880000D01*
X126130000Y-69760000D02*
X126820000Y-69760000D01*
X127370000Y-66840000D02*
X127030000Y-66840000D01*
X127370000Y-69560000D02*
X127040000Y-69560000D01*
X128310000Y-68520000D02*
X128310000Y-67880000D01*
X127040000Y-69560000D02*
G75*
G02*
X126820000Y-69759999I-310001J120002D01*
G01*
%TO.C,TP2*%
X123950000Y-65200000D02*
G75*
G02*
X122050000Y-65200000I-950000J0D01*
G01*
X122050000Y-65200000D02*
G75*
G02*
X123950000Y-65200000I950000J0D01*
G01*
%TO.C,R22*%
X113527500Y-103654724D02*
X113527500Y-103145276D01*
X114572500Y-103654724D02*
X114572500Y-103145276D01*
%TO.C,R39*%
X138027500Y-54654724D02*
X138027500Y-54145276D01*
X139072500Y-54654724D02*
X139072500Y-54145276D01*
%TO.C,D6*%
X104300000Y-63800000D02*
X107560000Y-63800000D01*
X104300000Y-65500000D02*
X107560000Y-65500000D01*
X107560000Y-65500000D02*
X107560000Y-63800000D01*
%TO.C,U3*%
X119280000Y-90950000D02*
X125700000Y-90950000D01*
X119280000Y-91220000D02*
X119280000Y-90950000D01*
X119280000Y-97580000D02*
X119280000Y-97850000D01*
X119280000Y-97850000D02*
X125700000Y-97850000D01*
X118105000Y-97890000D02*
X117625000Y-97890000D01*
X117865000Y-97560000D01*
X118105000Y-97890000D01*
G36*
X118105000Y-97890000D02*
G01*
X117625000Y-97890000D01*
X117865000Y-97560000D01*
X118105000Y-97890000D01*
G37*
%TO.C,R11*%
X119745276Y-83177500D02*
X120254724Y-83177500D01*
X119745276Y-84222500D02*
X120254724Y-84222500D01*
%TO.C,R35*%
X106777500Y-39895276D02*
X106777500Y-40404724D01*
X107822500Y-39895276D02*
X107822500Y-40404724D01*
%TO.C,Q4*%
X134490000Y-53500000D02*
X134490000Y-54150000D01*
X134490000Y-54800000D02*
X134490000Y-54150000D01*
X137610000Y-53500000D02*
X137610000Y-54150000D01*
X137610000Y-54800000D02*
X137610000Y-54150000D01*
X137890000Y-55552500D02*
X137560000Y-55312500D01*
X137890000Y-55072500D01*
X137890000Y-55552500D01*
G36*
X137890000Y-55552500D02*
G01*
X137560000Y-55312500D01*
X137890000Y-55072500D01*
X137890000Y-55552500D01*
G37*
%TO.C,C27*%
X117780000Y-49241233D02*
X117780000Y-49533767D01*
X118800000Y-49241233D02*
X118800000Y-49533767D01*
%TO.C,C24*%
X127042802Y-63364051D02*
X126835949Y-63157198D01*
X127764051Y-62642802D02*
X127557198Y-62435949D01*
%TO.C,C6*%
X124142802Y-69735949D02*
X123935949Y-69942802D01*
X124864051Y-70457198D02*
X124657198Y-70664051D01*
%TO.C,C30*%
X116835949Y-65642802D02*
X117042801Y-65435948D01*
X117557199Y-66364052D02*
X117764051Y-66157198D01*
%TO.C,C16*%
X114790000Y-63046267D02*
X114790000Y-62753733D01*
X115810000Y-63046267D02*
X115810000Y-62753733D01*
%TO.C,JP3*%
X105100000Y-74500000D02*
X105100000Y-71700000D01*
X105800000Y-71050000D02*
X106400000Y-71050000D01*
X106400000Y-75150000D02*
X105800000Y-75150000D01*
X107100000Y-71700000D02*
X107100000Y-74500000D01*
X107600000Y-71600000D02*
X107300000Y-71900000D01*
X107600000Y-72200000D02*
X107300000Y-71900000D01*
X107600000Y-72200000D02*
X107600000Y-71600000D01*
X105100000Y-71750000D02*
G75*
G02*
X105800000Y-71050000I699999J1D01*
G01*
X105800000Y-75150000D02*
G75*
G02*
X105100000Y-74450000I0J700000D01*
G01*
X106400000Y-71050000D02*
G75*
G02*
X107100000Y-71750000I1J-699999D01*
G01*
X107100000Y-74450000D02*
G75*
G02*
X106400000Y-75150000I-700000J0D01*
G01*
%TO.C,R7*%
X127777500Y-103654724D02*
X127777500Y-103145276D01*
X128822500Y-103654724D02*
X128822500Y-103145276D01*
%TO.C,R20*%
X119794700Y-75023676D02*
X119794700Y-75533124D01*
X120839700Y-75023676D02*
X120839700Y-75533124D01*
%TO.C,R9*%
X118277500Y-103654724D02*
X118277500Y-103145276D01*
X119322500Y-103654724D02*
X119322500Y-103145276D01*
%TO.C,R5*%
X112777500Y-72895276D02*
X112777500Y-73404724D01*
X113822500Y-72895276D02*
X113822500Y-73404724D01*
%TO.C,C404*%
X114790000Y-49546267D02*
X114790000Y-49253733D01*
X115810000Y-49546267D02*
X115810000Y-49253733D01*
%TO.C,C13*%
X114290000Y-78003733D02*
X114290000Y-78296267D01*
X115310000Y-78003733D02*
X115310000Y-78296267D01*
%TO.C,D2*%
X106340000Y-91650000D02*
X106340000Y-93650000D01*
X110350000Y-91650000D02*
X106340000Y-91650000D01*
X110350000Y-93650000D02*
X106340000Y-93650000D01*
%TO.C,C2*%
X113290000Y-91003733D02*
X113290000Y-91296267D01*
X114310000Y-91003733D02*
X114310000Y-91296267D01*
%TO.C,R36*%
X130304724Y-58127500D02*
X129795276Y-58127500D01*
X130304724Y-59172500D02*
X129795276Y-59172500D01*
%TO.C,C28*%
X119290000Y-49546267D02*
X119290000Y-49253733D01*
X120310000Y-49546267D02*
X120310000Y-49253733D01*
D15*
%TO.C,J401*%
X98550000Y-45650000D02*
X102050000Y-45650000D01*
X98550000Y-60150000D02*
X102050000Y-60150000D01*
X104550000Y-45650000D02*
X111050000Y-45650000D01*
X111050000Y-45650000D02*
X111050000Y-47150000D01*
X111050000Y-59650000D02*
X111050000Y-58150000D01*
X111050000Y-59650000D02*
X111050000Y-60150000D01*
X111050000Y-60150000D02*
X104550000Y-60150000D01*
D14*
%TO.C,R35*%
X107545276Y-42577500D02*
X108054724Y-42577500D01*
X107545276Y-43622500D02*
X108054724Y-43622500D01*
%TO.C,R26*%
X130527276Y-64777500D02*
X131036724Y-64777500D01*
X130527276Y-65822500D02*
X131036724Y-65822500D01*
%TO.C,R19*%
X123254724Y-81777500D02*
X122745276Y-81777500D01*
X123254724Y-82822500D02*
X122745276Y-82822500D01*
%TO.C,R24*%
X132360654Y-75449580D02*
X132000420Y-75089346D01*
X133099580Y-74710654D02*
X132739346Y-74350420D01*
%TO.C,R34*%
X129360654Y-78449580D02*
X129000420Y-78089346D01*
X130099580Y-77710654D02*
X129739346Y-77350420D01*
%TO.C,D4*%
X137290000Y-66800000D02*
X137290000Y-68500000D01*
X140550000Y-66800000D02*
X137290000Y-66800000D01*
X140550000Y-68500000D02*
X137290000Y-68500000D01*
%TO.C,C19*%
X128790000Y-69446267D02*
X128790000Y-69153733D01*
X129810000Y-69446267D02*
X129810000Y-69153733D01*
%TO.C,R10*%
X123510654Y-76349580D02*
X123150420Y-75989346D01*
X124249580Y-75610654D02*
X123889346Y-75250420D01*
%TO.C,C31*%
X124235949Y-74957198D02*
X124442802Y-75164051D01*
X124957198Y-74235949D02*
X125164051Y-74442802D01*
%TO.C,C8*%
X116453733Y-75490000D02*
X116746267Y-75490000D01*
X116453733Y-76510000D02*
X116746267Y-76510000D01*
%TO.C,C4*%
X114790000Y-95796267D02*
X114790000Y-95503733D01*
X115810000Y-95796267D02*
X115810000Y-95503733D01*
%TO.C,R21*%
X118467100Y-75245276D02*
X118467100Y-75754724D01*
X119512100Y-75245276D02*
X119512100Y-75754724D01*
%TO.C,R43*%
X139754724Y-65877500D02*
X139245276Y-65877500D01*
X139754724Y-66922500D02*
X139245276Y-66922500D01*
%TO.C,R1*%
X116277500Y-82895276D02*
X116277500Y-83404724D01*
X117322500Y-82895276D02*
X117322500Y-83404724D01*
%TO.C,Q1*%
X108240000Y-39750000D02*
X108240000Y-40400000D01*
X108240000Y-41050000D02*
X108240000Y-40400000D01*
X111360000Y-39750000D02*
X111360000Y-40400000D01*
X111360000Y-41050000D02*
X111360000Y-40400000D01*
X108290000Y-39237500D02*
X107960000Y-39477500D01*
X107960000Y-38997500D01*
X108290000Y-39237500D01*
G36*
X108290000Y-39237500D02*
G01*
X107960000Y-39477500D01*
X107960000Y-38997500D01*
X108290000Y-39237500D01*
G37*
%TO.C,R42*%
X105854724Y-67277500D02*
X105345276Y-67277500D01*
X105854724Y-68322500D02*
X105345276Y-68322500D01*
%TO.C,R17*%
X133000420Y-74089346D02*
X133360654Y-74449580D01*
X133739346Y-73350420D02*
X134099580Y-73710654D01*
%TO.C,TP3*%
X133850000Y-66850000D02*
X135750000Y-66850000D01*
X133850000Y-68750000D02*
X133850000Y-66850000D01*
X135750000Y-66850000D02*
X135750000Y-68750000D01*
X135750000Y-68750000D02*
X133850000Y-68750000D01*
%TO.C,R40*%
X113277500Y-57904724D02*
X113277500Y-57395276D01*
X114322500Y-57904724D02*
X114322500Y-57395276D01*
%TO.C,R33*%
X130360654Y-77449580D02*
X130000420Y-77089346D01*
X131099580Y-76710654D02*
X130739346Y-76350420D01*
%TO.C,C23*%
X111790000Y-42296267D02*
X111790000Y-42003733D01*
X112810000Y-42296267D02*
X112810000Y-42003733D01*
%TO.C,C32*%
X120085949Y-72157198D02*
X120292802Y-72364051D01*
X120807198Y-71435949D02*
X121014051Y-71642802D01*
%TO.C,C403*%
X113490000Y-49546267D02*
X113490000Y-49253733D01*
X114510000Y-49546267D02*
X114510000Y-49253733D01*
%TO.C,C15*%
X112990000Y-81453733D02*
X112990000Y-81746267D01*
X114010000Y-81453733D02*
X114010000Y-81746267D01*
%TO.C,R401*%
X111777500Y-38904724D02*
X111777500Y-38395276D01*
X112822500Y-38904724D02*
X112822500Y-38395276D01*
%TO.C,R3*%
X117795276Y-89627500D02*
X118304724Y-89627500D01*
X117795276Y-90672500D02*
X118304724Y-90672500D01*
%TO.C,TP1*%
X124850000Y-62000000D02*
G75*
G02*
X122950000Y-62000000I-950000J0D01*
G01*
X122950000Y-62000000D02*
G75*
G02*
X124850000Y-62000000I950000J0D01*
G01*
%TO.C,C33*%
X126410002Y-70801149D02*
X126203149Y-71008002D01*
X127131251Y-71522398D02*
X126924398Y-71729251D01*
%TO.C,C10*%
X113790000Y-69371267D02*
X113790000Y-69078733D01*
X114810000Y-69371267D02*
X114810000Y-69078733D01*
%TO.C,C9*%
X128042802Y-62364051D02*
X127835949Y-62157198D01*
X128764051Y-61642802D02*
X128557198Y-61435949D01*
%TO.C,U4*%
X127890000Y-91240000D02*
X127890000Y-95000000D01*
X129150000Y-91240000D02*
X127890000Y-91240000D01*
X133450000Y-91240000D02*
X134710000Y-91240000D01*
X134710000Y-91240000D02*
X134710000Y-95000000D01*
X134940000Y-96520000D02*
X134610000Y-96280000D01*
X134940000Y-96040000D01*
X134940000Y-96520000D01*
G36*
X134940000Y-96520000D02*
G01*
X134610000Y-96280000D01*
X134940000Y-96040000D01*
X134940000Y-96520000D01*
G37*
%TO.C,C22*%
X135290000Y-93253733D02*
X135290000Y-93546267D01*
X136310000Y-93253733D02*
X136310000Y-93546267D01*
%TO.C,C12*%
X130242802Y-80135949D02*
X130035949Y-80342802D01*
X130964051Y-80857198D02*
X130757198Y-81064051D01*
%TO.C,R39*%
X137854724Y-56577500D02*
X137345276Y-56577500D01*
X137854724Y-57622500D02*
X137345276Y-57622500D01*
%TO.C,Q5*%
X130240000Y-60750000D02*
X130240000Y-61400000D01*
X130240000Y-62050000D02*
X130240000Y-61400000D01*
X133360000Y-60750000D02*
X133360000Y-61400000D01*
X133360000Y-62050000D02*
X133360000Y-61400000D01*
X133640000Y-62802500D02*
X133310000Y-62562500D01*
X133640000Y-62322500D01*
X133640000Y-62802500D01*
G36*
X133640000Y-62802500D02*
G01*
X133310000Y-62562500D01*
X133640000Y-62322500D01*
X133640000Y-62802500D01*
G37*
%TO.C,R8*%
X123027500Y-103654724D02*
X123027500Y-103145276D01*
X124072500Y-103654724D02*
X124072500Y-103145276D01*
%TO.C,JP1*%
X116800000Y-68500000D02*
X118800000Y-68500000D01*
X116800000Y-71300000D02*
X116800000Y-68500000D01*
X118800000Y-68500000D02*
X118800000Y-71300000D01*
X118800000Y-71300000D02*
X116800000Y-71300000D01*
%TO.C,R18*%
X111554724Y-70127500D02*
X111045276Y-70127500D01*
X111554724Y-71172500D02*
X111045276Y-71172500D01*
%TO.C,TP5*%
X133250000Y-70050000D02*
X135150000Y-70050000D01*
X133250000Y-71950000D02*
X133250000Y-70050000D01*
X135150000Y-70050000D02*
X135150000Y-71950000D01*
X135150000Y-71950000D02*
X133250000Y-71950000D01*
%TO.C,R2*%
X116277500Y-79395276D02*
X116277500Y-79904724D01*
X117322500Y-79395276D02*
X117322500Y-79904724D01*
%TO.C,R45*%
X127950420Y-79089346D02*
X128310654Y-79449580D01*
X128689346Y-78350420D02*
X129049580Y-78710654D01*
%TO.C,R25*%
X131360654Y-76449580D02*
X131000420Y-76089346D01*
X132099580Y-75710654D02*
X131739346Y-75350420D01*
%TO.C,C1*%
X114790000Y-91003733D02*
X114790000Y-91296267D01*
X115810000Y-91003733D02*
X115810000Y-91296267D01*
%TO.C,C26*%
X116290000Y-49546267D02*
X116290000Y-49253733D01*
X117310000Y-49546267D02*
X117310000Y-49253733D01*
%TD*%
M02*
