%TF.GenerationSoftware,KiCad,Pcbnew,8.0.2*%
%TF.CreationDate,2024-08-20T16:45:35-03:00*%
%TF.ProjectId,dough,646f7567-682e-46b6-9963-61645f706362,rev?*%
%TF.SameCoordinates,Original*%
%TF.FileFunction,Copper,L3,Inr*%
%TF.FilePolarity,Positive*%
%FSLAX46Y46*%
G04 Gerber Fmt 4.6, Leading zero omitted, Abs format (unit mm)*
G04 Created by KiCad (PCBNEW 8.0.2) date 2024-08-20 16:45:35*
%MOMM*%
%LPD*%
G01*
G04 APERTURE LIST*
%TA.AperFunction,ComponentPad*%
%ADD10C,1.500000*%
%TD*%
%TA.AperFunction,ComponentPad*%
%ADD11R,1.700000X1.700000*%
%TD*%
%TA.AperFunction,ComponentPad*%
%ADD12O,1.700000X1.700000*%
%TD*%
%TA.AperFunction,ComponentPad*%
%ADD13C,1.498600*%
%TD*%
%TA.AperFunction,ComponentPad*%
%ADD14O,1.550000X0.890000*%
%TD*%
%TA.AperFunction,ComponentPad*%
%ADD15O,0.950000X1.250000*%
%TD*%
%TA.AperFunction,ViaPad*%
%ADD16C,0.600000*%
%TD*%
%TA.AperFunction,ViaPad*%
%ADD17C,1.000000*%
%TD*%
%TA.AperFunction,Conductor*%
%ADD18C,0.150000*%
%TD*%
%TA.AperFunction,Conductor*%
%ADD19C,0.200000*%
%TD*%
%TA.AperFunction,Conductor*%
%ADD20C,0.250000*%
%TD*%
%TA.AperFunction,Conductor*%
%ADD21C,0.400000*%
%TD*%
%TA.AperFunction,Conductor*%
%ADD22C,1.000000*%
%TD*%
%TA.AperFunction,Conductor*%
%ADD23C,0.500000*%
%TD*%
G04 APERTURE END LIST*
D10*
%TO.N,GND*%
%TO.C,J1*%
X111470000Y-86970200D03*
%TO.N,Net-(D2-K)*%
X108930000Y-86970200D03*
%TD*%
%TO.N,GND*%
%TO.C,J13*%
X105329801Y-96965100D03*
%TO.N,Net-(J13-Pad2)*%
X105329801Y-94425100D03*
%TD*%
D11*
%TO.N,GND*%
%TO.C,J7*%
X126000000Y-104925000D03*
D12*
%TO.N,Net-(J7-Pin_2)*%
X126000000Y-102385000D03*
%TO.N,SER_3*%
X126000000Y-99845000D03*
%TD*%
D11*
%TO.N,GND*%
%TO.C,J6*%
X130650000Y-104925000D03*
D12*
%TO.N,Net-(J6-Pin_2)*%
X130650000Y-102385000D03*
%TO.N,SER_2*%
X130650000Y-99845000D03*
%TD*%
D11*
%TO.N,GND*%
%TO.C,J12*%
X100800000Y-73975000D03*
D12*
%TO.N,SPI_BIT2*%
X100800000Y-76515000D03*
%TO.N,SPI0_MISO*%
X100800000Y-79055000D03*
%TO.N,SPI0_CLK*%
X100800000Y-81595000D03*
%TO.N,SPI0_MOSI*%
X100800000Y-84135000D03*
%TO.N,SPI_BIT3*%
X100800000Y-86675000D03*
%TO.N,SPI0_CS2*%
X100800000Y-89215000D03*
%TO.N,GPIO6_esp*%
X100800000Y-91755000D03*
%TO.N,CANH*%
X100800000Y-94295000D03*
%TO.N,CANL*%
X100800000Y-96835000D03*
%TD*%
D11*
%TO.N,GND*%
%TO.C,J4*%
X111600000Y-104925000D03*
D12*
%TO.N,Net-(J4-Pin_2)*%
X111600000Y-102385000D03*
%TO.N,SER_6*%
X111600000Y-99845000D03*
%TD*%
D11*
%TO.N,GND*%
%TO.C,J9*%
X116700000Y-104925000D03*
D12*
%TO.N,Net-(J9-Pin_2)*%
X116700000Y-102385000D03*
%TO.N,SER_5*%
X116700000Y-99845000D03*
%TD*%
D13*
%TO.N,GND*%
%TO.C,U11*%
X136308000Y-43271100D03*
%TO.N,UART1_RX*%
X136308000Y-45760300D03*
%TO.N,UART1_TX*%
X136308000Y-48249500D03*
%TO.N,+3V3*%
X136308000Y-50738700D03*
%TD*%
D11*
%TO.N,GND*%
%TO.C,J8*%
X121350000Y-104925000D03*
D12*
%TO.N,Net-(J8-Pin_2)*%
X121350000Y-102385000D03*
%TO.N,SER_4*%
X121350000Y-99845000D03*
%TD*%
D11*
%TO.N,GND*%
%TO.C,J5*%
X135300000Y-104925000D03*
D12*
%TO.N,Net-(J5-Pin_2)*%
X135300000Y-102385000D03*
%TO.N,SER_1*%
X135300000Y-99845000D03*
%TD*%
D14*
%TO.N,GND*%
%TO.C,J10*%
X145300000Y-69400000D03*
D15*
X142600000Y-68400000D03*
X142600000Y-63400000D03*
D14*
X145300000Y-62400000D03*
%TD*%
D11*
%TO.N,GND*%
%TO.C,J2*%
X140300000Y-83325000D03*
D12*
%TO.N,+3V3*%
X140300000Y-85865000D03*
%TO.N,SDA0*%
X140300000Y-88405000D03*
%TO.N,SCL0*%
X140300000Y-90945000D03*
%TO.N,+5V*%
X140300000Y-93485000D03*
%TD*%
D11*
%TO.N,GND*%
%TO.C,J11*%
X144300000Y-73975000D03*
D12*
%TO.N,ADC0*%
X144300000Y-76515000D03*
%TO.N,ADC1*%
X144300000Y-79055000D03*
%TO.N,unconnected-(J11-Pin_4-Pad4)*%
X144300000Y-81595000D03*
%TO.N,GPIO15*%
X144300000Y-84135000D03*
%TO.N,GPIO16*%
X144300000Y-86675000D03*
%TO.N,GPIO17*%
X144300000Y-89215000D03*
%TO.N,GPIO18*%
X144300000Y-91755000D03*
%TO.N,+5V*%
X144300000Y-94295000D03*
%TO.N,+3V3*%
X144300000Y-96835000D03*
%TD*%
D14*
%TO.N,GND*%
%TO.C,J3*%
X100300000Y-62400000D03*
D15*
X103000000Y-63400000D03*
X103000000Y-68400000D03*
D14*
X100300000Y-69400000D03*
%TD*%
D16*
%TO.N,SDA1*%
X124700000Y-71966929D03*
%TO.N,GND*%
X116421402Y-71291772D03*
X116550000Y-62150000D03*
X113975000Y-75850000D03*
X132900000Y-57500000D03*
X126617013Y-72638443D03*
X114600000Y-85100000D03*
X123200000Y-77200000D03*
D17*
X119500000Y-96100000D03*
D16*
X117400000Y-47200000D03*
X120461965Y-67838035D03*
X123300000Y-79600000D03*
%TO.N,+5V*%
X133700000Y-88400000D03*
X134125000Y-63700000D03*
X130600000Y-57200000D03*
D17*
X108100000Y-103000000D03*
D16*
X119900000Y-92900000D03*
X103400000Y-101500000D03*
X112900000Y-86100000D03*
%TO.N,+3V3*%
X128225000Y-70009880D03*
X120500000Y-82187200D03*
X116500000Y-63300000D03*
X117900000Y-67201200D03*
X131774999Y-62988172D03*
X115500000Y-71600000D03*
X115592800Y-38448400D03*
X119458578Y-70458578D03*
D17*
X133300000Y-80200000D03*
D16*
X123459135Y-72957600D03*
X121725735Y-64825735D03*
%TO.N,+1V1*%
X125737734Y-64150548D03*
X122196800Y-70046000D03*
%TO.N,ADC3*%
X113400000Y-75100000D03*
%TO.N,ADC_VREF*%
X117269200Y-68064800D03*
%TO.N,SDA1*%
X119780535Y-62000000D03*
X125840760Y-70800389D03*
X112829492Y-48147232D03*
X130700000Y-73602000D03*
X135200000Y-73602000D03*
X118800000Y-73572647D03*
X112800000Y-50552258D03*
X124671050Y-66301200D03*
%TO.N,SCL1*%
X129600000Y-74400000D03*
X116932842Y-74900000D03*
X117793413Y-61906587D03*
X124638388Y-72764554D03*
X123900000Y-69500000D03*
%TO.N,SER_1*%
X125596244Y-67700748D03*
X129600000Y-38800000D03*
%TO.N,SER_2*%
X133600000Y-41500000D03*
X129300000Y-85300000D03*
X125650000Y-73450000D03*
%TO.N,SER_3*%
X122900000Y-57300000D03*
X122800000Y-63900000D03*
X124543413Y-68656587D03*
%TO.N,SER_4*%
X128700000Y-52800000D03*
X131200000Y-55300000D03*
X131813515Y-71600588D03*
%TO.N,SWCLK*%
X125471224Y-63200000D03*
%TO.N,SWD*%
X124105362Y-65169830D03*
%TO.N,SER_5*%
X131424265Y-70375735D03*
%TO.N,LED_R*%
X111500000Y-60000000D03*
X99200000Y-54100000D03*
%TO.N,LED_G*%
X113900000Y-64200000D03*
X98700000Y-56400000D03*
X119703476Y-63792318D03*
%TO.N,LED_B*%
X111600000Y-63700000D03*
X100700000Y-60600000D03*
%TO.N,BMI_INT2*%
X127700000Y-75548528D03*
%TO.N,BMI_INT1*%
X130900000Y-76354844D03*
%TO.N,Net-(U2-XIN)*%
X126700000Y-63500000D03*
%TO.N,USB1_D-*%
X105600000Y-64500000D03*
X120900000Y-76900000D03*
%TO.N,USB1_D+*%
X120774400Y-77767600D03*
X105000000Y-65900000D03*
%TO.N,Net-(U8-SDO)*%
X130934400Y-72586000D03*
%TO.N,Net-(D4-A)*%
X143900000Y-67200000D03*
%TO.N,Net-(D8-A)*%
X105000000Y-68900000D03*
%TO.N,ESP32_RST*%
X106123058Y-42023058D03*
X127786135Y-65321684D03*
%TO.N,Net-(D9-A)*%
X137000000Y-67200000D03*
%TO.N,Net-(Q1-S)*%
X135350000Y-62150000D03*
X115694400Y-39667600D03*
%TO.N,SPI0_CLK*%
X122200000Y-56800000D03*
X109200000Y-53400000D03*
%TO.N,Net-(D6-A)*%
X104300000Y-63800000D03*
%TO.N,SPI_CS*%
X120395248Y-56147520D03*
X109400000Y-55600000D03*
%TO.N,USB2_D+*%
X117400000Y-58700000D03*
X118900000Y-77400000D03*
X113500000Y-60200000D03*
%TO.N,USB2_D-*%
X121354235Y-75570351D03*
X117324265Y-59824265D03*
X112350000Y-60850000D03*
%TO.N,SD_CD*%
X129600000Y-48600000D03*
X109000000Y-49000000D03*
%TO.N,SPI_BIT3*%
X109400000Y-56800000D03*
X119800000Y-56800000D03*
%TO.N,SPI0_MISO*%
X123400000Y-53500000D03*
X109000000Y-50200000D03*
%TO.N,SPI_BIT2*%
X106025000Y-77206340D03*
X123800000Y-57283884D03*
X109400000Y-58000000D03*
%TO.N,SPI0_MOSI*%
X102500000Y-78300000D03*
X120800000Y-53800000D03*
X109000000Y-51200000D03*
%TO.N,UART1_TX*%
X120725000Y-59700000D03*
X133250000Y-52550000D03*
%TO.N,UART1_RX*%
X120130535Y-60300000D03*
X130100000Y-50200000D03*
%TO.N,SCL0*%
X132925000Y-65900000D03*
X125825000Y-61425000D03*
X128851600Y-65372400D03*
X115700000Y-60800000D03*
%TO.N,SDA0*%
X128851600Y-66896400D03*
X133200000Y-67700000D03*
X131800000Y-57900000D03*
%TO.N,Net-(R18-Pad1)*%
X111400000Y-69100000D03*
%TO.N,/RP2040 section/QSPI_SS*%
X113092893Y-70107107D03*
X124889200Y-82136400D03*
X122300000Y-72450000D03*
%TO.N,Net-(U2-USB_DM)*%
X118601142Y-71682742D03*
%TO.N,Net-(U2-USB_DP)*%
X119127135Y-72675665D03*
%TO.N,SER_6*%
X130208598Y-69119724D03*
%TO.N,Net-(D7-A)*%
X131900000Y-57000000D03*
%TO.N,BUZZER*%
X127200000Y-53400000D03*
X115500000Y-65100000D03*
%TO.N,GPIO17*%
X133400000Y-68700000D03*
X138000000Y-72800000D03*
X131100000Y-67900000D03*
%TO.N,ADC1*%
X115600000Y-67200000D03*
X112225000Y-74375000D03*
X134000000Y-84700000D03*
X124600000Y-85100000D03*
%TO.N,GPIO18*%
X132548703Y-63900000D03*
X122000000Y-60700000D03*
%TO.N,ADC0*%
X122800000Y-85100000D03*
X111575735Y-72824265D03*
X114800000Y-66600000D03*
X135900000Y-84100000D03*
%TO.N,ADC2*%
X111900000Y-73600000D03*
X123700000Y-85500000D03*
%TO.N,GPIO15*%
X133471424Y-64161348D03*
X127432412Y-64500000D03*
%TO.N,GPIO16*%
X130948231Y-68796785D03*
X133800000Y-72500000D03*
X139450000Y-74236828D03*
%TO.N,Net-(Q4-S)*%
X135100000Y-72800000D03*
X133179266Y-53640042D03*
%TO.N,GPIO6_esp*%
X110800000Y-72600000D03*
%TO.N,SPI0_CS2*%
X117300000Y-52200000D03*
X106200000Y-70500000D03*
X114000000Y-62900000D03*
%TO.N,GPIO5_esp*%
X110343413Y-75256587D03*
X111200000Y-77600000D03*
%TO.N,GPIO4_esp*%
X109400000Y-75000000D03*
X109000000Y-79700000D03*
%TO.N,ESP32_BOOT*%
X136150000Y-60200000D03*
%TO.N,Net-(Q5-S)*%
X119674265Y-85374265D03*
X129600000Y-63500000D03*
X125100000Y-62400000D03*
X116520026Y-69199999D03*
%TO.N,RP2040_RST*%
X129500000Y-52500000D03*
X116900000Y-46000000D03*
%TO.N,Net-(U9-IO20)*%
X113800000Y-54975000D03*
%TO.N,Net-(U9-IO19)*%
X115350000Y-52400000D03*
%TO.N,BUTTONS*%
X108100000Y-73500000D03*
%TO.N,Net-(U8-CSB)*%
X128900000Y-74900000D03*
%TO.N,GPIO18*%
X133059135Y-65100000D03*
%TD*%
D18*
%TO.N,GND*%
X113975000Y-75850000D02*
X113975000Y-75025000D01*
X113975000Y-75025000D02*
X116421402Y-72578598D01*
X116421402Y-72578598D02*
X116421402Y-71291772D01*
D19*
%TO.N,SDA1*%
X119927353Y-73572647D02*
X118800000Y-73572647D01*
X121665327Y-71834673D02*
X119927353Y-73572647D01*
X124700000Y-71966929D02*
X124567744Y-71834673D01*
X124567744Y-71834673D02*
X121665327Y-71834673D01*
%TO.N,SCL1*%
X125575000Y-72225000D02*
X125575000Y-71500000D01*
X125035446Y-72764554D02*
X125575000Y-72225000D01*
X124638388Y-72764554D02*
X125035446Y-72764554D01*
X125575000Y-71500000D02*
X123900000Y-69825000D01*
X123900000Y-69825000D02*
X123900000Y-69500000D01*
D18*
%TO.N,SDA1*%
X124000000Y-66972250D02*
X124671050Y-66301200D01*
X124000000Y-67300000D02*
X124000000Y-66972250D01*
X125840760Y-70800389D02*
X125840760Y-69140760D01*
X125840760Y-69140760D02*
X124000000Y-67300000D01*
D19*
%TO.N,SCL1*%
X117400000Y-74900000D02*
X116932842Y-74900000D01*
X117700000Y-74600000D02*
X117400000Y-74900000D01*
X122700000Y-74600000D02*
X117700000Y-74600000D01*
X124535446Y-72764554D02*
X122700000Y-74600000D01*
X124638388Y-72764554D02*
X124535446Y-72764554D01*
D20*
%TO.N,SCL0*%
X132925000Y-65900000D02*
X129379200Y-65900000D01*
X129379200Y-65900000D02*
X128851600Y-65372400D01*
D18*
%TO.N,ADC1*%
X113675000Y-69125000D02*
X115600000Y-67200000D01*
X112225000Y-74375000D02*
X113675000Y-72925000D01*
X113675000Y-72925000D02*
X113675000Y-69125000D01*
D21*
%TO.N,GND*%
X123200000Y-77200000D02*
X126617013Y-73782987D01*
D22*
X140300000Y-83325000D02*
X140300000Y-77975000D01*
D21*
X126617013Y-73782987D02*
X126617013Y-72638443D01*
D22*
X140300000Y-77975000D02*
X144300000Y-73975000D01*
D23*
%TO.N,+5V*%
X140300000Y-93485000D02*
X138785000Y-93485000D01*
X138785000Y-93485000D02*
X133700000Y-88400000D01*
X130600000Y-57200000D02*
X130600000Y-60100000D01*
X134125000Y-63625000D02*
X134125000Y-63700000D01*
X130600000Y-60100000D02*
X134125000Y-63625000D01*
X133700000Y-88400000D02*
X133750000Y-88450000D01*
%TO.N,+3V3*%
X117900000Y-67201200D02*
X117072139Y-67201200D01*
X115500000Y-68773339D02*
X115500000Y-71600000D01*
X117072139Y-67201200D02*
X115500000Y-68773339D01*
D18*
%TO.N,SER_2*%
X137575000Y-67438173D02*
X137575000Y-54375000D01*
X137200000Y-74650000D02*
X137200000Y-67813173D01*
X129300000Y-85300000D02*
X129300000Y-82550000D01*
X137200000Y-67813173D02*
X137575000Y-67438173D01*
X137575000Y-54375000D02*
X133600000Y-50400000D01*
X129300000Y-82550000D02*
X137200000Y-74650000D01*
X133600000Y-50400000D02*
X133600000Y-41500000D01*
D19*
%TO.N,SER_4*%
X131813515Y-71636485D02*
X131700000Y-71750000D01*
X121350000Y-89250000D02*
X121350000Y-99845000D01*
X131813515Y-71600588D02*
X131813515Y-71636485D01*
X131700000Y-78900000D02*
X121350000Y-89250000D01*
X131700000Y-71750000D02*
X131700000Y-78900000D01*
%TO.N,SER_5*%
X131564986Y-71000588D02*
X128300000Y-74265574D01*
X128300000Y-75900000D02*
X116700000Y-87500000D01*
X131600000Y-70551470D02*
X131600000Y-71000000D01*
X131600000Y-71000000D02*
X131599412Y-71000588D01*
X116700000Y-87500000D02*
X116700000Y-99845000D01*
X131424265Y-70375735D02*
X131600000Y-70551470D01*
X128300000Y-74265574D02*
X128300000Y-75900000D01*
X131599412Y-71000588D02*
X131564986Y-71000588D01*
%TO.N,LED_G*%
X119703476Y-63792318D02*
X119270794Y-64225000D01*
X119270794Y-64225000D02*
X117875000Y-64225000D01*
D20*
X117875000Y-64225000D02*
X113925000Y-64225000D01*
D18*
X113925000Y-64225000D02*
X113900000Y-64200000D01*
D19*
%TO.N,Net-(Q1-S)*%
X135350000Y-62150000D02*
X135350000Y-53501471D01*
X135350000Y-53501471D02*
X121516129Y-39667600D01*
X121516129Y-39667600D02*
X115694400Y-39667600D01*
%TO.N,SPI0_CLK*%
X104950000Y-74600000D02*
X104950000Y-77445000D01*
X108200000Y-54400000D02*
X108200000Y-71350000D01*
D20*
X122200000Y-56800000D02*
X122100000Y-56700000D01*
D19*
X104950000Y-77445000D02*
X100800000Y-81595000D01*
X109200000Y-53400000D02*
X108200000Y-54400000D01*
X108200000Y-71350000D02*
X104950000Y-74600000D01*
D20*
X119600000Y-54200000D02*
X122200000Y-56800000D01*
X109200000Y-53400000D02*
X112800000Y-53400000D01*
X112800000Y-53400000D02*
X113600000Y-54200000D01*
X113600000Y-54200000D02*
X119600000Y-54200000D01*
%TO.N,SPI_CS*%
X120395248Y-56147520D02*
X119847728Y-55600000D01*
X119847728Y-55600000D02*
X109400000Y-55600000D01*
D19*
%TO.N,USB2_D+*%
X112598529Y-61450000D02*
X112950000Y-61098529D01*
X110200000Y-63565686D02*
X112315686Y-61450000D01*
X113300000Y-60200000D02*
X113500000Y-60200000D01*
X113565686Y-76750000D02*
X110200000Y-73384314D01*
X112950000Y-60550000D02*
X113300000Y-60200000D01*
X112950000Y-61098529D02*
X112950000Y-60550000D01*
X118900000Y-77400000D02*
X118250000Y-76750000D01*
X110200000Y-73384314D02*
X110200000Y-63565686D01*
X118250000Y-76750000D02*
X113565686Y-76750000D01*
X115900000Y-60200000D02*
X117400000Y-58700000D01*
X113500000Y-60200000D02*
X115900000Y-60200000D01*
X112315686Y-61450000D02*
X112598529Y-61450000D01*
%TO.N,USB2_D-*%
X121116528Y-75808058D02*
X121354235Y-75570351D01*
X120300000Y-76651471D02*
X121129970Y-75821501D01*
X112350000Y-60850000D02*
X109800000Y-63400000D01*
X109800000Y-73550000D02*
X114450000Y-78200000D01*
X121129970Y-75821501D02*
X121116528Y-75808058D01*
X114450000Y-78200000D02*
X119200000Y-78200000D01*
X109800000Y-63400000D02*
X109800000Y-73550000D01*
X120300000Y-77100000D02*
X120300000Y-76651471D01*
X119200000Y-78200000D02*
X120300000Y-77100000D01*
D20*
%TO.N,SD_CD*%
X129200000Y-49000000D02*
X129600000Y-48600000D01*
X109000000Y-49000000D02*
X129200000Y-49000000D01*
D19*
%TO.N,SPI_BIT3*%
X105350000Y-75300000D02*
X105350000Y-82125000D01*
X109400000Y-56800000D02*
X108800000Y-57400000D01*
D20*
X109400000Y-56800000D02*
X119800000Y-56800000D01*
D19*
X108800000Y-71850000D02*
X105350000Y-75300000D01*
X108800000Y-57400000D02*
X108800000Y-71850000D01*
X105350000Y-82125000D02*
X100800000Y-86675000D01*
D20*
%TO.N,SPI0_MISO*%
X120416116Y-53300000D02*
X113972792Y-53300000D01*
X121383884Y-53500000D02*
X121058884Y-53175000D01*
X113972792Y-53300000D02*
X113172792Y-52500000D01*
X113172792Y-52500000D02*
X111300000Y-52500000D01*
X120541116Y-53175000D02*
X120416116Y-53300000D01*
D19*
X106800000Y-52400000D02*
X106800000Y-70900000D01*
X104050000Y-75805000D02*
X100800000Y-79055000D01*
X106800000Y-70900000D02*
X104050000Y-73650000D01*
X104050000Y-73650000D02*
X104050000Y-75805000D01*
D20*
X121058884Y-53175000D02*
X120541116Y-53175000D01*
D19*
X109000000Y-50200000D02*
X106800000Y-52400000D01*
D20*
X123400000Y-53500000D02*
X121383884Y-53500000D01*
X111300000Y-52500000D02*
X109000000Y-50200000D01*
%TO.N,SPI_BIT2*%
X123083884Y-58000000D02*
X109400000Y-58000000D01*
D19*
X106025000Y-77206340D02*
X106243660Y-77206340D01*
X106243660Y-77206340D02*
X109400000Y-74050000D01*
X109400000Y-74050000D02*
X109400000Y-58000000D01*
D20*
X123800000Y-57283884D02*
X123083884Y-58000000D01*
D19*
%TO.N,SPI0_MOSI*%
X104550000Y-74050000D02*
X107500000Y-71100000D01*
D20*
X110750000Y-52950000D02*
X109000000Y-51200000D01*
D19*
X107500000Y-52700000D02*
X109000000Y-51200000D01*
X102500000Y-78300000D02*
X104550000Y-76250000D01*
D20*
X112986396Y-52950000D02*
X110750000Y-52950000D01*
X113786396Y-53750000D02*
X112986396Y-52950000D01*
D19*
X104550000Y-76250000D02*
X104550000Y-74050000D01*
D20*
X120750000Y-53750000D02*
X113786396Y-53750000D01*
X120800000Y-53800000D02*
X120750000Y-53750000D01*
D19*
X107500000Y-71100000D02*
X107500000Y-52700000D01*
D18*
%TO.N,UART1_TX*%
X128443485Y-56950000D02*
X127150000Y-56950000D01*
X132604266Y-54895734D02*
X131300000Y-56200000D01*
X133250000Y-52550000D02*
X132604266Y-53195734D01*
X124400000Y-59700000D02*
X120725000Y-59700000D01*
X130494975Y-56200000D02*
X129721608Y-56973367D01*
X132604266Y-53195734D02*
X132604266Y-54895734D01*
X131300000Y-56200000D02*
X130494975Y-56200000D01*
X128466852Y-56973367D02*
X128443485Y-56950000D01*
X127150000Y-56950000D02*
X124400000Y-59700000D01*
X129721608Y-56973367D02*
X128466852Y-56973367D01*
%TO.N,UART1_RX*%
X120150000Y-60280535D02*
X120130535Y-60300000D01*
X125613173Y-56600000D02*
X123213173Y-59000000D01*
X130100000Y-50900000D02*
X130800000Y-51600000D01*
X123213173Y-59000000D02*
X120611827Y-59000000D01*
X120611827Y-59000000D02*
X120150000Y-59461827D01*
X128611827Y-56623367D02*
X128588460Y-56600000D01*
X130800000Y-54600000D02*
X130400000Y-55000000D01*
X130400000Y-55000000D02*
X130400000Y-55800000D01*
X128588460Y-56600000D02*
X125613173Y-56600000D01*
X129576633Y-56623367D02*
X128611827Y-56623367D01*
X130100000Y-50200000D02*
X130100000Y-50900000D01*
X120150000Y-59461827D02*
X120150000Y-60280535D01*
X130400000Y-55800000D02*
X129576633Y-56623367D01*
X130800000Y-51600000D02*
X130800000Y-54600000D01*
%TO.N,SCL0*%
X117499999Y-60800000D02*
X118124999Y-61425000D01*
X118124999Y-61425000D02*
X125825000Y-61425000D01*
X115700000Y-60800000D02*
X117499999Y-60800000D01*
%TO.N,SDA0*%
X131800000Y-57900000D02*
X131800000Y-60300000D01*
X134200000Y-68000000D02*
X133500000Y-68000000D01*
D20*
X128851600Y-66896400D02*
X132396400Y-66896400D01*
D18*
X131800000Y-60300000D02*
X134700000Y-63200000D01*
X134700000Y-63200000D02*
X134700000Y-67500000D01*
D20*
X132396400Y-66896400D02*
X133200000Y-67700000D01*
D18*
X134700000Y-67500000D02*
X134200000Y-68000000D01*
X133500000Y-68000000D02*
X133200000Y-67700000D01*
D19*
%TO.N,SER_6*%
X130000000Y-69000000D02*
X130198530Y-69000000D01*
X112200000Y-99245000D02*
X111600000Y-99845000D01*
X130198530Y-69000000D02*
X130500000Y-69301470D01*
X130500000Y-69301470D02*
X130500000Y-71200000D01*
X130500000Y-71200000D02*
X112200000Y-89500000D01*
X112200000Y-89500000D02*
X112200000Y-99245000D01*
%TO.N,GPIO17*%
X131100000Y-67900000D02*
X131900000Y-68700000D01*
X146975000Y-86540000D02*
X144300000Y-89215000D01*
X139600000Y-72800000D02*
X141025000Y-71375000D01*
X138000000Y-72800000D02*
X139600000Y-72800000D01*
X146975000Y-72309314D02*
X146975000Y-86540000D01*
X131900000Y-68700000D02*
X133400000Y-68700000D01*
X146040686Y-71375000D02*
X146975000Y-72309314D01*
X141025000Y-71375000D02*
X146040686Y-71375000D01*
D18*
%TO.N,ADC1*%
X145494975Y-72500000D02*
X145850000Y-72855025D01*
X145850000Y-77505000D02*
X144300000Y-79055000D01*
X135769669Y-82930331D02*
X135769669Y-79235356D01*
X135769669Y-79235356D02*
X142505025Y-72500000D01*
X145850000Y-72855025D02*
X145850000Y-77505000D01*
X142505025Y-72500000D02*
X145494975Y-72500000D01*
X134000000Y-84700000D02*
X135769669Y-82930331D01*
%TO.N,GPIO18*%
X132548703Y-63900000D02*
X132548703Y-62948703D01*
X132548703Y-62948703D02*
X130300000Y-60700000D01*
X130300000Y-60700000D02*
X122000000Y-60700000D01*
%TO.N,ADC0*%
X136119669Y-79380331D02*
X142650000Y-72850000D01*
X145500000Y-73000000D02*
X145500000Y-75315000D01*
X136119669Y-83880331D02*
X136119669Y-79380331D01*
X142650000Y-72850000D02*
X145350000Y-72850000D01*
X135900000Y-84100000D02*
X136119669Y-83880331D01*
X111575735Y-69924265D02*
X114800000Y-66700000D01*
X111575735Y-72824265D02*
X111575735Y-69924265D01*
X145350000Y-72850000D02*
X145500000Y-73000000D01*
X114800000Y-66700000D02*
X114800000Y-66600000D01*
X145500000Y-75315000D02*
X144300000Y-76515000D01*
%TO.N,GPIO15*%
X133471424Y-64161348D02*
X133100528Y-64161348D01*
X133100528Y-64161348D02*
X132761876Y-64500000D01*
X132761876Y-64500000D02*
X127432412Y-64500000D01*
D19*
%TO.N,GPIO16*%
X146575000Y-84400000D02*
X144300000Y-86675000D01*
X141925000Y-71775000D02*
X145875000Y-71775000D01*
X139450000Y-74236828D02*
X139463172Y-74236828D01*
X133800000Y-72500000D02*
X133800000Y-71648554D01*
X145875000Y-71775000D02*
X146575000Y-72475000D01*
X133800000Y-71648554D02*
X130948231Y-68796785D01*
X146575000Y-72475000D02*
X146575000Y-84400000D01*
X139463172Y-74236828D02*
X141925000Y-71775000D01*
%TO.N,Net-(Q4-S)*%
X135400000Y-72500000D02*
X135400000Y-63048529D01*
X134451471Y-62100000D02*
X134400000Y-62100000D01*
X134400000Y-62100000D02*
X134400000Y-54860776D01*
X135400000Y-63048529D02*
X134451471Y-62100000D01*
X134400000Y-54860776D02*
X133179266Y-53640042D01*
X135100000Y-72800000D02*
X135400000Y-72500000D01*
%TO.N,Net-(Q5-S)*%
X125100000Y-62600000D02*
X125100000Y-62400000D01*
D20*
X129000000Y-63500000D02*
X129600000Y-63500000D01*
D19*
X116520026Y-69199999D02*
X118500001Y-69199999D01*
D20*
X127900000Y-62400000D02*
X129000000Y-63500000D01*
D19*
X120461965Y-67238035D02*
X125100000Y-62600000D01*
X119861965Y-67838035D02*
X119861965Y-67589506D01*
X119861965Y-67589506D02*
X120213436Y-67238035D01*
D20*
X125100000Y-62400000D02*
X127900000Y-62400000D01*
D19*
X118500001Y-69199999D02*
X119861965Y-67838035D01*
X120213436Y-67238035D02*
X120461965Y-67238035D01*
D18*
%TO.N,RP2040_RST*%
X122450002Y-49575000D02*
X108761827Y-49575000D01*
X129100000Y-52100000D02*
X124975002Y-52100000D01*
X108425000Y-49238173D02*
X108425000Y-48761827D01*
X111186827Y-46000000D02*
X116900000Y-46000000D01*
X129500000Y-52500000D02*
X129100000Y-52100000D01*
X108761827Y-49575000D02*
X108425000Y-49238173D01*
X108425000Y-48761827D02*
X111186827Y-46000000D01*
X124975002Y-52100000D02*
X122450002Y-49575000D01*
%TD*%
M02*
