M48
; DRILL file {KiCad 8.0.2} date 2024-06-02T12:05:09-0300
; FORMAT={-:-/ absolute / inch / decimal}
; #@! TF.CreationDate,2024-06-02T12:05:09-03:00
; #@! TF.GenerationSoftware,Kicad,Pcbnew,8.0.2
; #@! TF.FileFunction,Plated,1,4,PTH
FMAT,2
INCH
; #@! TA.AperFunction,Plated,PTH,ComponentDrill
T1C0.0079
; #@! TA.AperFunction,Plated,PTH,ViaDrill
T2C0.0118
; #@! TA.AperFunction,Plated,PTH,ComponentDrill
T3C0.0197
; #@! TA.AperFunction,Plated,PTH,ComponentDrill
T4C0.0217
; #@! TA.AperFunction,Plated,PTH,ComponentDrill
T5C0.0350
; #@! TA.AperFunction,Plated,PTH,ComponentDrill
T6C0.0390
; #@! TA.AperFunction,Plated,PTH,ComponentDrill
T7C0.0394
%
G90
G05
T1
X4.7205Y-1.7386
X4.7205Y-1.7937
X4.748Y-1.711
X4.748Y-1.7661
X4.748Y-1.8213
X4.7756Y-1.7386
X4.7756Y-1.7937
X4.8031Y-1.711
X4.8031Y-1.7661
X4.8031Y-1.8213
X4.8307Y-1.7386
X4.8307Y-1.7937
T2
X4.0709Y-3.9961
X4.1299Y-2.7047
X4.1457Y-2.5433
X4.1781Y-1.6545
X4.2559Y-4.0551
X4.3858Y-2.7205
X4.4331Y-2.9484
X4.4724Y-2.9685
X4.4803Y-2.1644
X4.5413Y-2.063
X4.5472Y-2.8189
X4.5509Y-1.5137
X4.5549Y-1.5617
X4.5866Y-2.4921
X4.5878Y-2.811
X4.5886Y-2.4469
X4.6169Y-2.6797
X4.6191Y-2.3553
X4.622Y-1.8583
X4.6417Y-2.6457
X4.6769Y-2.8297
X4.691Y-2.8696
X4.6989Y-2.7777
X4.7047Y-3.7835
X4.7076Y-3.3651
X4.7549Y-3.0377
X4.7549Y-3.0617
X4.7629Y-3.2357
X4.7865Y-2.5568
X4.8109Y-2.7577
X4.8504Y-2.2441
X4.8543Y-3.1339
X4.8609Y-2.8577
X4.886Y-2.5657
X4.9094Y-2.0984
X4.9118Y-2.6234
X4.9169Y-3.2337
X4.9398Y-2.4843
X4.9495Y-2.5164
X4.9565Y-2.7908
X4.9685Y-2.874
X5.0109Y-2.9697
X5.0231Y-2.7515
X5.0729Y-2.5737
X5.0729Y-2.6337
X5.0902Y-2.9646
X5.1024Y-1.9134
X5.1299Y-2.9252
X5.1457Y-2.8977
X5.1549Y-2.8577
X5.1929Y-2.2441
X5.2323Y-2.2638
X5.2433Y-2.1118
X5.248Y-3.1575
X5.3602Y-2.3701
X5.3937Y-2.6457
X5.6654Y-2.6457
T5
X4.263Y-3.5591
X4.363Y-3.5591
T6
X5.3665Y-1.7036
X5.3665Y-1.8016
X5.3665Y-1.8996
X5.3665Y-1.9976
T7
X3.9685Y-2.9124
X3.9685Y-3.0124
X3.9685Y-3.1124
X3.9685Y-3.2124
X3.9685Y-3.3124
X3.9685Y-3.4124
X3.9685Y-3.5124
X3.9685Y-3.6124
X3.9685Y-3.7124
X3.9685Y-3.8124
X4.3937Y-3.9309
X4.3937Y-4.0309
X4.3937Y-4.1309
X4.5945Y-3.9309
X4.5945Y-4.0309
X4.5945Y-4.1309
X4.7776Y-3.9309
X4.7776Y-4.0309
X4.7776Y-4.1309
X4.9606Y-3.9309
X4.9606Y-4.0309
X4.9606Y-4.1309
X5.1437Y-3.9309
X5.1437Y-4.0309
X5.1437Y-4.1309
X5.3268Y-3.9309
X5.3268Y-4.0309
X5.3268Y-4.1309
X5.5236Y-3.2805
X5.5236Y-3.3805
X5.5236Y-3.4805
X5.5236Y-3.5805
X5.5236Y-3.6805
X5.6811Y-2.9124
X5.6811Y-3.0124
X5.6811Y-3.1124
X5.6811Y-3.2124
X5.6811Y-3.3124
X5.6811Y-3.4124
X5.6811Y-3.5124
X5.6811Y-3.6124
X5.6811Y-3.7124
X5.6811Y-3.8124
T3
G00X3.9616Y-2.4567
M15
G01X3.936Y-2.4567
M16
G05
G00X3.9616Y-2.7323
M15
G01X3.936Y-2.7323
M16
G05
G00X5.7077Y-2.4567
M15
G01X5.7333Y-2.4567
M16
G05
G00X5.7077Y-2.7323
M15
G01X5.7333Y-2.7323
M16
G05
T4
G00X4.0551Y-2.4902
M15
G01X4.0551Y-2.502
M16
G05
G00X4.0551Y-2.687
M15
G01X4.0551Y-2.6988
M16
G05
G00X5.6142Y-2.502
M15
G01X5.6142Y-2.4902
M16
G05
G00X5.6142Y-2.6988
M15
G01X5.6142Y-2.687
M16
G05
M30
