%TF.GenerationSoftware,KiCad,Pcbnew,8.0.2*%
%TF.CreationDate,2024-08-20T16:45:35-03:00*%
%TF.ProjectId,dough,646f7567-682e-46b6-9963-61645f706362,rev?*%
%TF.SameCoordinates,Original*%
%TF.FileFunction,Soldermask,Top*%
%TF.FilePolarity,Negative*%
%FSLAX46Y46*%
G04 Gerber Fmt 4.6, Leading zero omitted, Abs format (unit mm)*
G04 Created by KiCad (PCBNEW 8.0.2) date 2024-08-20 16:45:35*
%MOMM*%
%LPD*%
G01*
G04 APERTURE LIST*
G04 Aperture macros list*
%AMRoundRect*
0 Rectangle with rounded corners*
0 $1 Rounding radius*
0 $2 $3 $4 $5 $6 $7 $8 $9 X,Y pos of 4 corners*
0 Add a 4 corners polygon primitive as box body*
4,1,4,$2,$3,$4,$5,$6,$7,$8,$9,$2,$3,0*
0 Add four circle primitives for the rounded corners*
1,1,$1+$1,$2,$3*
1,1,$1+$1,$4,$5*
1,1,$1+$1,$6,$7*
1,1,$1+$1,$8,$9*
0 Add four rect primitives between the rounded corners*
20,1,$1+$1,$2,$3,$4,$5,0*
20,1,$1+$1,$4,$5,$6,$7,0*
20,1,$1+$1,$6,$7,$8,$9,0*
20,1,$1+$1,$8,$9,$2,$3,0*%
%AMRotRect*
0 Rectangle, with rotation*
0 The origin of the aperture is its center*
0 $1 length*
0 $2 width*
0 $3 Rotation angle, in degrees counterclockwise*
0 Add horizontal line*
21,1,$1,$2,0,0,$3*%
G04 Aperture macros list end*
%ADD10R,1.500000X0.900000*%
%ADD11R,0.900000X1.500000*%
%ADD12R,3.900000X3.900000*%
%ADD13C,1.500000*%
%ADD14R,1.300000X0.700000*%
%ADD15RoundRect,0.237500X0.287500X0.237500X-0.287500X0.237500X-0.287500X-0.237500X0.287500X-0.237500X0*%
%ADD16RoundRect,0.250000X0.250000X-0.250000X0.250000X0.250000X-0.250000X0.250000X-0.250000X-0.250000X0*%
%ADD17RoundRect,0.237500X0.250000X0.237500X-0.250000X0.237500X-0.250000X-0.237500X0.250000X-0.237500X0*%
%ADD18RoundRect,0.237500X-0.300000X-0.237500X0.300000X-0.237500X0.300000X0.237500X-0.300000X0.237500X0*%
%ADD19R,1.700000X1.700000*%
%ADD20O,1.700000X1.700000*%
%ADD21RoundRect,0.237500X0.044194X0.380070X-0.380070X-0.044194X-0.044194X-0.380070X0.380070X0.044194X0*%
%ADD22RoundRect,0.237500X-0.250000X-0.237500X0.250000X-0.237500X0.250000X0.237500X-0.250000X0.237500X0*%
%ADD23RoundRect,0.237500X-0.237500X0.300000X-0.237500X-0.300000X0.237500X-0.300000X0.237500X0.300000X0*%
%ADD24C,0.250000*%
%ADD25RotRect,1.250000X1.000000X45.000000*%
%ADD26RoundRect,0.050000X0.309359X-0.238649X-0.238649X0.309359X-0.309359X0.238649X0.238649X-0.309359X0*%
%ADD27RoundRect,0.050000X0.309359X0.238649X0.238649X0.309359X-0.309359X-0.238649X-0.238649X-0.309359X0*%
%ADD28RotRect,3.200000X3.200000X135.000000*%
%ADD29RotRect,1.250000X1.000000X315.000000*%
%ADD30C,1.498600*%
%ADD31RoundRect,0.237500X0.380070X-0.044194X-0.044194X0.380070X-0.380070X0.044194X0.044194X-0.380070X0*%
%ADD32RoundRect,0.150000X0.650000X0.150000X-0.650000X0.150000X-0.650000X-0.150000X0.650000X-0.150000X0*%
%ADD33RoundRect,0.237500X0.237500X-0.300000X0.237500X0.300000X-0.237500X0.300000X-0.237500X-0.300000X0*%
%ADD34RotRect,0.254000X0.279400X135.000000*%
%ADD35RotRect,0.254000X0.254000X45.000000*%
%ADD36R,1.350000X0.400000*%
%ADD37O,1.550000X0.890000*%
%ADD38R,1.550000X1.200000*%
%ADD39O,0.950000X1.250000*%
%ADD40R,1.550000X1.500000*%
%ADD41RoundRect,0.237500X-0.237500X0.250000X-0.237500X-0.250000X0.237500X-0.250000X0.237500X0.250000X0*%
%ADD42RoundRect,0.050000X-0.300000X-0.050000X0.300000X-0.050000X0.300000X0.050000X-0.300000X0.050000X0*%
%ADD43RoundRect,0.100000X-0.250000X-0.100000X0.250000X-0.100000X0.250000X0.100000X-0.250000X0.100000X0*%
%ADD44RotRect,0.675000X0.250000X225.000000*%
%ADD45RotRect,0.250000X0.675000X225.000000*%
G04 APERTURE END LIST*
D10*
%TO.C,U9*%
X114050000Y-37140000D03*
X114050000Y-38410000D03*
X114050000Y-39680000D03*
X114050000Y-40950000D03*
X114050000Y-42220000D03*
X114050000Y-43490000D03*
X114050000Y-44760000D03*
X114050000Y-46030000D03*
X114050000Y-47300000D03*
X114050000Y-48570000D03*
X114050000Y-49840000D03*
X114050000Y-51110000D03*
X114050000Y-52380000D03*
X114050000Y-53650000D03*
D11*
X115815000Y-54900000D03*
X117085000Y-54900000D03*
X118355000Y-54900000D03*
X119625000Y-54900000D03*
X120895000Y-54900000D03*
X122165000Y-54900000D03*
X123435000Y-54900000D03*
X124705000Y-54900000D03*
X125975000Y-54900000D03*
X127245000Y-54900000D03*
X128515000Y-54900000D03*
X129785000Y-54900000D03*
D10*
X131550000Y-53650000D03*
X131550000Y-52380000D03*
X131550000Y-51110000D03*
X131550000Y-49840000D03*
X131550000Y-48570000D03*
X131550000Y-47300000D03*
X131550000Y-46030000D03*
X131550000Y-44760000D03*
X131550000Y-43490000D03*
X131550000Y-42220000D03*
X131550000Y-40950000D03*
X131550000Y-39680000D03*
X131550000Y-38410000D03*
X131550000Y-37140000D03*
D12*
X121300000Y-44860000D03*
%TD*%
D13*
%TO.C,J1*%
X111470000Y-86970200D03*
X108930000Y-86970200D03*
%TD*%
D14*
%TO.C,D1*%
X106850000Y-57500000D03*
X106850000Y-56400000D03*
X106850000Y-55300000D03*
X103750000Y-55300000D03*
X103750000Y-56400000D03*
X103750000Y-57500000D03*
%TD*%
D13*
%TO.C,J13*%
X105329801Y-96965100D03*
X105329801Y-94425100D03*
%TD*%
D15*
%TO.C,D7*%
X135275000Y-56100000D03*
X133525000Y-56100000D03*
%TD*%
D16*
%TO.C,D10*%
X110100000Y-97050000D03*
X110100000Y-94550000D03*
%TD*%
D17*
%TO.C,R29*%
X145712500Y-56400000D03*
X143887500Y-56400000D03*
%TD*%
D18*
%TO.C,C7*%
X123337500Y-95700000D03*
X125062500Y-95700000D03*
%TD*%
D19*
%TO.C,J7*%
X126000000Y-104925000D03*
D20*
X126000000Y-102385000D03*
X126000000Y-99845000D03*
%TD*%
D19*
%TO.C,J6*%
X130650000Y-104925000D03*
D20*
X130650000Y-102385000D03*
X130650000Y-99845000D03*
%TD*%
D17*
%TO.C,R30*%
X145712500Y-54900000D03*
X143887500Y-54900000D03*
%TD*%
D19*
%TO.C,J12*%
X100800000Y-73975000D03*
D20*
X100800000Y-76515000D03*
X100800000Y-79055000D03*
X100800000Y-81595000D03*
X100800000Y-84135000D03*
X100800000Y-86675000D03*
X100800000Y-89215000D03*
X100800000Y-91755000D03*
X100800000Y-94295000D03*
X100800000Y-96835000D03*
%TD*%
D14*
%TO.C,D5*%
X138750000Y-55300000D03*
X138750000Y-56400000D03*
X138750000Y-57500000D03*
X141850000Y-57500000D03*
X141850000Y-56400000D03*
X141850000Y-55300000D03*
%TD*%
D21*
%TO.C,C25*%
X133159880Y-76040120D03*
X131940120Y-77259880D03*
%TD*%
D22*
%TO.C,R14*%
X99887500Y-54900000D03*
X101712500Y-54900000D03*
%TD*%
D17*
%TO.C,R31*%
X145712500Y-53650000D03*
X143887500Y-53650000D03*
%TD*%
D23*
%TO.C,C401*%
X112050000Y-37037500D03*
X112050000Y-38762500D03*
%TD*%
D19*
%TO.C,J4*%
X111600000Y-104925000D03*
D20*
X111600000Y-102385000D03*
X111600000Y-99845000D03*
%TD*%
D19*
%TO.C,J9*%
X116700000Y-104925000D03*
D20*
X116700000Y-102385000D03*
X116700000Y-99845000D03*
%TD*%
D24*
%TO.C,U7*%
X117100000Y-62700000D03*
X117500000Y-62700000D03*
X117100000Y-63100000D03*
X117500000Y-63100000D03*
%TD*%
D25*
%TO.C,SW4*%
X132059961Y-69140039D03*
X137540039Y-63659961D03*
%TD*%
D26*
%TO.C,U2*%
X123392202Y-71669157D03*
X123675045Y-71386314D03*
X123957887Y-71103472D03*
X124240730Y-70820629D03*
X124523573Y-70537786D03*
X124806415Y-70254944D03*
X125089258Y-69972101D03*
X125372101Y-69689258D03*
X125654944Y-69406415D03*
X125937786Y-69123573D03*
X126220629Y-68840730D03*
X126503472Y-68557887D03*
X126786314Y-68275045D03*
X127069157Y-67992202D03*
D27*
X127069157Y-66807798D03*
X126786314Y-66524955D03*
X126503472Y-66242113D03*
X126220629Y-65959270D03*
X125937786Y-65676427D03*
X125654944Y-65393585D03*
X125372101Y-65110742D03*
X125089258Y-64827899D03*
X124806415Y-64545056D03*
X124523573Y-64262214D03*
X124240730Y-63979371D03*
X123957887Y-63696528D03*
X123675045Y-63413686D03*
X123392202Y-63130843D03*
D26*
X122207798Y-63130843D03*
X121924955Y-63413686D03*
X121642113Y-63696528D03*
X121359270Y-63979371D03*
X121076427Y-64262214D03*
X120793585Y-64545056D03*
X120510742Y-64827899D03*
X120227899Y-65110742D03*
X119945056Y-65393585D03*
X119662214Y-65676427D03*
X119379371Y-65959270D03*
X119096528Y-66242113D03*
X118813686Y-66524955D03*
X118530843Y-66807798D03*
D27*
X118530843Y-67992202D03*
X118813686Y-68275045D03*
X119096528Y-68557887D03*
X119379371Y-68840730D03*
X119662214Y-69123573D03*
X119945056Y-69406415D03*
X120227899Y-69689258D03*
X120510742Y-69972101D03*
X120793585Y-70254944D03*
X121076427Y-70537786D03*
X121359270Y-70820629D03*
X121642113Y-71103472D03*
X121924955Y-71386314D03*
X122207798Y-71669157D03*
D28*
X122800000Y-67400000D03*
%TD*%
D29*
%TO.C,SW301*%
X108059961Y-63659961D03*
X113540039Y-69140039D03*
%TD*%
%TO.C,SW1*%
X108059961Y-76159961D03*
X113540039Y-81640039D03*
%TD*%
D30*
%TO.C,U11*%
X136308000Y-43271100D03*
X136308000Y-45760300D03*
X136308000Y-48249500D03*
X136308000Y-50738700D03*
%TD*%
D31*
%TO.C,C11*%
X112440120Y-76040120D03*
X113659880Y-77259880D03*
%TD*%
D19*
%TO.C,J8*%
X121350000Y-104925000D03*
D20*
X121350000Y-102385000D03*
X121350000Y-99845000D03*
%TD*%
D32*
%TO.C,U1*%
X126400000Y-82305000D03*
X126400000Y-81035000D03*
X126400000Y-79765000D03*
X126400000Y-78495000D03*
X119200000Y-78495000D03*
X119200000Y-79765000D03*
X119200000Y-81035000D03*
X119200000Y-82305000D03*
%TD*%
D33*
%TO.C,C405*%
X110540000Y-38762500D03*
X110540000Y-37037500D03*
%TD*%
D34*
%TO.C,U6*%
X116585609Y-73260837D03*
X116939163Y-73614391D03*
D35*
X117493042Y-73800147D03*
X117846594Y-73446594D03*
X118200147Y-73093042D03*
D34*
X118014391Y-72539163D03*
X117660837Y-72185609D03*
D35*
X117106958Y-71999853D03*
X116753406Y-72353406D03*
X116399853Y-72706958D03*
%TD*%
D31*
%TO.C,C18*%
X116234880Y-75759880D03*
X115015120Y-74540120D03*
%TD*%
D21*
%TO.C,C402*%
X134509880Y-61490120D03*
X133290120Y-62709880D03*
%TD*%
D15*
%TO.C,D8*%
X106775000Y-67800000D03*
X105025000Y-67800000D03*
%TD*%
D17*
%TO.C,R32*%
X145712500Y-57900000D03*
X143887500Y-57900000D03*
%TD*%
D22*
%TO.C,R28*%
X99887500Y-59400000D03*
X101712500Y-59400000D03*
%TD*%
D19*
%TO.C,J5*%
X135300000Y-104925000D03*
D20*
X135300000Y-102385000D03*
X135300000Y-99845000D03*
%TD*%
D15*
%TO.C,D9*%
X140475000Y-67800000D03*
X138725000Y-67800000D03*
%TD*%
D36*
%TO.C,J10*%
X142600000Y-67200000D03*
X142600000Y-66550000D03*
X142600000Y-65900000D03*
X142600000Y-65250000D03*
X142600000Y-64600000D03*
D37*
X145300000Y-69400000D03*
D38*
X145300000Y-68800000D03*
D39*
X142600000Y-68400000D03*
D40*
X145300000Y-66900000D03*
X145300000Y-64900000D03*
D39*
X142600000Y-63400000D03*
D38*
X145300000Y-63000000D03*
D37*
X145300000Y-62400000D03*
%TD*%
D22*
%TO.C,R16*%
X99887500Y-57900000D03*
X101712500Y-57900000D03*
%TD*%
%TO.C,R46*%
X119887500Y-94000000D03*
X121712500Y-94000000D03*
%TD*%
D19*
%TO.C,J2*%
X140300000Y-83325000D03*
D20*
X140300000Y-85865000D03*
X140300000Y-88405000D03*
X140300000Y-90945000D03*
X140300000Y-93485000D03*
%TD*%
D41*
%TO.C,R48*%
X110100000Y-91187500D03*
X110100000Y-93012500D03*
%TD*%
D22*
%TO.C,R15*%
X99887500Y-56400000D03*
X101712500Y-56400000D03*
%TD*%
D19*
%TO.C,J11*%
X144300000Y-73975000D03*
D20*
X144300000Y-76515000D03*
X144300000Y-79055000D03*
X144300000Y-81595000D03*
X144300000Y-84135000D03*
X144300000Y-86675000D03*
X144300000Y-89215000D03*
X144300000Y-91755000D03*
X144300000Y-94295000D03*
X144300000Y-96835000D03*
%TD*%
D42*
%TO.C,U10*%
X122300000Y-74400000D03*
X122300000Y-74900000D03*
D43*
X122300000Y-75400000D03*
D42*
X122300000Y-75900000D03*
X122300000Y-76400000D03*
X123300000Y-76400000D03*
X123300000Y-75900000D03*
D43*
X123300000Y-75400000D03*
D42*
X123300000Y-74900000D03*
X123300000Y-74400000D03*
%TD*%
D44*
%TO.C,U8*%
X129723052Y-72537608D03*
X129369499Y-72184054D03*
X129015946Y-71830501D03*
X128662392Y-71476948D03*
D45*
X127937608Y-71830501D03*
X127584054Y-72184054D03*
X127230501Y-72537608D03*
D44*
X126876948Y-73262392D03*
X127230501Y-73615946D03*
X127584054Y-73969499D03*
X127937608Y-74323052D03*
D45*
X128662392Y-73969499D03*
X129015946Y-73615946D03*
X129369499Y-73262392D03*
%TD*%
D25*
%TO.C,SW2*%
X132059961Y-81640039D03*
X137540039Y-76159961D03*
%TD*%
D36*
%TO.C,J3*%
X103000000Y-64600000D03*
X103000000Y-65250000D03*
X103000000Y-65900000D03*
X103000000Y-66550000D03*
X103000000Y-67200000D03*
D37*
X100300000Y-62400000D03*
D38*
X100300000Y-63000000D03*
D39*
X103000000Y-63400000D03*
D40*
X100300000Y-64900000D03*
X100300000Y-66900000D03*
D39*
X103000000Y-68400000D03*
D38*
X100300000Y-68800000D03*
D37*
X100300000Y-69400000D03*
%TD*%
D22*
%TO.C,R47*%
X123287500Y-94000000D03*
X125112500Y-94000000D03*
%TD*%
M02*
