%TF.GenerationSoftware,KiCad,Pcbnew,8.0.2*%
%TF.CreationDate,2024-06-02T11:57:14-03:00*%
%TF.ProjectId,dough,646f7567-682e-46b6-9963-61645f706362,rev?*%
%TF.SameCoordinates,Original*%
%TF.FileFunction,Copper,L3,Inr*%
%TF.FilePolarity,Positive*%
%FSLAX46Y46*%
G04 Gerber Fmt 4.6, Leading zero omitted, Abs format (unit mm)*
G04 Created by KiCad (PCBNEW 8.0.2) date 2024-06-02 11:57:14*
%MOMM*%
%LPD*%
G01*
G04 APERTURE LIST*
%TA.AperFunction,ComponentPad*%
%ADD10C,1.143000*%
%TD*%
%TA.AperFunction,ComponentPad*%
%ADD11R,1.700000X1.700000*%
%TD*%
%TA.AperFunction,ComponentPad*%
%ADD12O,1.700000X1.700000*%
%TD*%
%TA.AperFunction,HeatsinkPad*%
%ADD13C,0.600000*%
%TD*%
%TA.AperFunction,ComponentPad*%
%ADD14C,1.498600*%
%TD*%
%TA.AperFunction,ComponentPad*%
%ADD15O,1.550000X0.890000*%
%TD*%
%TA.AperFunction,ComponentPad*%
%ADD16O,0.950000X1.250000*%
%TD*%
%TA.AperFunction,ViaPad*%
%ADD17C,0.600000*%
%TD*%
%TA.AperFunction,ViaPad*%
%ADD18C,1.000000*%
%TD*%
%TA.AperFunction,Conductor*%
%ADD19C,1.000000*%
%TD*%
%TA.AperFunction,Conductor*%
%ADD20C,0.200000*%
%TD*%
%TA.AperFunction,Conductor*%
%ADD21C,0.400000*%
%TD*%
%TA.AperFunction,Conductor*%
%ADD22C,0.150000*%
%TD*%
%TA.AperFunction,Conductor*%
%ADD23C,0.500000*%
%TD*%
%TA.AperFunction,Conductor*%
%ADD24C,0.250000*%
%TD*%
G04 APERTURE END LIST*
D10*
%TO.N,GND*%
%TO.C,J1*%
X110820000Y-90400000D03*
%TO.N,Net-(D2-K)*%
X108280000Y-90400000D03*
%TD*%
D11*
%TO.N,GND*%
%TO.C,J7*%
X126000000Y-104925000D03*
D12*
%TO.N,Net-(J7-Pin_2)*%
X126000000Y-102385000D03*
%TO.N,SER_3*%
X126000000Y-99845000D03*
%TD*%
D11*
%TO.N,GND*%
%TO.C,J6*%
X130650000Y-104925000D03*
D12*
%TO.N,Net-(J6-Pin_2)*%
X130650000Y-102385000D03*
%TO.N,SER_2*%
X130650000Y-99845000D03*
%TD*%
D11*
%TO.N,GND*%
%TO.C,J12*%
X100800000Y-73975000D03*
D12*
%TO.N,SPI_BIT2*%
X100800000Y-76515000D03*
%TO.N,SPI0_MISO*%
X100800000Y-79055000D03*
%TO.N,SPI0_CLK*%
X100800000Y-81595000D03*
%TO.N,SPI0_MOSI*%
X100800000Y-84135000D03*
%TO.N,SPI_BIT3*%
X100800000Y-86675000D03*
%TO.N,SPI0_CS2*%
X100800000Y-89215000D03*
%TO.N,GPIO6_esp*%
X100800000Y-91755000D03*
%TO.N,GPIO5_esp*%
X100800000Y-94295000D03*
%TO.N,GPIO4_esp*%
X100800000Y-96835000D03*
%TD*%
D13*
%TO.N,GND*%
%TO.C,U9*%
X119900000Y-44160000D03*
X119900000Y-45560000D03*
X120600000Y-43460000D03*
X120600000Y-44860000D03*
X120600000Y-46260000D03*
X121300000Y-44160000D03*
X121300000Y-45560000D03*
X122000000Y-43460000D03*
X122000000Y-44860000D03*
X122000000Y-46260000D03*
X122700000Y-44160000D03*
X122700000Y-45560000D03*
%TD*%
D11*
%TO.N,GND*%
%TO.C,J4*%
X111600000Y-104925000D03*
D12*
%TO.N,Net-(J4-Pin_2)*%
X111600000Y-102385000D03*
%TO.N,SER_6*%
X111600000Y-99845000D03*
%TD*%
D11*
%TO.N,GND*%
%TO.C,J9*%
X116700000Y-104925000D03*
D12*
%TO.N,Net-(J9-Pin_2)*%
X116700000Y-102385000D03*
%TO.N,SER_5*%
X116700000Y-99845000D03*
%TD*%
D14*
%TO.N,GND*%
%TO.C,U11*%
X136308000Y-43271100D03*
%TO.N,UART1_RX*%
X136308000Y-45760300D03*
%TO.N,UART1_TX*%
X136308000Y-48249500D03*
%TO.N,+3V3*%
X136308000Y-50738700D03*
%TD*%
D11*
%TO.N,GND*%
%TO.C,J8*%
X121350000Y-104925000D03*
D12*
%TO.N,Net-(J8-Pin_2)*%
X121350000Y-102385000D03*
%TO.N,SER_4*%
X121350000Y-99845000D03*
%TD*%
D11*
%TO.N,GND*%
%TO.C,J5*%
X135300000Y-104925000D03*
D12*
%TO.N,Net-(J5-Pin_2)*%
X135300000Y-102385000D03*
%TO.N,SER_1*%
X135300000Y-99845000D03*
%TD*%
D15*
%TO.N,GND*%
%TO.C,J10*%
X145300000Y-69400000D03*
D16*
X142600000Y-68400000D03*
X142600000Y-63400000D03*
D15*
X145300000Y-62400000D03*
%TD*%
D11*
%TO.N,+5V*%
%TO.C,J2*%
X140300000Y-83325000D03*
D12*
%TO.N,+3V3*%
X140300000Y-85865000D03*
%TO.N,SDA0*%
X140300000Y-88405000D03*
%TO.N,SCL0*%
X140300000Y-90945000D03*
%TO.N,GND*%
X140300000Y-93485000D03*
%TD*%
D11*
%TO.N,GND*%
%TO.C,J11*%
X144300000Y-73975000D03*
D12*
%TO.N,ADC0*%
X144300000Y-76515000D03*
%TO.N,ADC1*%
X144300000Y-79055000D03*
%TO.N,ADC2*%
X144300000Y-81595000D03*
%TO.N,GPIO15*%
X144300000Y-84135000D03*
%TO.N,GPIO16*%
X144300000Y-86675000D03*
%TO.N,GPIO17*%
X144300000Y-89215000D03*
%TO.N,GPIO18*%
X144300000Y-91755000D03*
%TO.N,+5V*%
X144300000Y-94295000D03*
%TO.N,+3V3*%
X144300000Y-96835000D03*
%TD*%
D15*
%TO.N,GND*%
%TO.C,J3*%
X100300000Y-62400000D03*
D16*
X103000000Y-63400000D03*
X103000000Y-68400000D03*
D15*
X100300000Y-69400000D03*
%TD*%
D17*
%TO.N,GND*%
X116529632Y-71400001D03*
X116550000Y-62150000D03*
X113600000Y-75400000D03*
X132900000Y-57500000D03*
X126200000Y-73000000D03*
X124100000Y-75500000D03*
D18*
X119500000Y-96100000D03*
D17*
X117400000Y-47200000D03*
X124759635Y-66634635D03*
X123300000Y-79600000D03*
%TO.N,+5V*%
X108100000Y-103000000D03*
X103400000Y-101500000D03*
X134000000Y-63700000D03*
X129400000Y-59600000D03*
%TO.N,+3V3*%
X127587600Y-69887600D03*
X120977600Y-82187200D03*
X116500000Y-63300000D03*
X117900000Y-67201200D03*
X115500000Y-71600000D03*
X115592800Y-38448400D03*
X119352000Y-70554000D03*
D18*
X133300000Y-80200000D03*
D17*
X123466800Y-72586000D03*
X121577513Y-64943819D03*
X132400000Y-63800000D03*
%TO.N,+1V1*%
X125717155Y-63917155D03*
X122196800Y-70046000D03*
%TO.N,ADC3*%
X112600355Y-74890383D03*
%TO.N,ADC_VREF*%
X117269200Y-68064800D03*
%TO.N,SDA1*%
X125896319Y-70887443D03*
X130700000Y-73602000D03*
X118700000Y-73800000D03*
X136700000Y-72600000D03*
X123046867Y-65600000D03*
X124600000Y-71800000D03*
%TO.N,SCL1*%
X130300000Y-74300000D03*
X116900000Y-74200000D03*
X124300000Y-69500000D03*
X127216977Y-71816978D03*
%TO.N,SER_2*%
X133600000Y-41500000D03*
X129300000Y-85300000D03*
%TO.N,SER_3*%
X123200000Y-57000000D03*
X125400000Y-68300000D03*
X124400000Y-64100000D03*
%TO.N,SER_4*%
X124700000Y-53299998D03*
X131700000Y-70700000D03*
X131200000Y-55300000D03*
%TO.N,SWCLK*%
X125471224Y-63100000D03*
%TO.N,SWD*%
X124105557Y-65170025D03*
%TO.N,SER_5*%
X131043411Y-69884282D03*
%TO.N,LED_G*%
X119818524Y-63860772D03*
X114200000Y-64200000D03*
%TO.N,BMI_INT2*%
X127276800Y-75430800D03*
%TO.N,BMI_INT1*%
X129290461Y-75300000D03*
%TO.N,Net-(U2-XIN)*%
X127100000Y-63200000D03*
X111173200Y-77412000D03*
%TO.N,Net-(U2-XOUT)*%
X126400000Y-62775000D03*
X112544800Y-77767600D03*
%TO.N,USB1_D-*%
X120774400Y-77158000D03*
%TO.N,USB1_D+*%
X120774400Y-77767600D03*
%TO.N,Net-(U8-SDO)*%
X130934400Y-72586000D03*
%TO.N,Net-(D4-A)*%
X143900000Y-67200000D03*
%TO.N,Net-(D8-A)*%
X104900000Y-68700000D03*
%TO.N,ESP32_RST*%
X106123058Y-42023058D03*
%TO.N,Net-(D9-A)*%
X137000000Y-67200000D03*
%TO.N,Net-(Q1-S)*%
X135350000Y-62150000D03*
X115694400Y-39667600D03*
%TO.N,SPI0_CLK*%
X122200000Y-56800000D03*
X109200000Y-53400000D03*
%TO.N,Net-(D6-A)*%
X105300000Y-64600000D03*
%TO.N,SPI_CS*%
X119600000Y-56600000D03*
X109400000Y-55600000D03*
%TO.N,USB2_D+*%
X117600000Y-58700000D03*
X119858058Y-75841942D03*
X113750000Y-60200000D03*
%TO.N,USB2_D-*%
X121166942Y-75383058D03*
X117324265Y-59824265D03*
X112350000Y-60850000D03*
%TO.N,SD_CD*%
X129600000Y-48600000D03*
X109000000Y-49000000D03*
%TO.N,SPI_BIT3*%
X118400000Y-56800000D03*
X109400000Y-56800000D03*
%TO.N,SPI0_MISO*%
X123400000Y-53700000D03*
X109000000Y-50200000D03*
%TO.N,SPI_BIT2*%
X106950000Y-76500000D03*
X124700000Y-56700000D03*
X109400000Y-58000000D03*
%TO.N,SPI0_MOSI*%
X120800000Y-53800000D03*
X102500000Y-78300000D03*
X109000000Y-51200000D03*
%TO.N,UART1_TX*%
X119500000Y-60800000D03*
X132604266Y-52995734D03*
%TO.N,UART1_RX*%
X118300000Y-60650000D03*
X131800000Y-52900000D03*
%TO.N,SCL0*%
X126000000Y-61525000D03*
X128851600Y-65372400D03*
X115200000Y-61000000D03*
X133100000Y-65100000D03*
%TO.N,SDA0*%
X128851600Y-66896400D03*
X128850000Y-57900000D03*
X133200000Y-67700000D03*
%TO.N,Net-(R18-Pad1)*%
X111400000Y-69100000D03*
%TO.N,/RP2040 section/QSPI_SS*%
X124889200Y-82136400D03*
X113100000Y-69800000D03*
%TO.N,Net-(U2-USB_DM)*%
X118793200Y-71874800D03*
%TO.N,Net-(U2-USB_DP)*%
X119150846Y-72888754D03*
%TO.N,SER_6*%
X130150000Y-68850000D03*
%TO.N,Net-(D7-A)*%
X131900000Y-57000000D03*
%TO.N,BUZZER*%
X128850000Y-56048367D03*
%TO.N,GPIO17*%
X133400000Y-68700000D03*
X138800000Y-73100000D03*
X131100000Y-67900000D03*
%TO.N,ADC1*%
X115730454Y-67261825D03*
X133700000Y-84700000D03*
X112000000Y-74200000D03*
%TO.N,ADC0*%
X114800000Y-66600000D03*
X136119669Y-84080331D03*
X111000000Y-72900000D03*
%TO.N,ADC2*%
X132400000Y-86000000D03*
%TO.N,GPIO15*%
X134000000Y-66500000D03*
X129500000Y-64400000D03*
%TO.N,GPIO16*%
X130948231Y-68796785D03*
X133700000Y-69900000D03*
X139450000Y-74236828D03*
%TO.N,Net-(Q4-S)*%
X135400000Y-72500000D03*
X133179266Y-53640042D03*
%TO.N,SPI0_CS2*%
X106100000Y-70600000D03*
X113700000Y-63200000D03*
%TO.N,ESP32_BOOT*%
X136150000Y-60200000D03*
%TO.N,Net-(Q5-S)*%
X119574265Y-85474265D03*
X125500000Y-62150000D03*
X116520026Y-69199999D03*
X131300000Y-63700000D03*
%TO.N,RP2040_RST*%
X116900000Y-46000000D03*
X125600000Y-52724998D03*
%TO.N,Net-(U9-IO20)*%
X113800000Y-54975000D03*
%TO.N,Net-(U9-IO19)*%
X115350000Y-52400000D03*
%TD*%
D19*
%TO.N,GND*%
X139085000Y-93485000D02*
X138300000Y-92700000D01*
X138300000Y-79975000D02*
X144300000Y-73975000D01*
X140300000Y-93485000D02*
X139085000Y-93485000D01*
D20*
X126200000Y-73000000D02*
X126150000Y-73050000D01*
D21*
X126150000Y-73450000D02*
X124100000Y-75500000D01*
D22*
X116529632Y-72470368D02*
X113600000Y-75400000D01*
X116529632Y-71400001D02*
X116529632Y-72470368D01*
D19*
X138300000Y-92700000D02*
X138300000Y-79975000D01*
D21*
X126150000Y-73050000D02*
X126150000Y-73450000D01*
D23*
%TO.N,+5V*%
X133500000Y-63700000D02*
X134000000Y-63700000D01*
X129400000Y-59600000D02*
X133500000Y-63700000D01*
%TO.N,+3V3*%
X117900000Y-67201200D02*
X117072139Y-67201200D01*
X115500000Y-68773339D02*
X115500000Y-71600000D01*
X117072139Y-67201200D02*
X115500000Y-68773339D01*
D20*
%TO.N,SDA1*%
X124600000Y-71800000D02*
X121700000Y-71800000D01*
D22*
X125896319Y-69896319D02*
X123046867Y-67046867D01*
X125896319Y-70887443D02*
X125896319Y-69896319D01*
X123046867Y-67046867D02*
X123046867Y-65600000D01*
D20*
X121700000Y-71800000D02*
X119700000Y-73800000D01*
X119700000Y-73800000D02*
X118700000Y-73800000D01*
%TO.N,SCL1*%
X127099999Y-71700000D02*
X127216977Y-71816978D01*
X125600000Y-71700000D02*
X125350000Y-71950000D01*
X124100000Y-69500000D02*
X123900000Y-69700000D01*
X117000000Y-74300000D02*
X117000000Y-74100000D01*
X125350000Y-71450000D02*
X125350000Y-71950000D01*
X123900000Y-70000000D02*
X125350000Y-71450000D01*
X125350000Y-71450000D02*
X125600000Y-71700000D01*
X124300000Y-69500000D02*
X124100000Y-69500000D01*
X123000000Y-74300000D02*
X117000000Y-74300000D01*
X125350000Y-71950000D02*
X123000000Y-74300000D01*
X125600000Y-71700000D02*
X127099999Y-71700000D01*
X123900000Y-69700000D02*
X123900000Y-70000000D01*
D22*
%TO.N,SER_2*%
X137575000Y-67438173D02*
X137575000Y-54375000D01*
X137400000Y-74450000D02*
X137400000Y-67613173D01*
X137575000Y-54375000D02*
X133600000Y-50400000D01*
X129300000Y-85300000D02*
X129300000Y-82550000D01*
X129300000Y-82550000D02*
X137400000Y-74450000D01*
X133600000Y-50400000D02*
X133600000Y-41500000D01*
X137400000Y-67613173D02*
X137575000Y-67438173D01*
%TO.N,SER_3*%
X124400000Y-64200000D02*
X125400000Y-65200000D01*
X125400000Y-65200000D02*
X125400000Y-68300000D01*
X124400000Y-64100000D02*
X124400000Y-64200000D01*
D20*
%TO.N,SER_4*%
X131700000Y-78900000D02*
X121350000Y-89250000D01*
X131700000Y-70700000D02*
X131700000Y-78900000D01*
X121350000Y-89250000D02*
X121350000Y-99845000D01*
%TO.N,SER_5*%
X131043411Y-69884282D02*
X131043411Y-69988275D01*
X130400000Y-70631686D02*
X130400000Y-72087837D01*
X131043411Y-69988275D02*
X130400000Y-70631686D01*
X116700000Y-87500000D02*
X116700000Y-99845000D01*
X128500000Y-73987837D02*
X128500000Y-75700000D01*
X128500000Y-75700000D02*
X116700000Y-87500000D01*
X130400000Y-72087837D02*
X128500000Y-73987837D01*
%TO.N,LED_G*%
X119454296Y-64225000D02*
X119818524Y-63860772D01*
D22*
X114475000Y-64225000D02*
X114200000Y-64200000D01*
D20*
X117875000Y-64225000D02*
X119454296Y-64225000D01*
D22*
X114425000Y-64225000D02*
X114450000Y-64225000D01*
D24*
X117875000Y-64225000D02*
X114475000Y-64225000D01*
D22*
X114200000Y-64200000D02*
X114425000Y-64225000D01*
D20*
%TO.N,Net-(U2-XIN)*%
X128502400Y-72022829D02*
X122148029Y-78377200D01*
X127300000Y-63000000D02*
X127934314Y-63000000D01*
X128200000Y-63265686D02*
X128200000Y-64609785D01*
X122148029Y-78377200D02*
X113861507Y-78377200D01*
X113861507Y-78377200D02*
X112439107Y-76954800D01*
X127851600Y-67623600D02*
X128502400Y-68274400D01*
X127100000Y-63200000D02*
X127300000Y-63000000D01*
X127934314Y-63000000D02*
X128200000Y-63265686D01*
X127851600Y-64958185D02*
X127851600Y-67623600D01*
X128200000Y-64609785D02*
X127851600Y-64958185D01*
X112439107Y-76954800D02*
X111630400Y-76954800D01*
D22*
X128502400Y-72022829D02*
X128502400Y-68274400D01*
D20*
X111630400Y-76954800D02*
X111173200Y-77412000D01*
%TO.N,Net-(U2-XOUT)*%
X118721658Y-79537200D02*
X118721658Y-79017200D01*
X115361658Y-78777200D02*
X115481658Y-78777200D01*
X128600000Y-64775471D02*
X128600000Y-63100000D01*
X128251600Y-67457914D02*
X128251600Y-65123871D01*
X118121658Y-79017200D02*
X118121658Y-79537200D01*
X113554400Y-78777200D02*
X114281658Y-78777200D01*
X116921658Y-79017200D02*
X116921658Y-79537200D01*
X128902400Y-72231914D02*
X128902400Y-68108714D01*
X118961658Y-78777200D02*
X119081658Y-78777200D01*
X119607040Y-78777200D02*
X122357114Y-78777200D01*
X117161658Y-79777200D02*
X117281658Y-79777200D01*
X126575000Y-62600000D02*
X126400000Y-62775000D01*
X128902400Y-68108714D02*
X128251600Y-67457914D01*
X114761658Y-79777200D02*
X114881658Y-79777200D01*
X114521658Y-79017200D02*
X114521658Y-79537200D01*
X116561658Y-78777200D02*
X116681658Y-78777200D01*
X116321658Y-79537200D02*
X116321658Y-79017200D01*
X119081658Y-78777200D02*
X119607040Y-78777200D01*
X118361658Y-79777200D02*
X118481658Y-79777200D01*
X115721658Y-79017200D02*
X115721658Y-79537200D01*
X117521658Y-79537200D02*
X117521658Y-79017200D01*
X128600000Y-63100000D02*
X128100000Y-62600000D01*
X112544800Y-77767600D02*
X113554400Y-78777200D01*
X115961658Y-79777200D02*
X116081658Y-79777200D01*
X115121658Y-79537200D02*
X115121658Y-79017200D01*
X128251600Y-65123871D02*
X128600000Y-64775471D01*
X122357114Y-78777200D02*
X128902400Y-72231914D01*
X117761658Y-78777200D02*
X117881658Y-78777200D01*
X128100000Y-62600000D02*
X126575000Y-62600000D01*
X117881658Y-78777200D02*
G75*
G02*
X118121700Y-79017200I42J-240000D01*
G01*
X117521658Y-79017200D02*
G75*
G02*
X117761658Y-78777158I240042J0D01*
G01*
X116921658Y-79537200D02*
G75*
G03*
X117161658Y-79777242I240042J0D01*
G01*
X115481658Y-78777200D02*
G75*
G02*
X115721700Y-79017200I42J-240000D01*
G01*
X116081658Y-79777200D02*
G75*
G03*
X116321700Y-79537200I42J240000D01*
G01*
X114521658Y-79537200D02*
G75*
G03*
X114761658Y-79777242I240042J0D01*
G01*
X118481658Y-79777200D02*
G75*
G03*
X118721700Y-79537200I42J240000D01*
G01*
X116321658Y-79017200D02*
G75*
G02*
X116561658Y-78777158I240042J0D01*
G01*
X118121658Y-79537200D02*
G75*
G03*
X118361658Y-79777242I240042J0D01*
G01*
X115121658Y-79017200D02*
G75*
G02*
X115361658Y-78777158I240042J0D01*
G01*
X118721658Y-79017200D02*
G75*
G02*
X118961658Y-78777158I240042J0D01*
G01*
X114281658Y-78777200D02*
G75*
G02*
X114521700Y-79017200I42J-240000D01*
G01*
X115721658Y-79537200D02*
G75*
G03*
X115961658Y-79777242I240042J0D01*
G01*
X114881658Y-79777200D02*
G75*
G03*
X115121700Y-79537200I42J240000D01*
G01*
X116681658Y-78777200D02*
G75*
G02*
X116921700Y-79017200I42J-240000D01*
G01*
X117281658Y-79777200D02*
G75*
G03*
X117521700Y-79537200I42J240000D01*
G01*
%TO.N,Net-(Q1-S)*%
X135350000Y-62150000D02*
X135350000Y-53501471D01*
X135350000Y-53501471D02*
X121516129Y-39667600D01*
X121516129Y-39667600D02*
X115694400Y-39667600D01*
%TO.N,SPI0_CLK*%
X109200000Y-53400000D02*
X108400000Y-54200000D01*
X103855000Y-81595000D02*
X100800000Y-81595000D01*
X108400000Y-71150000D02*
X105800000Y-73750000D01*
X108400000Y-70750000D02*
X108400000Y-71150000D01*
X108400000Y-54200000D02*
X108400000Y-70750000D01*
D24*
X122200000Y-56800000D02*
X122100000Y-56700000D01*
D20*
X105800000Y-79650000D02*
X103855000Y-81595000D01*
X105800000Y-73750000D02*
X105800000Y-79650000D01*
D24*
X119600000Y-54200000D02*
X122200000Y-56800000D01*
X109200000Y-53400000D02*
X112800000Y-53400000D01*
X112800000Y-53400000D02*
X113600000Y-54200000D01*
X113600000Y-54200000D02*
X119600000Y-54200000D01*
%TO.N,SPI_CS*%
X118600000Y-55600000D02*
X119600000Y-56600000D01*
X109400000Y-55600000D02*
X118600000Y-55600000D01*
D20*
%TO.N,USB2_D+*%
X113565686Y-76750000D02*
X110400000Y-73584314D01*
X113750000Y-60298529D02*
X113750000Y-60200000D01*
X116100000Y-60200000D02*
X117600000Y-58700000D01*
X110400000Y-73584314D02*
X110400000Y-63365686D01*
X112315686Y-61450000D02*
X112598529Y-61450000D01*
X119858058Y-76126256D02*
X119234314Y-76750000D01*
X110400000Y-63365686D02*
X112315686Y-61450000D01*
X119858058Y-75841942D02*
X119858058Y-76126256D01*
X119234314Y-76750000D02*
X113565686Y-76750000D01*
X113750000Y-60200000D02*
X116100000Y-60200000D01*
X112598529Y-61450000D02*
X113750000Y-60298529D01*
%TO.N,USB2_D-*%
X121166942Y-75383058D02*
X119400000Y-77150000D01*
X113400000Y-77150000D02*
X110000000Y-73750000D01*
X119400000Y-77150000D02*
X113400000Y-77150000D01*
X110000000Y-73750000D02*
X110000000Y-63200000D01*
X110000000Y-63200000D02*
X112350000Y-60850000D01*
D24*
%TO.N,SD_CD*%
X129200000Y-49000000D02*
X129600000Y-48600000D01*
X109000000Y-49000000D02*
X129200000Y-49000000D01*
D20*
%TO.N,SPI_BIT3*%
X106350000Y-83600000D02*
X103275000Y-86675000D01*
X103275000Y-86675000D02*
X100800000Y-86675000D01*
X106350000Y-74300000D02*
X106350000Y-83600000D01*
X109400000Y-56800000D02*
X108800000Y-57400000D01*
D24*
X109400000Y-56800000D02*
X118400000Y-56800000D01*
D20*
X108800000Y-71850000D02*
X106350000Y-74300000D01*
X108800000Y-57400000D02*
X108800000Y-71850000D01*
D24*
%TO.N,SPI0_MISO*%
X123400000Y-53700000D02*
X121583884Y-53700000D01*
X121583884Y-53700000D02*
X121058884Y-53175000D01*
X113972792Y-53300000D02*
X113172792Y-52500000D01*
X121058884Y-53175000D02*
X120541116Y-53175000D01*
X120416116Y-53300000D02*
X113972792Y-53300000D01*
X113172792Y-52500000D02*
X111300000Y-52500000D01*
D20*
X104050000Y-73650000D02*
X104050000Y-75805000D01*
X107600000Y-70100000D02*
X104050000Y-73650000D01*
X104050000Y-75805000D02*
X100800000Y-79055000D01*
X109000000Y-50200000D02*
X107600000Y-51600000D01*
X107600000Y-51600000D02*
X107600000Y-70100000D01*
D24*
X111300000Y-52500000D02*
X109000000Y-50200000D01*
X120541116Y-53175000D02*
X120416116Y-53300000D01*
D20*
%TO.N,SPI_BIT2*%
X109400000Y-74050000D02*
X106950000Y-76500000D01*
D24*
X123400000Y-58000000D02*
X124700000Y-56700000D01*
X109400000Y-58000000D02*
X123400000Y-58000000D01*
D20*
X109400000Y-58000000D02*
X109400000Y-74050000D01*
D24*
%TO.N,SPI0_MOSI*%
X110750000Y-52950000D02*
X109000000Y-51200000D01*
D20*
X108000000Y-70600000D02*
X108000000Y-52200000D01*
D24*
X112986396Y-52950000D02*
X110750000Y-52950000D01*
D20*
X104550000Y-76250000D02*
X104550000Y-74050000D01*
D24*
X113786396Y-53750000D02*
X112986396Y-52950000D01*
X120750000Y-53750000D02*
X113786396Y-53750000D01*
D20*
X104550000Y-74050000D02*
X108000000Y-70600000D01*
D24*
X120800000Y-53800000D02*
X120750000Y-53750000D01*
D20*
X102500000Y-78300000D02*
X104550000Y-76250000D01*
X108000000Y-52200000D02*
X109000000Y-51200000D01*
D22*
%TO.N,UART1_TX*%
X119500000Y-60400000D02*
X119500000Y-60800000D01*
X132604266Y-54895734D02*
X130175000Y-57325000D01*
X119900000Y-60000000D02*
X119500000Y-60400000D01*
X132604266Y-52995734D02*
X132604266Y-54895734D01*
X130175000Y-57325000D02*
X126775000Y-57325000D01*
X126775000Y-57325000D02*
X124100000Y-60000000D01*
X124100000Y-60000000D02*
X119900000Y-60000000D01*
%TO.N,UART1_RX*%
X119650000Y-59000000D02*
X118300000Y-60350000D01*
X130400000Y-55000000D02*
X130400000Y-55800000D01*
X130800000Y-54600000D02*
X130400000Y-55000000D01*
X129400000Y-56800000D02*
X125413173Y-56800000D01*
X131800000Y-52900000D02*
X131800000Y-54600000D01*
X125413173Y-56800000D02*
X123213173Y-59000000D01*
X118300000Y-60350000D02*
X118300000Y-60650000D01*
X130400000Y-55800000D02*
X129400000Y-56800000D01*
X123213173Y-59000000D02*
X119650000Y-59000000D01*
X131800000Y-54600000D02*
X130800000Y-54600000D01*
D24*
%TO.N,SCL0*%
X133100000Y-65000000D02*
X133000000Y-65100000D01*
D22*
X126000000Y-61525000D02*
X125900000Y-61425000D01*
X115625000Y-61425000D02*
X115200000Y-61000000D01*
D24*
X128851600Y-65372400D02*
X132727600Y-65372400D01*
X133000000Y-65100000D02*
X133100000Y-65100000D01*
X132727600Y-65372400D02*
X133000000Y-65100000D01*
X133100000Y-65100000D02*
X133100000Y-65000000D01*
D22*
X125900000Y-61425000D02*
X115625000Y-61425000D01*
%TO.N,SDA0*%
X129400000Y-57900000D02*
X134700000Y-63200000D01*
X128850000Y-57900000D02*
X129400000Y-57900000D01*
D24*
X128851600Y-66896400D02*
X132396400Y-66896400D01*
D22*
X133500000Y-68000000D02*
X133200000Y-67700000D01*
X134200000Y-68000000D02*
X133500000Y-68000000D01*
X134700000Y-63200000D02*
X134700000Y-67500000D01*
D24*
X132396400Y-66896400D02*
X133200000Y-67700000D01*
D22*
X134700000Y-67500000D02*
X134200000Y-68000000D01*
D20*
%TO.N,SER_6*%
X112200000Y-89500000D02*
X112200000Y-99245000D01*
X130000000Y-71700000D02*
X112200000Y-89500000D01*
X130000000Y-69000000D02*
X130000000Y-71700000D01*
X112200000Y-99245000D02*
X111600000Y-99845000D01*
%TO.N,GPIO17*%
X138700000Y-73000000D02*
X138600000Y-73100000D01*
X131100000Y-67900000D02*
X131900000Y-68700000D01*
X146975000Y-86540000D02*
X144300000Y-89215000D01*
X139300000Y-73100000D02*
X141025000Y-71375000D01*
X146040686Y-71375000D02*
X146975000Y-72309314D01*
X131900000Y-68700000D02*
X133400000Y-68700000D01*
X138600000Y-73100000D02*
X138800000Y-73100000D01*
X146975000Y-72309314D02*
X146975000Y-86540000D01*
X138800000Y-73100000D02*
X139300000Y-73100000D01*
X141025000Y-71375000D02*
X146040686Y-71375000D01*
D22*
%TO.N,ADC1*%
X113675000Y-72525000D02*
X113675000Y-69317279D01*
X133700000Y-84700000D02*
X134000000Y-84700000D01*
X145850000Y-72855025D02*
X145850000Y-77505000D01*
X145850000Y-77505000D02*
X144300000Y-79055000D01*
X145494975Y-72500000D02*
X145850000Y-72855025D01*
X112000000Y-74200000D02*
X113675000Y-72525000D01*
X135769669Y-82930331D02*
X135769669Y-79235356D01*
X135769669Y-79235356D02*
X142505025Y-72500000D01*
X134000000Y-84700000D02*
X135769669Y-82930331D01*
X113675000Y-69317279D02*
X115730454Y-67261825D01*
X142505025Y-72500000D02*
X145494975Y-72500000D01*
%TO.N,ADC0*%
X145350000Y-72850000D02*
X145500000Y-73000000D01*
X145500000Y-73000000D02*
X145500000Y-75315000D01*
X136119669Y-79380331D02*
X142650000Y-72850000D01*
X136119669Y-84080331D02*
X136119669Y-79380331D01*
X111000000Y-73002522D02*
X111100000Y-73102522D01*
X111000000Y-70500000D02*
X114800000Y-66700000D01*
X142650000Y-72850000D02*
X145350000Y-72850000D01*
X111000000Y-72900000D02*
X111000000Y-73002522D01*
X111000000Y-72900000D02*
X111000000Y-70500000D01*
X145500000Y-75315000D02*
X144300000Y-76515000D01*
X114800000Y-66700000D02*
X114800000Y-66600000D01*
%TO.N,ADC2*%
X133000000Y-85300000D02*
X133000000Y-84586827D01*
X132400000Y-86000000D02*
X132700000Y-86300000D01*
X145639950Y-72150000D02*
X146200000Y-72710050D01*
X134080026Y-84125000D02*
X135400000Y-82805026D01*
X142350000Y-72150000D02*
X145639950Y-72150000D01*
X135400000Y-82805026D02*
X135400000Y-79100000D01*
X132900000Y-86300000D02*
X133300000Y-85900000D01*
X132700000Y-86300000D02*
X132900000Y-86300000D01*
X133461827Y-84125000D02*
X134080026Y-84125000D01*
X135400000Y-79100000D02*
X142350000Y-72150000D01*
X146200000Y-72710050D02*
X146200000Y-79695000D01*
X133300000Y-85900000D02*
X133300000Y-85600000D01*
X146200000Y-79695000D02*
X144300000Y-81595000D01*
X133300000Y-85600000D02*
X133000000Y-85300000D01*
X133000000Y-84586827D02*
X133461827Y-84125000D01*
%TO.N,GPIO15*%
X133800000Y-64400000D02*
X134000000Y-64600000D01*
X134000000Y-64600000D02*
X134000000Y-66500000D01*
X129500000Y-64400000D02*
X133800000Y-64400000D01*
D20*
%TO.N,GPIO16*%
X130948231Y-68796785D02*
X131551446Y-69400000D01*
X145875000Y-71775000D02*
X146575000Y-72475000D01*
X139463172Y-74236828D02*
X141925000Y-71775000D01*
X146575000Y-84400000D02*
X144300000Y-86675000D01*
X141925000Y-71775000D02*
X145875000Y-71775000D01*
X139450000Y-74236828D02*
X139463172Y-74236828D01*
X133200000Y-69400000D02*
X133700000Y-69900000D01*
X146575000Y-72475000D02*
X146575000Y-84400000D01*
X131551446Y-69400000D02*
X133200000Y-69400000D01*
%TO.N,Net-(Q4-S)*%
X134400000Y-54860776D02*
X133179266Y-53640042D01*
X134451471Y-62100000D02*
X134400000Y-62100000D01*
X135400000Y-63048529D02*
X134451471Y-62100000D01*
X134400000Y-62100000D02*
X134400000Y-54860776D01*
X135400000Y-72500000D02*
X135400000Y-63048529D01*
%TO.N,Net-(Q5-S)*%
X125500000Y-62150000D02*
X125250000Y-62150000D01*
D24*
X129750000Y-62150000D02*
X131300000Y-63700000D01*
D20*
X118200001Y-69199999D02*
X116520026Y-69199999D01*
X125250000Y-62150000D02*
X118200001Y-69199999D01*
D24*
X125500000Y-62150000D02*
X129750000Y-62150000D01*
D22*
%TO.N,RP2040_RST*%
X125600000Y-52724998D02*
X122450002Y-49575000D01*
X108425000Y-49238173D02*
X108425000Y-48761827D01*
X111186827Y-46000000D02*
X116900000Y-46000000D01*
X122450002Y-49575000D02*
X108761827Y-49575000D01*
X108761827Y-49575000D02*
X108425000Y-49238173D01*
X108425000Y-48761827D02*
X111186827Y-46000000D01*
%TD*%
M02*
