%TF.GenerationSoftware,KiCad,Pcbnew,8.0.2*%
%TF.CreationDate,2024-08-20T16:45:35-03:00*%
%TF.ProjectId,dough,646f7567-682e-46b6-9963-61645f706362,rev?*%
%TF.SameCoordinates,Original*%
%TF.FileFunction,Copper,L2,Inr*%
%TF.FilePolarity,Positive*%
%FSLAX46Y46*%
G04 Gerber Fmt 4.6, Leading zero omitted, Abs format (unit mm)*
G04 Created by KiCad (PCBNEW 8.0.2) date 2024-08-20 16:45:35*
%MOMM*%
%LPD*%
G01*
G04 APERTURE LIST*
%TA.AperFunction,ComponentPad*%
%ADD10C,1.500000*%
%TD*%
%TA.AperFunction,ComponentPad*%
%ADD11R,1.700000X1.700000*%
%TD*%
%TA.AperFunction,ComponentPad*%
%ADD12O,1.700000X1.700000*%
%TD*%
%TA.AperFunction,ComponentPad*%
%ADD13C,1.498600*%
%TD*%
%TA.AperFunction,ComponentPad*%
%ADD14O,1.550000X0.890000*%
%TD*%
%TA.AperFunction,ComponentPad*%
%ADD15O,0.950000X1.250000*%
%TD*%
%TA.AperFunction,ViaPad*%
%ADD16C,0.600000*%
%TD*%
%TA.AperFunction,ViaPad*%
%ADD17C,1.000000*%
%TD*%
%TA.AperFunction,Conductor*%
%ADD18C,0.250000*%
%TD*%
%TA.AperFunction,Conductor*%
%ADD19C,0.200000*%
%TD*%
%TA.AperFunction,Conductor*%
%ADD20C,0.150000*%
%TD*%
%TA.AperFunction,Conductor*%
%ADD21C,0.500000*%
%TD*%
G04 APERTURE END LIST*
D10*
%TO.N,GND*%
%TO.C,J1*%
X111470000Y-86970200D03*
%TO.N,Net-(D2-K)*%
X108930000Y-86970200D03*
%TD*%
%TO.N,GND*%
%TO.C,J13*%
X105329801Y-96965100D03*
%TO.N,Net-(J13-Pad2)*%
X105329801Y-94425100D03*
%TD*%
D11*
%TO.N,GND*%
%TO.C,J7*%
X126000000Y-104925000D03*
D12*
%TO.N,Net-(J7-Pin_2)*%
X126000000Y-102385000D03*
%TO.N,SER_3*%
X126000000Y-99845000D03*
%TD*%
D11*
%TO.N,GND*%
%TO.C,J6*%
X130650000Y-104925000D03*
D12*
%TO.N,Net-(J6-Pin_2)*%
X130650000Y-102385000D03*
%TO.N,SER_2*%
X130650000Y-99845000D03*
%TD*%
D11*
%TO.N,GND*%
%TO.C,J12*%
X100800000Y-73975000D03*
D12*
%TO.N,SPI_BIT2*%
X100800000Y-76515000D03*
%TO.N,SPI0_MISO*%
X100800000Y-79055000D03*
%TO.N,SPI0_CLK*%
X100800000Y-81595000D03*
%TO.N,SPI0_MOSI*%
X100800000Y-84135000D03*
%TO.N,SPI_BIT3*%
X100800000Y-86675000D03*
%TO.N,SPI0_CS2*%
X100800000Y-89215000D03*
%TO.N,GPIO6_esp*%
X100800000Y-91755000D03*
%TO.N,CANH*%
X100800000Y-94295000D03*
%TO.N,CANL*%
X100800000Y-96835000D03*
%TD*%
D11*
%TO.N,GND*%
%TO.C,J4*%
X111600000Y-104925000D03*
D12*
%TO.N,Net-(J4-Pin_2)*%
X111600000Y-102385000D03*
%TO.N,SER_6*%
X111600000Y-99845000D03*
%TD*%
D11*
%TO.N,GND*%
%TO.C,J9*%
X116700000Y-104925000D03*
D12*
%TO.N,Net-(J9-Pin_2)*%
X116700000Y-102385000D03*
%TO.N,SER_5*%
X116700000Y-99845000D03*
%TD*%
D13*
%TO.N,GND*%
%TO.C,U11*%
X136308000Y-43271100D03*
%TO.N,UART1_RX*%
X136308000Y-45760300D03*
%TO.N,UART1_TX*%
X136308000Y-48249500D03*
%TO.N,+3V3*%
X136308000Y-50738700D03*
%TD*%
D11*
%TO.N,GND*%
%TO.C,J8*%
X121350000Y-104925000D03*
D12*
%TO.N,Net-(J8-Pin_2)*%
X121350000Y-102385000D03*
%TO.N,SER_4*%
X121350000Y-99845000D03*
%TD*%
D11*
%TO.N,GND*%
%TO.C,J5*%
X135300000Y-104925000D03*
D12*
%TO.N,Net-(J5-Pin_2)*%
X135300000Y-102385000D03*
%TO.N,SER_1*%
X135300000Y-99845000D03*
%TD*%
D14*
%TO.N,GND*%
%TO.C,J10*%
X145300000Y-69400000D03*
D15*
X142600000Y-68400000D03*
X142600000Y-63400000D03*
D14*
X145300000Y-62400000D03*
%TD*%
D11*
%TO.N,GND*%
%TO.C,J2*%
X140300000Y-83325000D03*
D12*
%TO.N,+3V3*%
X140300000Y-85865000D03*
%TO.N,SDA0*%
X140300000Y-88405000D03*
%TO.N,SCL0*%
X140300000Y-90945000D03*
%TO.N,+5V*%
X140300000Y-93485000D03*
%TD*%
D11*
%TO.N,GND*%
%TO.C,J11*%
X144300000Y-73975000D03*
D12*
%TO.N,ADC0*%
X144300000Y-76515000D03*
%TO.N,ADC1*%
X144300000Y-79055000D03*
%TO.N,unconnected-(J11-Pin_4-Pad4)*%
X144300000Y-81595000D03*
%TO.N,GPIO15*%
X144300000Y-84135000D03*
%TO.N,GPIO16*%
X144300000Y-86675000D03*
%TO.N,GPIO17*%
X144300000Y-89215000D03*
%TO.N,GPIO18*%
X144300000Y-91755000D03*
%TO.N,+5V*%
X144300000Y-94295000D03*
%TO.N,+3V3*%
X144300000Y-96835000D03*
%TD*%
D14*
%TO.N,GND*%
%TO.C,J3*%
X100300000Y-62400000D03*
D15*
X103000000Y-63400000D03*
X103000000Y-68400000D03*
D14*
X100300000Y-69400000D03*
%TD*%
D16*
%TO.N,SDA1*%
X124700000Y-71966929D03*
%TO.N,GND*%
X116421402Y-71291772D03*
X116550000Y-62150000D03*
X113975000Y-75850000D03*
X132900000Y-57500000D03*
X126617013Y-72638443D03*
X114600000Y-85100000D03*
X123200000Y-77200000D03*
D17*
X119500000Y-96100000D03*
D16*
X117400000Y-47200000D03*
X120461965Y-67838035D03*
X123300000Y-79600000D03*
%TO.N,+5V*%
X133700000Y-88400000D03*
X134125000Y-63700000D03*
X130600000Y-57200000D03*
D17*
X108100000Y-103000000D03*
D16*
X119900000Y-92900000D03*
X103400000Y-101500000D03*
X112900000Y-86100000D03*
%TO.N,+3V3*%
X128225000Y-70009880D03*
X120500000Y-82187200D03*
X116500000Y-63300000D03*
X117900000Y-67201200D03*
X131774999Y-62988172D03*
X115500000Y-71600000D03*
X115592800Y-38448400D03*
X119458578Y-70458578D03*
D17*
X133300000Y-80200000D03*
D16*
X123459135Y-72957600D03*
X121725735Y-64825735D03*
%TO.N,+1V1*%
X125737734Y-64150548D03*
X122196800Y-70046000D03*
%TO.N,ADC3*%
X113400000Y-75100000D03*
%TO.N,ADC_VREF*%
X117269200Y-68064800D03*
%TO.N,SDA1*%
X119780535Y-62000000D03*
X125840760Y-70800389D03*
X112829492Y-48147232D03*
X130700000Y-73602000D03*
X135200000Y-73602000D03*
X118800000Y-73572647D03*
X112800000Y-50552258D03*
X124671050Y-66301200D03*
%TO.N,SCL1*%
X129600000Y-74400000D03*
X116932842Y-74900000D03*
X117793413Y-61906587D03*
X124638388Y-72764554D03*
X123900000Y-69500000D03*
%TO.N,SER_1*%
X125596244Y-67700748D03*
X129600000Y-38800000D03*
%TO.N,SER_2*%
X133600000Y-41500000D03*
X129300000Y-85300000D03*
X125650000Y-73450000D03*
%TO.N,SER_3*%
X122900000Y-57300000D03*
X122800000Y-63900000D03*
X124543413Y-68656587D03*
%TO.N,SER_4*%
X128700000Y-52800000D03*
X131200000Y-55300000D03*
X131813515Y-71600588D03*
%TO.N,SWCLK*%
X125471224Y-63200000D03*
%TO.N,SWD*%
X124105362Y-65169830D03*
%TO.N,SER_5*%
X131424265Y-70375735D03*
%TO.N,LED_R*%
X111500000Y-60000000D03*
X99200000Y-54100000D03*
%TO.N,LED_G*%
X113900000Y-64200000D03*
X98700000Y-56400000D03*
X119703476Y-63792318D03*
%TO.N,LED_B*%
X111600000Y-63700000D03*
X100700000Y-60600000D03*
%TO.N,BMI_INT2*%
X127700000Y-75548528D03*
%TO.N,BMI_INT1*%
X130900000Y-76354844D03*
%TO.N,Net-(U2-XIN)*%
X126700000Y-63500000D03*
%TO.N,USB1_D-*%
X105600000Y-64500000D03*
X120900000Y-76900000D03*
%TO.N,USB1_D+*%
X120774400Y-77767600D03*
X105000000Y-65900000D03*
%TO.N,Net-(U8-SDO)*%
X130934400Y-72586000D03*
%TO.N,Net-(D4-A)*%
X143900000Y-67200000D03*
%TO.N,Net-(D8-A)*%
X105000000Y-68900000D03*
%TO.N,ESP32_RST*%
X106123058Y-42023058D03*
X127786135Y-65321684D03*
%TO.N,Net-(D9-A)*%
X137000000Y-67200000D03*
%TO.N,Net-(Q1-S)*%
X135350000Y-62150000D03*
X115694400Y-39667600D03*
%TO.N,SPI0_CLK*%
X122200000Y-56800000D03*
X109200000Y-53400000D03*
%TO.N,Net-(D6-A)*%
X104300000Y-63800000D03*
%TO.N,SPI_CS*%
X120395248Y-56147520D03*
X109400000Y-55600000D03*
%TO.N,USB2_D+*%
X117400000Y-58700000D03*
X118900000Y-77400000D03*
X113500000Y-60200000D03*
%TO.N,USB2_D-*%
X121354235Y-75570351D03*
X117324265Y-59824265D03*
X112350000Y-60850000D03*
%TO.N,SD_CD*%
X129600000Y-48600000D03*
X109000000Y-49000000D03*
%TO.N,SPI_BIT3*%
X109400000Y-56800000D03*
X119800000Y-56800000D03*
%TO.N,SPI0_MISO*%
X123400000Y-53500000D03*
X109000000Y-50200000D03*
%TO.N,SPI_BIT2*%
X106025000Y-77206340D03*
X123800000Y-57283884D03*
X109400000Y-58000000D03*
%TO.N,SPI0_MOSI*%
X102500000Y-78300000D03*
X120800000Y-53800000D03*
X109000000Y-51200000D03*
%TO.N,UART1_TX*%
X120725000Y-59700000D03*
X133250000Y-52550000D03*
%TO.N,UART1_RX*%
X120130535Y-60300000D03*
X130100000Y-50200000D03*
%TO.N,SCL0*%
X132925000Y-65900000D03*
X125825000Y-61425000D03*
X128851600Y-65372400D03*
X115700000Y-60800000D03*
%TO.N,SDA0*%
X128851600Y-66896400D03*
X133200000Y-67700000D03*
X131800000Y-57900000D03*
%TO.N,Net-(R18-Pad1)*%
X111400000Y-69100000D03*
%TO.N,/RP2040 section/QSPI_SS*%
X113092893Y-70107107D03*
X124889200Y-82136400D03*
X122300000Y-72450000D03*
%TO.N,Net-(U2-USB_DM)*%
X118601142Y-71682742D03*
%TO.N,Net-(U2-USB_DP)*%
X119127135Y-72675665D03*
%TO.N,SER_6*%
X130208598Y-69119724D03*
%TO.N,Net-(D7-A)*%
X131900000Y-57000000D03*
%TO.N,BUZZER*%
X127200000Y-53400000D03*
X115500000Y-65100000D03*
%TO.N,GPIO17*%
X133400000Y-68700000D03*
X138000000Y-72800000D03*
X131100000Y-67900000D03*
%TO.N,ADC1*%
X115600000Y-67200000D03*
X112225000Y-74375000D03*
X134000000Y-84700000D03*
X124600000Y-85100000D03*
%TO.N,GPIO18*%
X132548703Y-63900000D03*
X122000000Y-60700000D03*
%TO.N,ADC0*%
X122800000Y-85100000D03*
X111575735Y-72824265D03*
X114800000Y-66600000D03*
X135900000Y-84100000D03*
%TO.N,ADC2*%
X111900000Y-73600000D03*
X123700000Y-85500000D03*
%TO.N,GPIO15*%
X133471424Y-64161348D03*
X127432412Y-64500000D03*
%TO.N,GPIO16*%
X130948231Y-68796785D03*
X133800000Y-72500000D03*
X139450000Y-74236828D03*
%TO.N,Net-(Q4-S)*%
X135100000Y-72800000D03*
X133179266Y-53640042D03*
%TO.N,GPIO6_esp*%
X110800000Y-72600000D03*
%TO.N,SPI0_CS2*%
X117300000Y-52200000D03*
X106200000Y-70500000D03*
X114000000Y-62900000D03*
%TO.N,GPIO5_esp*%
X110343413Y-75256587D03*
X111200000Y-77600000D03*
%TO.N,GPIO4_esp*%
X109400000Y-75000000D03*
X109000000Y-79700000D03*
%TO.N,ESP32_BOOT*%
X136150000Y-60200000D03*
%TO.N,Net-(Q5-S)*%
X119674265Y-85374265D03*
X129600000Y-63500000D03*
X125100000Y-62400000D03*
X116520026Y-69199999D03*
%TO.N,RP2040_RST*%
X129500000Y-52500000D03*
X116900000Y-46000000D03*
%TO.N,Net-(U9-IO20)*%
X113800000Y-54975000D03*
%TO.N,Net-(U9-IO19)*%
X115350000Y-52400000D03*
%TO.N,BUTTONS*%
X108100000Y-73500000D03*
%TO.N,Net-(U8-CSB)*%
X128900000Y-74900000D03*
%TO.N,GPIO18*%
X133059135Y-65100000D03*
%TD*%
D18*
%TO.N,GND*%
X117008228Y-71291772D02*
X120461965Y-67838035D01*
X116421402Y-71291772D02*
X117008228Y-71291772D01*
D19*
%TO.N,/RP2040 section/QSPI_SS*%
X122300000Y-72450000D02*
X122250000Y-72450000D01*
X122250000Y-72450000D02*
X119800000Y-74900000D01*
D18*
%TO.N,+3V3*%
X121339378Y-70458578D02*
X119458578Y-70458578D01*
X123459135Y-72578335D02*
X121339378Y-70458578D01*
X123459135Y-72957600D02*
X123459135Y-72578335D01*
D19*
%TO.N,SER_3*%
X124800000Y-79298960D02*
X126000000Y-80498960D01*
X125300000Y-72951471D02*
X124800000Y-73451471D01*
X124600000Y-70550000D02*
X125300000Y-71250000D01*
X124600000Y-68713174D02*
X124600000Y-70550000D01*
X124543413Y-68656587D02*
X124600000Y-68713174D01*
X125300000Y-71250000D02*
X125300000Y-72951471D01*
X124800000Y-73451471D02*
X124800000Y-79298960D01*
X126000000Y-80498960D02*
X126000000Y-99845000D01*
%TO.N,SCL0*%
X141500000Y-89745000D02*
X140300000Y-90945000D01*
X141500000Y-74800000D02*
X141500000Y-89745000D01*
X133800000Y-67100000D02*
X141500000Y-74800000D01*
X133751471Y-67100000D02*
X133800000Y-67100000D01*
X132925000Y-66273529D02*
X133751471Y-67100000D01*
X132925000Y-65900000D02*
X132925000Y-66273529D01*
D20*
%TO.N,GPIO18*%
X132548703Y-64589568D02*
X132548703Y-63900000D01*
X133059135Y-65100000D02*
X132548703Y-64589568D01*
%TO.N,ADC1*%
X122600000Y-83100000D02*
X124600000Y-85100000D01*
X112225000Y-74375000D02*
X112225000Y-75328201D01*
X112225000Y-75328201D02*
X119996799Y-83100000D01*
X119996799Y-83100000D02*
X122600000Y-83100000D01*
%TO.N,ADC2*%
X119901824Y-83500000D02*
X122213173Y-83500000D01*
X111475000Y-74025000D02*
X111475000Y-75073176D01*
X111475000Y-75073176D02*
X119901824Y-83500000D01*
X122213173Y-83500000D02*
X123700000Y-84986827D01*
X123700000Y-84986827D02*
X123700000Y-85500000D01*
X111900000Y-73600000D02*
X111475000Y-74025000D01*
D18*
%TO.N,GND*%
X120461965Y-66727651D02*
X117300000Y-63565686D01*
X117300000Y-63565686D02*
X117300000Y-62483884D01*
X116966116Y-62150000D02*
X116550000Y-62150000D01*
X117300000Y-62483884D02*
X116966116Y-62150000D01*
X120461965Y-67838035D02*
X120461965Y-66727651D01*
D21*
%TO.N,+3V3*%
X131725000Y-62938173D02*
X131725000Y-59975000D01*
X131774999Y-62988172D02*
X131725000Y-62938173D01*
D18*
X117100000Y-72300000D02*
X116000000Y-72300000D01*
D21*
X136308000Y-55392000D02*
X136308000Y-50738700D01*
D18*
X118941422Y-70458578D02*
X117100000Y-72300000D01*
X116000000Y-72300000D02*
X115500000Y-71800000D01*
D21*
X131725000Y-59975000D02*
X136308000Y-55392000D01*
D18*
X119458578Y-70458578D02*
X118941422Y-70458578D01*
D20*
X115500000Y-71800000D02*
X115500000Y-71600000D01*
%TO.N,SDA1*%
X124671050Y-66301200D02*
X124081735Y-66301200D01*
X112731587Y-48168413D02*
X112731587Y-50631587D01*
D18*
X135200000Y-73602000D02*
X130700000Y-73602000D01*
D20*
X112800000Y-48100000D02*
X112731587Y-48168413D01*
X124081735Y-66301200D02*
X119780535Y-62000000D01*
%TO.N,SCL1*%
X123800000Y-69500000D02*
X117793413Y-63493413D01*
D19*
X129600000Y-74400000D02*
X129600000Y-74200001D01*
D20*
X117793413Y-63493413D02*
X117793413Y-61906587D01*
X123900000Y-69500000D02*
X123800000Y-69500000D01*
%TO.N,SER_1*%
X130175000Y-49000000D02*
X130175000Y-39375000D01*
D19*
X127200000Y-67200000D02*
X126096992Y-67200000D01*
X130100000Y-74000000D02*
X135300000Y-79200000D01*
D20*
X130175000Y-39375000D02*
X129600000Y-38800000D01*
X127350000Y-67050000D02*
X127450000Y-66950000D01*
X129500000Y-51025000D02*
X129500000Y-49675000D01*
D19*
X126096992Y-67200000D02*
X125596244Y-67700748D01*
D20*
X129700000Y-57175000D02*
X130175000Y-56700000D01*
X127200000Y-67200000D02*
X127450000Y-66950000D01*
X130200000Y-64900000D02*
X130200000Y-59200000D01*
X130200000Y-59200000D02*
X129700000Y-58700000D01*
D19*
X130100000Y-73500000D02*
X130100000Y-74000000D01*
X127350000Y-67350000D02*
X129300000Y-69300000D01*
X129300000Y-69300000D02*
X129300000Y-72700000D01*
X127200000Y-67200000D02*
X127350000Y-67350000D01*
D20*
X129700000Y-58700000D02*
X129700000Y-57175000D01*
X127350000Y-67350000D02*
X127350000Y-67050000D01*
D19*
X129300000Y-72700000D02*
X130100000Y-73500000D01*
D20*
X127450000Y-66950000D02*
X128276600Y-66123400D01*
X128976600Y-66123400D02*
X130200000Y-64900000D01*
X130175000Y-56700000D02*
X130175000Y-51700000D01*
X129500000Y-49675000D02*
X130175000Y-49000000D01*
D19*
X135300000Y-79200000D02*
X135300000Y-99845000D01*
D20*
X130175000Y-51700000D02*
X129500000Y-51025000D01*
X128276600Y-66123400D02*
X128976600Y-66123400D01*
D19*
%TO.N,SER_2*%
X126450001Y-73450000D02*
X129300000Y-76299999D01*
X129300000Y-98495000D02*
X130650000Y-99845000D01*
X129300000Y-76299999D02*
X129300000Y-85300000D01*
X129300000Y-85300000D02*
X129300000Y-98495000D01*
X125650000Y-73450000D02*
X126450001Y-73450000D01*
%TO.N,SER_3*%
X123684061Y-63900000D02*
X125600000Y-65815939D01*
X122800000Y-63900000D02*
X123684061Y-63900000D01*
X124543413Y-67905050D02*
X124543413Y-68656587D01*
X125600000Y-66848463D02*
X124543413Y-67905050D01*
X125600000Y-65815939D02*
X125600000Y-66848463D01*
D20*
%TO.N,SER_4*%
X131200000Y-63342462D02*
X132000000Y-64142462D01*
X132000000Y-64142462D02*
X132000000Y-71414103D01*
X132000000Y-71414103D02*
X131813515Y-71600588D01*
X131200000Y-55300000D02*
X131200000Y-63342462D01*
D19*
%TO.N,LED_R*%
X105100000Y-60000000D02*
X99200000Y-54100000D01*
X111500000Y-60000000D02*
X105100000Y-60000000D01*
D18*
%TO.N,LED_G*%
X113900000Y-64200000D02*
X113300000Y-64200000D01*
X102900000Y-60600000D02*
X98700000Y-56400000D01*
X109700000Y-60600000D02*
X102900000Y-60600000D01*
X113300000Y-64200000D02*
X109700000Y-60600000D01*
D19*
%TO.N,LED_B*%
X109300000Y-61400000D02*
X101500000Y-61400000D01*
X101500000Y-61400000D02*
X100700000Y-60600000D01*
X111600000Y-63700000D02*
X109300000Y-61400000D01*
%TO.N,USB1_D-*%
X120525871Y-77167600D02*
X119393471Y-78300000D01*
X120632400Y-77167600D02*
X120525871Y-77167600D01*
X106400000Y-64800000D02*
X106100000Y-64500000D01*
X106100000Y-64500000D02*
X105600000Y-64500000D01*
X112575735Y-72410050D02*
X106400000Y-66234315D01*
X118165686Y-78300000D02*
X112575735Y-72710049D01*
X120900000Y-76900000D02*
X120632400Y-77167600D01*
X119393471Y-78300000D02*
X118165686Y-78300000D01*
X112575735Y-72710049D02*
X112575735Y-72410050D01*
X106400000Y-66234315D02*
X106400000Y-64800000D01*
%TO.N,USB1_D+*%
X112175735Y-72575736D02*
X112175735Y-72875735D01*
X119842000Y-78700000D02*
X120774400Y-77767600D01*
X118000000Y-78700000D02*
X119842000Y-78700000D01*
X105000000Y-65900000D02*
X105499999Y-65900000D01*
X112175735Y-72875735D02*
X118000000Y-78700000D01*
X105499999Y-65900000D02*
X112175735Y-72575736D01*
D20*
%TO.N,ESP32_RST*%
X127786135Y-65321684D02*
X128100000Y-65007819D01*
X128100000Y-65007819D02*
X128100000Y-57611540D01*
X129425000Y-56286540D02*
X129425000Y-54525000D01*
X129425000Y-54525000D02*
X123086827Y-48186827D01*
X113736231Y-42023058D02*
X106123058Y-42023058D01*
X123086827Y-48186827D02*
X119900000Y-48186827D01*
X128100000Y-57611540D02*
X129425000Y-56286540D01*
X119900000Y-48186827D02*
X113736231Y-42023058D01*
D19*
%TO.N,SPI0_MOSI*%
X102200000Y-78600000D02*
X102200000Y-82735000D01*
X102200000Y-82735000D02*
X100800000Y-84135000D01*
X102500000Y-78300000D02*
X102200000Y-78600000D01*
%TO.N,SDA0*%
X137000000Y-71200000D02*
X137000000Y-85105000D01*
X137000000Y-85105000D02*
X140300000Y-88405000D01*
X133500000Y-67700000D02*
X137000000Y-71200000D01*
X133200000Y-67700000D02*
X133500000Y-67700000D01*
%TO.N,/RP2040 section/QSPI_SS*%
X116400000Y-75500000D02*
X119200000Y-75500000D01*
X113092893Y-70107107D02*
X113400000Y-70414214D01*
D18*
X124889200Y-82136400D02*
X124889200Y-80189200D01*
X124889200Y-80189200D02*
X121525000Y-76825000D01*
D19*
X113400000Y-70414214D02*
X113400000Y-72500000D01*
D18*
X121525000Y-76625000D02*
X119800000Y-74900000D01*
D19*
X119200000Y-75500000D02*
X119800000Y-74900000D01*
D18*
X121525000Y-76825000D02*
X121525000Y-76625000D01*
D19*
X113400000Y-72500000D02*
X116400000Y-75500000D01*
D18*
%TO.N,BUZZER*%
X114900000Y-62636396D02*
X117074569Y-60461827D01*
X123951633Y-56048367D02*
X126600000Y-53400000D01*
X115500000Y-65100000D02*
X115200000Y-65100000D01*
X117074569Y-60461827D02*
X117604289Y-60461827D01*
X115200000Y-65100000D02*
X114900000Y-64800000D01*
X117604289Y-60461827D02*
X122017749Y-56048367D01*
X122017749Y-56048367D02*
X123951633Y-56048367D01*
X126600000Y-53400000D02*
X127200000Y-53400000D01*
X114900000Y-64800000D02*
X114900000Y-62636396D01*
D20*
%TO.N,ADC0*%
X117406849Y-81500000D02*
X119906849Y-84000000D01*
X111575735Y-72824265D02*
X110725000Y-73675000D01*
X110725000Y-73675000D02*
X110725000Y-74825000D01*
X110725000Y-74825000D02*
X117400000Y-81500000D01*
X117400000Y-81500000D02*
X117406849Y-81500000D01*
X121700000Y-84000000D02*
X122800000Y-85100000D01*
X119906849Y-84000000D02*
X121700000Y-84000000D01*
%TO.N,GPIO15*%
X133634135Y-64324059D02*
X133634135Y-66034135D01*
X146000000Y-82435000D02*
X144300000Y-84135000D01*
X133471424Y-64161348D02*
X133634135Y-64324059D01*
X145200000Y-75200000D02*
X146000000Y-76000000D01*
X146000000Y-76000000D02*
X146000000Y-82435000D01*
X133634135Y-66034135D02*
X142800000Y-75200000D01*
X142800000Y-75200000D02*
X145200000Y-75200000D01*
D18*
%TO.N,GPIO6_esp*%
X100800000Y-91755000D02*
X104100000Y-88455000D01*
X110800000Y-72200000D02*
X110800000Y-72600000D01*
X104100000Y-75600000D02*
X108100000Y-71600000D01*
X110200000Y-71600000D02*
X110800000Y-72200000D01*
X108100000Y-71600000D02*
X110200000Y-71600000D01*
X104100000Y-88455000D02*
X104100000Y-75600000D01*
%TO.N,SPI0_CS2*%
X114575000Y-62325000D02*
X114575000Y-54825000D01*
X114575000Y-54825000D02*
X117200000Y-52200000D01*
X103400000Y-73300000D02*
X103400000Y-86615000D01*
X106200000Y-70500000D02*
X103400000Y-73300000D01*
X117200000Y-52200000D02*
X117300000Y-52200000D01*
X114000000Y-62900000D02*
X114575000Y-62325000D01*
X106200000Y-70500000D02*
X106000000Y-70500000D01*
X103400000Y-86615000D02*
X100800000Y-89215000D01*
D19*
%TO.N,GPIO5_esp*%
X110343413Y-76743413D02*
X111200000Y-77600000D01*
X110343413Y-75256587D02*
X110343413Y-76743413D01*
D18*
%TO.N,GPIO4_esp*%
X109000000Y-76100000D02*
X109000000Y-79700000D01*
X109400000Y-75000000D02*
X109400000Y-75700000D01*
X109400000Y-75700000D02*
X109000000Y-76100000D01*
%TO.N,CANL*%
X100800000Y-96500000D02*
X100800000Y-96835000D01*
%TD*%
M02*
