%TF.GenerationSoftware,KiCad,Pcbnew,8.0.2*%
%TF.CreationDate,2024-06-02T11:57:14-03:00*%
%TF.ProjectId,dough,646f7567-682e-46b6-9963-61645f706362,rev?*%
%TF.SameCoordinates,Original*%
%TF.FileFunction,Legend,Top*%
%TF.FilePolarity,Positive*%
%FSLAX46Y46*%
G04 Gerber Fmt 4.6, Leading zero omitted, Abs format (unit mm)*
G04 Created by KiCad (PCBNEW 8.0.2) date 2024-06-02 11:57:14*
%MOMM*%
%LPD*%
G01*
G04 APERTURE LIST*
%ADD10C,0.100000*%
%ADD11C,0.300000*%
%ADD12C,0.150000*%
%ADD13C,0.152400*%
%ADD14C,0.508000*%
%ADD15C,0.120000*%
%ADD16C,0.000000*%
G04 APERTURE END LIST*
D10*
G36*
X129697487Y-88565024D02*
G01*
X129689142Y-88676679D01*
X129668706Y-88774578D01*
X129636008Y-88874504D01*
X129591048Y-88976456D01*
X129544215Y-89062964D01*
X129523098Y-89097962D01*
X129462075Y-89188042D01*
X129394535Y-89272901D01*
X129320476Y-89352539D01*
X129239898Y-89426957D01*
X129152803Y-89496154D01*
X129059189Y-89560130D01*
X128959057Y-89618886D01*
X128852407Y-89672421D01*
X128750214Y-89716385D01*
X128646113Y-89754487D01*
X128540104Y-89786727D01*
X128432187Y-89813105D01*
X128322362Y-89833621D01*
X128210628Y-89848276D01*
X128096987Y-89857069D01*
X127981437Y-89860000D01*
X127528122Y-89860000D01*
X128025401Y-88453161D01*
X128521214Y-88453161D01*
X128099651Y-89641158D01*
X128200962Y-89635285D01*
X128301929Y-89617665D01*
X128402554Y-89588298D01*
X128502834Y-89547185D01*
X128602772Y-89494326D01*
X128636008Y-89474096D01*
X128730776Y-89408499D01*
X128815412Y-89337373D01*
X128889915Y-89260717D01*
X128954287Y-89178531D01*
X129008526Y-89090816D01*
X129024354Y-89060348D01*
X129067180Y-88968896D01*
X129103244Y-88872794D01*
X129127394Y-88775409D01*
X129134263Y-88698381D01*
X129127952Y-88600731D01*
X129105283Y-88504873D01*
X129060075Y-88417104D01*
X129002372Y-88356929D01*
X128916181Y-88308758D01*
X128817563Y-88280658D01*
X128713165Y-88267812D01*
X128639916Y-88265582D01*
X127311235Y-88265582D01*
X127522749Y-87921688D01*
X128852407Y-87921688D01*
X128957365Y-87925254D01*
X129056693Y-87935952D01*
X129168457Y-87958203D01*
X129272115Y-87990723D01*
X129367668Y-88033513D01*
X129426866Y-88067745D01*
X129518835Y-88137618D01*
X129591776Y-88218275D01*
X129645689Y-88309718D01*
X129680573Y-88411945D01*
X129696430Y-88524957D01*
X129697487Y-88565024D01*
G37*
G36*
X132029732Y-89017850D02*
G01*
X131950490Y-89092863D01*
X131850923Y-89130477D01*
X131741311Y-89140949D01*
X130881088Y-89140949D01*
X130941934Y-89220339D01*
X130955338Y-89253789D01*
X130978439Y-89351813D01*
X130978785Y-89395938D01*
X130962620Y-89493277D01*
X130924968Y-89592730D01*
X130866861Y-89679604D01*
X130788299Y-89753900D01*
X130777041Y-89762302D01*
X130683129Y-89818173D01*
X130590338Y-89854137D01*
X130487636Y-89878039D01*
X130375023Y-89889880D01*
X130323726Y-89891263D01*
X130226026Y-89888875D01*
X130118453Y-89877289D01*
X130021423Y-89856188D01*
X129921550Y-89819547D01*
X129836028Y-89769955D01*
X129824982Y-89761814D01*
X129749892Y-89690072D01*
X129695281Y-89596764D01*
X129684544Y-89552254D01*
X130125401Y-89552254D01*
X130173701Y-89638507D01*
X130270515Y-89668196D01*
X130345219Y-89672421D01*
X130390648Y-89670956D01*
X130573342Y-89140949D01*
X130258757Y-89140949D01*
X130135170Y-89499009D01*
X130125401Y-89552254D01*
X129684544Y-89552254D01*
X129672071Y-89500550D01*
X129669644Y-89454068D01*
X129676482Y-89378841D01*
X129702739Y-89279434D01*
X129745847Y-89191263D01*
X129814489Y-89105499D01*
X129882623Y-89048625D01*
X129967708Y-88999327D01*
X130064386Y-88962138D01*
X130172658Y-88937057D01*
X130274690Y-88925196D01*
X130366224Y-88922107D01*
X132071039Y-88922107D01*
X132029732Y-89017850D01*
G37*
G36*
X133181367Y-89641158D02*
G01*
X133139214Y-89735490D01*
X133066793Y-89805993D01*
X133054849Y-89813593D01*
X132960333Y-89852341D01*
X132891695Y-89860000D01*
X132317236Y-89860000D01*
X132219713Y-89849799D01*
X132135193Y-89799046D01*
X132115491Y-89731039D01*
X132041236Y-89799046D01*
X131952192Y-89841864D01*
X131848360Y-89859496D01*
X131825819Y-89860000D01*
X131584019Y-89860000D01*
X131484979Y-89845589D01*
X131410607Y-89802358D01*
X131359776Y-89716897D01*
X131352965Y-89660209D01*
X131370844Y-89561380D01*
X131372016Y-89558115D01*
X131603070Y-88922107D01*
X132101814Y-88922107D01*
X131844870Y-89641158D01*
X132123796Y-89641158D01*
X132379274Y-88922107D01*
X132872156Y-88922107D01*
X132622540Y-89641158D01*
X133181367Y-89641158D01*
G37*
G36*
X134366434Y-89641158D02*
G01*
X134949197Y-89641158D01*
X134900074Y-89736901D01*
X134815718Y-89805289D01*
X134713006Y-89842689D01*
X134603497Y-89858076D01*
X134541311Y-89860000D01*
X134296580Y-89860000D01*
X134258441Y-89957992D01*
X134212737Y-90063872D01*
X134167102Y-90156974D01*
X134113948Y-90249445D01*
X134053314Y-90333831D01*
X133983487Y-90406542D01*
X133893601Y-90472359D01*
X133794646Y-90517700D01*
X133686621Y-90542564D01*
X133603907Y-90547787D01*
X133505508Y-90537917D01*
X133408269Y-90500801D01*
X133358688Y-90464256D01*
X133299544Y-90386062D01*
X133270552Y-90286423D01*
X133267341Y-90233203D01*
X133269264Y-90201451D01*
X133557501Y-90201451D01*
X133585055Y-90297762D01*
X133635659Y-90348974D01*
X133801744Y-89891263D01*
X133704887Y-89924029D01*
X133634682Y-89994822D01*
X133584710Y-90078883D01*
X133558707Y-90175676D01*
X133557501Y-90201451D01*
X133269264Y-90201451D01*
X133273472Y-90131972D01*
X133296122Y-90032101D01*
X133342444Y-89942006D01*
X133420613Y-89871303D01*
X133441730Y-89860000D01*
X133344367Y-89825079D01*
X133261838Y-89770326D01*
X133228750Y-89738367D01*
X133169514Y-89654950D01*
X133137617Y-89559306D01*
X133137346Y-89556161D01*
X133631263Y-89556161D01*
X133673883Y-89645554D01*
X133771277Y-89674304D01*
X133801744Y-89675352D01*
X133833496Y-89673886D01*
X133866224Y-89672421D01*
X134043545Y-89140949D01*
X133750942Y-89140949D01*
X133641032Y-89497055D01*
X133631263Y-89556161D01*
X133137346Y-89556161D01*
X133131542Y-89488750D01*
X133144409Y-89388132D01*
X133149616Y-89368583D01*
X133182063Y-89274513D01*
X133235804Y-89179998D01*
X133307314Y-89099345D01*
X133396592Y-89032552D01*
X133409002Y-89025177D01*
X133501386Y-88980084D01*
X133602686Y-88947875D01*
X133712901Y-88928549D01*
X133816651Y-88922208D01*
X133832030Y-88922107D01*
X134618004Y-88922107D01*
X134366434Y-89641158D01*
G37*
G36*
X136802023Y-89641158D02*
G01*
X136755300Y-89734337D01*
X136677536Y-89803579D01*
X136649616Y-89818967D01*
X136556898Y-89850984D01*
X136469364Y-89860000D01*
X135884159Y-89860000D01*
X135783583Y-89841376D01*
X135728972Y-89754102D01*
X135728820Y-89747159D01*
X135746852Y-89647983D01*
X135749337Y-89640181D01*
X135848499Y-89359790D01*
X135327773Y-89778422D01*
X135241420Y-89834188D01*
X135144126Y-89859283D01*
X135124075Y-89860000D01*
X134841242Y-89860000D01*
X135429378Y-88203056D01*
X135923726Y-88203056D01*
X135510467Y-89343182D01*
X135929588Y-89017362D01*
X136013394Y-88962010D01*
X136114171Y-88918643D01*
X136209525Y-88896898D01*
X136297418Y-88890844D01*
X136391585Y-88919081D01*
X136433960Y-89012003D01*
X136435170Y-89038367D01*
X136418724Y-89136003D01*
X136410258Y-89161465D01*
X136235868Y-89641158D01*
X136802023Y-89641158D01*
G37*
G36*
X128567585Y-90414717D02*
G01*
X128562285Y-90466078D01*
X128547209Y-90515198D01*
X128522357Y-90562077D01*
X128504326Y-90587152D01*
X128062491Y-91126685D01*
X128028178Y-91161796D01*
X127986151Y-91193577D01*
X127941972Y-91215471D01*
X127888849Y-91228385D01*
X127861235Y-91230000D01*
X127685380Y-91230000D01*
X127754745Y-90432791D01*
X127436741Y-90432791D01*
X127539078Y-90260844D01*
X127871737Y-90260844D01*
X127922784Y-90269453D01*
X127965038Y-90295282D01*
X127994577Y-90337181D01*
X128002896Y-90382965D01*
X128002163Y-90396643D01*
X127930600Y-91097131D01*
X128351186Y-90573475D01*
X128302306Y-90557993D01*
X128260843Y-90531788D01*
X128244207Y-90516078D01*
X128215323Y-90473669D01*
X128202614Y-90425090D01*
X128201953Y-90410076D01*
X128209475Y-90361751D01*
X128234601Y-90315677D01*
X128255443Y-90293572D01*
X128298800Y-90264103D01*
X128348270Y-90248235D01*
X128384647Y-90245212D01*
X128434492Y-90251158D01*
X128482681Y-90271205D01*
X128514584Y-90295526D01*
X128547111Y-90335758D01*
X128565216Y-90385388D01*
X128567585Y-90414717D01*
G37*
G36*
X129561165Y-90461612D02*
G01*
X129291277Y-91230000D01*
X129041905Y-91230000D01*
X129313258Y-90432791D01*
X129095638Y-90432791D01*
X129186985Y-90260844D01*
X129455408Y-90260844D01*
X129506243Y-90269805D01*
X129541137Y-90292595D01*
X129568008Y-90335025D01*
X129575575Y-90383454D01*
X129569369Y-90433312D01*
X129561165Y-90461612D01*
G37*
G36*
X130033042Y-91128394D02*
G01*
X130021914Y-91178395D01*
X129997871Y-91211193D01*
X129956626Y-91238064D01*
X129913363Y-91245631D01*
X129864507Y-91235912D01*
X129828611Y-91211193D01*
X129800567Y-91168045D01*
X129793928Y-91128394D01*
X129804902Y-91078394D01*
X129828611Y-91045596D01*
X129869804Y-91018725D01*
X129913363Y-91011158D01*
X129961907Y-91020877D01*
X129997871Y-91045596D01*
X130025314Y-91086116D01*
X130033042Y-91128394D01*
G37*
G36*
X130703207Y-90248134D02*
G01*
X130757101Y-90256900D01*
X130807286Y-90271509D01*
X130853763Y-90291962D01*
X130896530Y-90318259D01*
X130935589Y-90350399D01*
X130950174Y-90364891D01*
X130983174Y-90404128D01*
X131010581Y-90447037D01*
X131032395Y-90493620D01*
X131048615Y-90543876D01*
X131059242Y-90597805D01*
X131064276Y-90655407D01*
X131064724Y-90679476D01*
X131062556Y-90739251D01*
X131056053Y-90796331D01*
X131045215Y-90850717D01*
X131030041Y-90902409D01*
X131010532Y-90951406D01*
X130986688Y-90997709D01*
X130958509Y-91041318D01*
X130925994Y-91082233D01*
X130888480Y-91120529D01*
X130848111Y-91153719D01*
X130804888Y-91181804D01*
X130758810Y-91204781D01*
X130709877Y-91222653D01*
X130658090Y-91235419D01*
X130603448Y-91243078D01*
X130545952Y-91245631D01*
X130488542Y-91242739D01*
X130434769Y-91234063D01*
X130384634Y-91219603D01*
X130338136Y-91199358D01*
X130295275Y-91173330D01*
X130256052Y-91141518D01*
X130241381Y-91127173D01*
X130208240Y-91088212D01*
X130180716Y-91045519D01*
X130158810Y-90999092D01*
X130142520Y-90948933D01*
X130132303Y-90897341D01*
X130415038Y-90897341D01*
X130417990Y-90957149D01*
X130426845Y-91006821D01*
X130445263Y-91053046D01*
X130483044Y-91091972D01*
X130535938Y-91104947D01*
X130584845Y-91095188D01*
X130628983Y-91065911D01*
X130663021Y-91025282D01*
X130688709Y-90980470D01*
X130711965Y-90925701D01*
X130720586Y-90901004D01*
X130735010Y-90853283D01*
X130746990Y-90805525D01*
X130758138Y-90748169D01*
X130765766Y-90690762D01*
X130769873Y-90633303D01*
X130770655Y-90594968D01*
X130768789Y-90545967D01*
X130761208Y-90493903D01*
X130744412Y-90444902D01*
X130714204Y-90406313D01*
X130665684Y-90386713D01*
X130651221Y-90385896D01*
X130602481Y-90395690D01*
X130558416Y-90425072D01*
X130524367Y-90465848D01*
X130498617Y-90510820D01*
X130475251Y-90565787D01*
X130466573Y-90590572D01*
X130451727Y-90638891D01*
X130439396Y-90687067D01*
X130429582Y-90735100D01*
X130421127Y-90792550D01*
X130416296Y-90849794D01*
X130415038Y-90897341D01*
X130132303Y-90897341D01*
X130131848Y-90895041D01*
X130126792Y-90837416D01*
X130126343Y-90813321D01*
X130128533Y-90753921D01*
X130135105Y-90697107D01*
X130146058Y-90642882D01*
X130161392Y-90591243D01*
X130181107Y-90542193D01*
X130205203Y-90495729D01*
X130233680Y-90451853D01*
X130266538Y-90410565D01*
X130304144Y-90371810D01*
X130344543Y-90338223D01*
X130387736Y-90309803D01*
X130433722Y-90286550D01*
X130482502Y-90268465D01*
X130534076Y-90255547D01*
X130588443Y-90247796D01*
X130645603Y-90245212D01*
X130703207Y-90248134D01*
G37*
D11*
X122228572Y-90471185D02*
X123371429Y-90471185D01*
D12*
X115206129Y-72976946D02*
X115374487Y-73145305D01*
X115138785Y-73246320D02*
X115374487Y-73145305D01*
X115374487Y-73145305D02*
X115475503Y-72909603D01*
X115408159Y-73381007D02*
X115374487Y-73145305D01*
X115374487Y-73145305D02*
X115610190Y-73178977D01*
X115206129Y-72976946D02*
X115374487Y-73145305D01*
X115138785Y-73246320D02*
X115374487Y-73145305D01*
X115374487Y-73145305D02*
X115475503Y-72909603D01*
X115408159Y-73381007D02*
X115374487Y-73145305D01*
X115374487Y-73145305D02*
X115610190Y-73178977D01*
D13*
%TO.C,J1*%
X104419200Y-86832600D02*
X104419200Y-92827000D01*
X104419200Y-92827000D02*
X114680800Y-92827000D01*
X114680800Y-86832600D02*
X104419200Y-86832600D01*
X114680800Y-92827000D02*
X114680800Y-86832600D01*
D14*
X114201000Y-90400000D02*
G75*
G02*
X113439000Y-90400000I-381000J0D01*
G01*
X113439000Y-90400000D02*
G75*
G02*
X114201000Y-90400000I381000J0D01*
G01*
D15*
%TO.C,D1*%
X102950000Y-58200000D02*
X107850000Y-58200000D01*
X107850000Y-54600000D02*
X102950000Y-54600000D01*
X107850000Y-58200000D02*
X107850000Y-57300000D01*
%TO.C,D7*%
X133600000Y-56835000D02*
X136060000Y-56835000D01*
X136060000Y-55365000D02*
X133600000Y-55365000D01*
X136060000Y-56835000D02*
X136060000Y-55365000D01*
%TO.C,R29*%
X145054724Y-55877500D02*
X144545276Y-55877500D01*
X145054724Y-56922500D02*
X144545276Y-56922500D01*
D16*
%TO.C,_*%
G36*
X122014323Y-87311629D02*
G01*
X122238673Y-87313430D01*
X122430639Y-87315370D01*
X122593335Y-87317545D01*
X122729878Y-87320053D01*
X122843381Y-87322992D01*
X122936960Y-87326457D01*
X123013731Y-87330548D01*
X123076808Y-87335360D01*
X123129307Y-87340992D01*
X123174342Y-87347540D01*
X123176651Y-87347927D01*
X123458983Y-87405432D01*
X123711874Y-87478337D01*
X123938445Y-87567897D01*
X124141814Y-87675364D01*
X124325101Y-87801992D01*
X124344252Y-87817210D01*
X124509998Y-87973312D01*
X124652292Y-88154937D01*
X124769967Y-88359975D01*
X124861857Y-88586316D01*
X124926796Y-88831851D01*
X124937862Y-88891195D01*
X124942248Y-88936907D01*
X124933530Y-88955096D01*
X124926346Y-88955995D01*
X124906007Y-88953511D01*
X124852750Y-88946736D01*
X124768857Y-88935966D01*
X124656612Y-88921495D01*
X124518299Y-88903620D01*
X124356200Y-88882637D01*
X124172599Y-88858842D01*
X123969779Y-88832529D01*
X123750024Y-88803996D01*
X123515616Y-88773537D01*
X123268840Y-88741450D01*
X123011979Y-88708028D01*
X122968624Y-88702385D01*
X121033893Y-88450537D01*
X121029207Y-87877468D01*
X121024522Y-87304399D01*
X122014323Y-87311629D01*
G37*
G36*
X121082705Y-88923384D02*
G01*
X121111377Y-88924865D01*
X121171569Y-88928711D01*
X121260704Y-88934733D01*
X121376206Y-88942741D01*
X121515499Y-88952547D01*
X121676007Y-88963960D01*
X121855153Y-88976791D01*
X122050363Y-88990851D01*
X122259059Y-89005951D01*
X122478665Y-89021901D01*
X122706607Y-89038512D01*
X122940306Y-89055594D01*
X123177188Y-89072959D01*
X123414676Y-89090416D01*
X123650194Y-89107777D01*
X123881166Y-89124851D01*
X124105016Y-89141451D01*
X124319168Y-89157386D01*
X124521045Y-89172467D01*
X124708073Y-89186504D01*
X124877674Y-89199309D01*
X125027272Y-89210692D01*
X125154292Y-89220463D01*
X125256158Y-89228434D01*
X125330292Y-89234414D01*
X125374120Y-89238215D01*
X125385185Y-89239643D01*
X125344328Y-89241558D01*
X125271548Y-89245206D01*
X125169624Y-89250437D01*
X125041339Y-89257104D01*
X124889474Y-89265057D01*
X124716812Y-89274146D01*
X124526134Y-89284224D01*
X124320222Y-89295140D01*
X124101857Y-89306745D01*
X123873822Y-89318892D01*
X123638898Y-89331430D01*
X123399866Y-89344211D01*
X123159509Y-89357085D01*
X122920609Y-89369904D01*
X122685946Y-89382519D01*
X122458303Y-89394780D01*
X122240462Y-89406539D01*
X122035204Y-89417646D01*
X121845311Y-89427952D01*
X121673565Y-89437309D01*
X121522748Y-89445568D01*
X121395640Y-89452578D01*
X121295025Y-89458192D01*
X121223683Y-89462261D01*
X121184397Y-89464634D01*
X121180329Y-89464914D01*
X121025018Y-89476271D01*
X121025018Y-89199264D01*
X121025018Y-88922257D01*
X121082705Y-88923384D01*
G37*
G36*
X124938440Y-89583987D02*
G01*
X124944450Y-89604405D01*
X124941545Y-89648442D01*
X124938524Y-89672187D01*
X124928195Y-89733151D01*
X124911673Y-89813869D01*
X124891992Y-89899812D01*
X124885425Y-89926432D01*
X124805742Y-90176378D01*
X124697997Y-90404614D01*
X124562046Y-90611325D01*
X124397748Y-90796695D01*
X124204958Y-90960910D01*
X123983534Y-91104153D01*
X123967051Y-91113348D01*
X123910280Y-91145947D01*
X123868051Y-91172549D01*
X123847943Y-91188314D01*
X123847240Y-91189815D01*
X123855158Y-91207679D01*
X123877453Y-91252668D01*
X123911941Y-91320508D01*
X123956433Y-91406926D01*
X124008743Y-91507648D01*
X124060238Y-91606114D01*
X124117654Y-91715865D01*
X124169208Y-91814995D01*
X124212718Y-91899256D01*
X124246000Y-91964404D01*
X124266869Y-92006192D01*
X124273236Y-92020307D01*
X124255900Y-92021498D01*
X124205549Y-92022637D01*
X124124667Y-92023711D01*
X124015738Y-92024708D01*
X123881246Y-92025615D01*
X123723677Y-92026420D01*
X123545513Y-92027111D01*
X123349240Y-92027674D01*
X123137342Y-92028097D01*
X122912302Y-92028369D01*
X122676606Y-92028476D01*
X122649127Y-92028477D01*
X121025018Y-92028477D01*
X121025018Y-90990112D01*
X121025211Y-90801782D01*
X121025769Y-90624449D01*
X121026657Y-90461218D01*
X121027838Y-90315196D01*
X121029279Y-90189491D01*
X121030945Y-90087210D01*
X121032800Y-90011459D01*
X121034809Y-89965345D01*
X121036692Y-89951747D01*
X121055569Y-89950069D01*
X121107493Y-89945180D01*
X121190178Y-89937302D01*
X121301340Y-89926655D01*
X121438692Y-89913458D01*
X121599948Y-89897933D01*
X121782823Y-89880299D01*
X121985030Y-89860777D01*
X122204285Y-89839586D01*
X122438300Y-89816948D01*
X122684790Y-89793083D01*
X122941469Y-89768210D01*
X122970724Y-89765374D01*
X123228810Y-89740378D01*
X123477238Y-89716367D01*
X123713697Y-89693561D01*
X123935872Y-89672182D01*
X124141451Y-89652450D01*
X124328121Y-89634587D01*
X124493568Y-89618813D01*
X124635479Y-89605350D01*
X124751541Y-89594418D01*
X124839440Y-89586238D01*
X124896865Y-89581031D01*
X124921500Y-89579018D01*
X124922071Y-89579001D01*
X124938440Y-89583987D01*
G37*
D15*
%TO.C,J7*%
X124670000Y-103655000D02*
X124670000Y-98515000D01*
X127330000Y-98515000D02*
X124670000Y-98515000D01*
X127330000Y-103655000D02*
X124670000Y-103655000D01*
X127330000Y-103655000D02*
X127330000Y-98515000D01*
X127330000Y-104925000D02*
X127330000Y-106255000D01*
X127330000Y-106255000D02*
X126000000Y-106255000D01*
%TO.C,J6*%
X129320000Y-103655000D02*
X129320000Y-98515000D01*
X131980000Y-98515000D02*
X129320000Y-98515000D01*
X131980000Y-103655000D02*
X129320000Y-103655000D01*
X131980000Y-103655000D02*
X131980000Y-98515000D01*
X131980000Y-104925000D02*
X131980000Y-106255000D01*
X131980000Y-106255000D02*
X130650000Y-106255000D01*
%TO.C,R30*%
X145054724Y-54377500D02*
X144545276Y-54377500D01*
X145054724Y-55422500D02*
X144545276Y-55422500D01*
%TO.C,J12*%
X99470000Y-72645000D02*
X100800000Y-72645000D01*
X99470000Y-73975000D02*
X99470000Y-72645000D01*
X99470000Y-75245000D02*
X99470000Y-98165000D01*
X99470000Y-75245000D02*
X102130000Y-75245000D01*
X99470000Y-98165000D02*
X102130000Y-98165000D01*
X102130000Y-75245000D02*
X102130000Y-98165000D01*
%TO.C,D5*%
X137750000Y-54600000D02*
X137750000Y-55500000D01*
X137750000Y-58200000D02*
X142650000Y-58200000D01*
X142650000Y-54600000D02*
X137750000Y-54600000D01*
%TO.C,U9*%
X113600000Y-29500000D02*
X113600000Y-35700000D01*
X113600000Y-29500000D02*
X132000000Y-29500000D01*
X113600000Y-54350000D02*
X113600000Y-55350000D01*
X113600000Y-55350000D02*
X115100000Y-55350000D01*
X132000000Y-29500000D02*
X132000000Y-35700000D01*
X132000000Y-55350000D02*
X130500000Y-55350000D01*
X132000000Y-55350000D02*
X132000000Y-54350000D01*
X113600000Y-36375000D02*
X113100000Y-36375000D01*
X113600000Y-35875000D01*
X113600000Y-36375000D01*
G36*
X113600000Y-36375000D02*
G01*
X113100000Y-36375000D01*
X113600000Y-35875000D01*
X113600000Y-36375000D01*
G37*
%TO.C,C25*%
X132292802Y-76185949D02*
X132085949Y-76392802D01*
X133014051Y-76907198D02*
X132807198Y-77114051D01*
%TO.C,R14*%
X100545276Y-54377500D02*
X101054724Y-54377500D01*
X100545276Y-55422500D02*
X101054724Y-55422500D01*
%TO.C,R31*%
X145054724Y-53127500D02*
X144545276Y-53127500D01*
X145054724Y-54172500D02*
X144545276Y-54172500D01*
%TO.C,C401*%
X111540000Y-37753733D02*
X111540000Y-38046267D01*
X112560000Y-37753733D02*
X112560000Y-38046267D01*
%TO.C,J4*%
X110270000Y-103655000D02*
X110270000Y-98515000D01*
X112930000Y-98515000D02*
X110270000Y-98515000D01*
X112930000Y-103655000D02*
X110270000Y-103655000D01*
X112930000Y-103655000D02*
X112930000Y-98515000D01*
X112930000Y-104925000D02*
X112930000Y-106255000D01*
X112930000Y-106255000D02*
X111600000Y-106255000D01*
%TO.C,J9*%
X115370000Y-103655000D02*
X115370000Y-98515000D01*
X118030000Y-98515000D02*
X115370000Y-98515000D01*
X118030000Y-103655000D02*
X115370000Y-103655000D01*
X118030000Y-103655000D02*
X118030000Y-98515000D01*
X118030000Y-104925000D02*
X118030000Y-106255000D01*
X118030000Y-106255000D02*
X116700000Y-106255000D01*
%TO.C,U7*%
X116760000Y-62680000D02*
X116760000Y-63440000D01*
X116760000Y-63440000D02*
X117840000Y-63440000D01*
X117080000Y-62360000D02*
X117840000Y-62360000D01*
X117840000Y-63440000D02*
X117840000Y-62360000D01*
X116760000Y-62360000D02*
X116260000Y-62360000D01*
X116760000Y-61860000D01*
X116760000Y-62360000D01*
G36*
X116760000Y-62360000D02*
G01*
X116260000Y-62360000D01*
X116760000Y-61860000D01*
X116760000Y-62360000D01*
G37*
%TO.C,SW4*%
X131123045Y-67248528D02*
X131971573Y-68097056D01*
X133102944Y-69228427D02*
X133951472Y-70076955D01*
X133951472Y-70076955D02*
X138476955Y-65551472D01*
X135648528Y-62723045D02*
X131123045Y-67248528D01*
X136497056Y-63571573D02*
X135648528Y-62723045D01*
X138476955Y-65551472D02*
X137628427Y-64702944D01*
%TO.C,U2*%
X117694689Y-67400000D02*
X118154308Y-66940381D01*
X118154308Y-67859619D02*
X117694689Y-67400000D01*
X122340381Y-72045692D02*
X122587868Y-72293179D01*
X122800000Y-62294689D02*
X122340381Y-62754308D01*
X123259619Y-62754308D02*
X122800000Y-62294689D01*
X123259619Y-72045692D02*
X122969706Y-72335605D01*
X127445692Y-66940381D02*
X127905311Y-67400000D01*
X127905311Y-67400000D02*
X127445692Y-67859619D01*
X122736360Y-72908362D02*
X122396949Y-72568951D01*
X122800000Y-72505311D01*
X122736360Y-72908362D01*
G36*
X122736360Y-72908362D02*
G01*
X122396949Y-72568951D01*
X122800000Y-72505311D01*
X122736360Y-72908362D01*
G37*
%TO.C,SW301*%
X107123045Y-65551472D02*
X111648528Y-70076955D01*
X107971573Y-64702944D02*
X107123045Y-65551472D01*
X109951472Y-62723045D02*
X109102944Y-63571573D01*
X111648528Y-70076955D02*
X112497056Y-69228427D01*
X113628427Y-68097056D02*
X114476955Y-67248528D01*
X114476955Y-67248528D02*
X109951472Y-62723045D01*
%TO.C,SW1*%
X107123045Y-78051472D02*
X111648528Y-82576955D01*
X107971573Y-77202944D02*
X107123045Y-78051472D01*
X109951472Y-75223045D02*
X109102944Y-76071573D01*
X111648528Y-82576955D02*
X112497056Y-81728427D01*
X113628427Y-80597056D02*
X114476955Y-79748528D01*
X114476955Y-79748528D02*
X109951472Y-75223045D01*
D13*
%TO.C,U11*%
X132802800Y-40642200D02*
X132802800Y-53367600D01*
X132802800Y-53367600D02*
X138797200Y-53367600D01*
X138797200Y-40642200D02*
X132802800Y-40642200D01*
X138797200Y-53367600D02*
X138797200Y-40642200D01*
D14*
X136689000Y-38864200D02*
G75*
G02*
X135927000Y-38864200I-381000J0D01*
G01*
X135927000Y-38864200D02*
G75*
G02*
X136689000Y-38864200I381000J0D01*
G01*
D15*
%TO.C,C11*%
X112792802Y-77114051D02*
X112585949Y-76907198D01*
X113514051Y-76392802D02*
X113307198Y-76185949D01*
%TO.C,J8*%
X120020000Y-103655000D02*
X120020000Y-98515000D01*
X122680000Y-98515000D02*
X120020000Y-98515000D01*
X122680000Y-103655000D02*
X120020000Y-103655000D01*
X122680000Y-103655000D02*
X122680000Y-98515000D01*
X122680000Y-104925000D02*
X122680000Y-106255000D01*
X122680000Y-106255000D02*
X121350000Y-106255000D01*
%TO.C,U1*%
X120075000Y-77675000D02*
X120075000Y-77935000D01*
X120075000Y-83125000D02*
X120075000Y-82865000D01*
X122800000Y-77675000D02*
X120075000Y-77675000D01*
X122800000Y-77675000D02*
X125525000Y-77675000D01*
X122800000Y-83125000D02*
X120075000Y-83125000D01*
X122800000Y-83125000D02*
X125525000Y-83125000D01*
X125525000Y-77675000D02*
X125525000Y-77935000D01*
X125525000Y-83125000D02*
X125525000Y-82865000D01*
X126547500Y-83195000D02*
X126067500Y-83195000D01*
X126307500Y-82865000D01*
X126547500Y-83195000D01*
G36*
X126547500Y-83195000D02*
G01*
X126067500Y-83195000D01*
X126307500Y-82865000D01*
X126547500Y-83195000D01*
G37*
%TO.C,C405*%
X110030000Y-38046267D02*
X110030000Y-37753733D01*
X111050000Y-38046267D02*
X111050000Y-37753733D01*
D13*
%TO.C,U6*%
X115629672Y-72900000D02*
X116072362Y-73342690D01*
X115895586Y-72634086D02*
X115629672Y-72900000D01*
X116857310Y-74127638D02*
X117300000Y-74570328D01*
X117300000Y-71229672D02*
X117034086Y-71495586D01*
X117300000Y-74570328D02*
X117565914Y-74304414D01*
X117742690Y-71672362D02*
X117300000Y-71229672D01*
X118704414Y-73165914D02*
X118970328Y-72900000D01*
X118970328Y-72900000D02*
X118527638Y-72457310D01*
D16*
G36*
X116265149Y-72302847D02*
G01*
X115995742Y-72572255D01*
X115816136Y-72392649D01*
X116085544Y-72123242D01*
X116265149Y-72302847D01*
G37*
D15*
%TO.C,C18*%
X115542802Y-74864051D02*
X115335949Y-74657198D01*
X116264051Y-74142802D02*
X116057198Y-73935949D01*
%TO.C,C402*%
X132292802Y-63435949D02*
X132085949Y-63642802D01*
X133014051Y-64157198D02*
X132807198Y-64364051D01*
%TO.C,D8*%
X105100000Y-68535000D02*
X107560000Y-68535000D01*
X107560000Y-67065000D02*
X105100000Y-67065000D01*
X107560000Y-68535000D02*
X107560000Y-67065000D01*
%TO.C,R32*%
X145054724Y-57377500D02*
X144545276Y-57377500D01*
X145054724Y-58422500D02*
X144545276Y-58422500D01*
%TO.C,R28*%
X100545276Y-58877500D02*
X101054724Y-58877500D01*
X100545276Y-59922500D02*
X101054724Y-59922500D01*
%TO.C,J5*%
X133970000Y-103655000D02*
X133970000Y-98515000D01*
X136630000Y-98515000D02*
X133970000Y-98515000D01*
X136630000Y-103655000D02*
X133970000Y-103655000D01*
X136630000Y-103655000D02*
X136630000Y-98515000D01*
X136630000Y-104925000D02*
X136630000Y-106255000D01*
X136630000Y-106255000D02*
X135300000Y-106255000D01*
%TO.C,D9*%
X138800000Y-68535000D02*
X141260000Y-68535000D01*
X141260000Y-67065000D02*
X138800000Y-67065000D01*
X141260000Y-68535000D02*
X141260000Y-67065000D01*
%TO.C,J10*%
X141660000Y-67210000D02*
X141660000Y-67660000D01*
X142110000Y-67660000D02*
X141660000Y-67660000D01*
X142340000Y-62140000D02*
X142340000Y-62560000D01*
X142340000Y-69660000D02*
X142340000Y-69240000D01*
X144320000Y-62140000D02*
X142340000Y-62140000D01*
X144320000Y-69660000D02*
X142340000Y-69660000D01*
X146290000Y-62140000D02*
X146690000Y-62140000D01*
X146690000Y-69660000D02*
X146290000Y-69660000D01*
%TO.C,R16*%
X100545276Y-57377500D02*
X101054724Y-57377500D01*
X100545276Y-58422500D02*
X101054724Y-58422500D01*
%TO.C,J2*%
X138970000Y-81995000D02*
X140300000Y-81995000D01*
X138970000Y-83325000D02*
X138970000Y-81995000D01*
X138970000Y-84595000D02*
X138970000Y-94815000D01*
X138970000Y-84595000D02*
X141630000Y-84595000D01*
X138970000Y-94815000D02*
X141630000Y-94815000D01*
X141630000Y-84595000D02*
X141630000Y-94815000D01*
%TO.C,R15*%
X100545276Y-55877500D02*
X101054724Y-55877500D01*
X100545276Y-56922500D02*
X101054724Y-56922500D01*
%TO.C,J11*%
X142970000Y-72645000D02*
X144300000Y-72645000D01*
X142970000Y-73975000D02*
X142970000Y-72645000D01*
X142970000Y-75245000D02*
X142970000Y-98165000D01*
X142970000Y-75245000D02*
X145630000Y-75245000D01*
X142970000Y-98165000D02*
X145630000Y-98165000D01*
X145630000Y-75245000D02*
X145630000Y-98165000D01*
%TO.C,U10*%
X121920000Y-74040000D02*
X121640000Y-74040000D01*
X121920000Y-73760000D01*
X121920000Y-74040000D01*
G36*
X121920000Y-74040000D02*
G01*
X121640000Y-74040000D01*
X121920000Y-73760000D01*
X121920000Y-74040000D01*
G37*
D10*
%TO.C,U8*%
X126214035Y-73076777D02*
X126723152Y-72567660D01*
X126369598Y-73232340D02*
X126214035Y-73076777D01*
X128123223Y-74985965D02*
X127967660Y-74830402D01*
X128476777Y-70814035D02*
X127967660Y-71323152D01*
X128476777Y-70814035D02*
X128632340Y-70969598D01*
X128632340Y-74476848D02*
X128123223Y-74985965D01*
X130244544Y-72864645D02*
X129876848Y-73232340D01*
X130640523Y-72977782D02*
X130385965Y-72723223D01*
X130640523Y-72468665D01*
X130640523Y-72977782D01*
G36*
X130640523Y-72977782D02*
G01*
X130385965Y-72723223D01*
X130640523Y-72468665D01*
X130640523Y-72977782D01*
G37*
D15*
%TO.C,SW2*%
X131123045Y-79748528D02*
X131971573Y-80597056D01*
X133102944Y-81728427D02*
X133951472Y-82576955D01*
X133951472Y-82576955D02*
X138476955Y-78051472D01*
X135648528Y-75223045D02*
X131123045Y-79748528D01*
X136497056Y-76071573D02*
X135648528Y-75223045D01*
X138476955Y-78051472D02*
X137628427Y-77202944D01*
%TO.C,J3*%
X98910000Y-62140000D02*
X99310000Y-62140000D01*
X99310000Y-69660000D02*
X98910000Y-69660000D01*
X101280000Y-62140000D02*
X103260000Y-62140000D01*
X101280000Y-69660000D02*
X103260000Y-69660000D01*
X103260000Y-62140000D02*
X103260000Y-62560000D01*
X103260000Y-69660000D02*
X103260000Y-69240000D01*
X103490000Y-64140000D02*
X103940000Y-64140000D01*
X103940000Y-64590000D02*
X103940000Y-64140000D01*
%TD*%
M02*
