M48
; DRILL file {KiCad 8.0.2} date 2024-06-02T12:05:09-0300
; FORMAT={-:-/ absolute / inch / decimal}
; #@! TF.CreationDate,2024-06-02T12:05:09-03:00
; #@! TF.GenerationSoftware,Kicad,Pcbnew,8.0.2
; #@! TF.FileFunction,Plated,1,3,Blind
FMAT,2
INCH
; #@! TA.AperFunction,Plated,Buried,ViaDrill
T1C0.0118
%
G90
G05
T1
X4.2106Y-3.0118
X4.5197Y-2.622
X4.5354Y-2.4016
X4.5563Y-2.6481
X4.5874Y-2.7244
X4.6024Y-1.811
X4.6024Y-2.9213
X4.6299Y-2.311
X4.6575Y-2.3878
X4.6614Y-2.2362
X4.6732Y-2.9055
X4.7047Y-2.3937
X4.7087Y-2.2283
X4.7173Y-2.5142
X4.7188Y-2.9859
X4.7559Y-2.1181
X4.7704Y-2.9678
X4.811Y-2.2362
X4.8583Y-2.1142
X4.8858Y-2.9724
X4.8937Y-2.7362
X4.9094Y-2.2323
X4.937Y-2.689
X4.9409Y-2.4469
X4.9606Y-2.4222
X4.9764Y-2.4715
X5.0039Y-2.4882
X5.0728Y-2.2795
X5.124Y-2.7106
X5.1554Y-2.7085
X5.1592Y-2.7513
X5.1614Y-2.6732
X5.185Y-2.7835
X5.2126Y-3.3858
X5.252Y-2.7047
X5.2598Y-1.6339
X5.2638Y-2.752
X5.2638Y-3.3346
X5.3287Y-2.4469
X5.3307Y-2.8543
X5.359Y-3.3102
X5.4646Y-2.878
X5.4902Y-2.9227
M30
