%TF.GenerationSoftware,KiCad,Pcbnew,8.0.2*%
%TF.CreationDate,2024-08-20T16:45:35-03:00*%
%TF.ProjectId,dough,646f7567-682e-46b6-9963-61645f706362,rev?*%
%TF.SameCoordinates,Original*%
%TF.FileFunction,Legend,Top*%
%TF.FilePolarity,Positive*%
%FSLAX46Y46*%
G04 Gerber Fmt 4.6, Leading zero omitted, Abs format (unit mm)*
G04 Created by KiCad (PCBNEW 8.0.2) date 2024-08-20 16:45:35*
%MOMM*%
%LPD*%
G01*
G04 APERTURE LIST*
%ADD10C,0.170000*%
%ADD11C,0.100000*%
%ADD12C,0.200000*%
%ADD13C,0.300000*%
%ADD14C,0.150000*%
%ADD15C,0.120000*%
%ADD16C,0.152400*%
%ADD17C,0.508000*%
%ADD18C,0.000000*%
G04 APERTURE END LIST*
D10*
X108444291Y-81358716D02*
X108545306Y-80786297D01*
X108040230Y-80954655D02*
X108747337Y-80247548D01*
X108747337Y-80247548D02*
X109016711Y-80516922D01*
X109016711Y-80516922D02*
X109050382Y-80617938D01*
X109050382Y-80617938D02*
X109050382Y-80685281D01*
X109050382Y-80685281D02*
X109016711Y-80786297D01*
X109016711Y-80786297D02*
X108915695Y-80887312D01*
X108915695Y-80887312D02*
X108814680Y-80920984D01*
X108814680Y-80920984D02*
X108747337Y-80920984D01*
X108747337Y-80920984D02*
X108646321Y-80887312D01*
X108646321Y-80887312D02*
X108376947Y-80617938D01*
X108747337Y-81594419D02*
X108814680Y-81729106D01*
X108814680Y-81729106D02*
X108983039Y-81897464D01*
X108983039Y-81897464D02*
X109084054Y-81931136D01*
X109084054Y-81931136D02*
X109151398Y-81931136D01*
X109151398Y-81931136D02*
X109252413Y-81897464D01*
X109252413Y-81897464D02*
X109319756Y-81830121D01*
X109319756Y-81830121D02*
X109353428Y-81729106D01*
X109353428Y-81729106D02*
X109353428Y-81661762D01*
X109353428Y-81661762D02*
X109319756Y-81560747D01*
X109319756Y-81560747D02*
X109218741Y-81392388D01*
X109218741Y-81392388D02*
X109185069Y-81291373D01*
X109185069Y-81291373D02*
X109185069Y-81224029D01*
X109185069Y-81224029D02*
X109218741Y-81123014D01*
X109218741Y-81123014D02*
X109286085Y-81055671D01*
X109286085Y-81055671D02*
X109387100Y-81021999D01*
X109387100Y-81021999D02*
X109454443Y-81021999D01*
X109454443Y-81021999D02*
X109555459Y-81055671D01*
X109555459Y-81055671D02*
X109723817Y-81224029D01*
X109723817Y-81224029D02*
X109791161Y-81358716D01*
X110026863Y-81527075D02*
X110430924Y-81931136D01*
X109521787Y-82436212D02*
X110228894Y-81729106D01*
D11*
G36*
X129697487Y-88565024D02*
G01*
X129689142Y-88676679D01*
X129668706Y-88774578D01*
X129636008Y-88874504D01*
X129591048Y-88976456D01*
X129544215Y-89062964D01*
X129523098Y-89097962D01*
X129462075Y-89188042D01*
X129394535Y-89272901D01*
X129320476Y-89352539D01*
X129239898Y-89426957D01*
X129152803Y-89496154D01*
X129059189Y-89560130D01*
X128959057Y-89618886D01*
X128852407Y-89672421D01*
X128750214Y-89716385D01*
X128646113Y-89754487D01*
X128540104Y-89786727D01*
X128432187Y-89813105D01*
X128322362Y-89833621D01*
X128210628Y-89848276D01*
X128096987Y-89857069D01*
X127981437Y-89860000D01*
X127528122Y-89860000D01*
X128025401Y-88453161D01*
X128521214Y-88453161D01*
X128099651Y-89641158D01*
X128200962Y-89635285D01*
X128301929Y-89617665D01*
X128402554Y-89588298D01*
X128502834Y-89547185D01*
X128602772Y-89494326D01*
X128636008Y-89474096D01*
X128730776Y-89408499D01*
X128815412Y-89337373D01*
X128889915Y-89260717D01*
X128954287Y-89178531D01*
X129008526Y-89090816D01*
X129024354Y-89060348D01*
X129067180Y-88968896D01*
X129103244Y-88872794D01*
X129127394Y-88775409D01*
X129134263Y-88698381D01*
X129127952Y-88600731D01*
X129105283Y-88504873D01*
X129060075Y-88417104D01*
X129002372Y-88356929D01*
X128916181Y-88308758D01*
X128817563Y-88280658D01*
X128713165Y-88267812D01*
X128639916Y-88265582D01*
X127311235Y-88265582D01*
X127522749Y-87921688D01*
X128852407Y-87921688D01*
X128957365Y-87925254D01*
X129056693Y-87935952D01*
X129168457Y-87958203D01*
X129272115Y-87990723D01*
X129367668Y-88033513D01*
X129426866Y-88067745D01*
X129518835Y-88137618D01*
X129591776Y-88218275D01*
X129645689Y-88309718D01*
X129680573Y-88411945D01*
X129696430Y-88524957D01*
X129697487Y-88565024D01*
G37*
G36*
X132029732Y-89017850D02*
G01*
X131950490Y-89092863D01*
X131850923Y-89130477D01*
X131741311Y-89140949D01*
X130881088Y-89140949D01*
X130941934Y-89220339D01*
X130955338Y-89253789D01*
X130978439Y-89351813D01*
X130978785Y-89395938D01*
X130962620Y-89493277D01*
X130924968Y-89592730D01*
X130866861Y-89679604D01*
X130788299Y-89753900D01*
X130777041Y-89762302D01*
X130683129Y-89818173D01*
X130590338Y-89854137D01*
X130487636Y-89878039D01*
X130375023Y-89889880D01*
X130323726Y-89891263D01*
X130226026Y-89888875D01*
X130118453Y-89877289D01*
X130021423Y-89856188D01*
X129921550Y-89819547D01*
X129836028Y-89769955D01*
X129824982Y-89761814D01*
X129749892Y-89690072D01*
X129695281Y-89596764D01*
X129684544Y-89552254D01*
X130125401Y-89552254D01*
X130173701Y-89638507D01*
X130270515Y-89668196D01*
X130345219Y-89672421D01*
X130390648Y-89670956D01*
X130573342Y-89140949D01*
X130258757Y-89140949D01*
X130135170Y-89499009D01*
X130125401Y-89552254D01*
X129684544Y-89552254D01*
X129672071Y-89500550D01*
X129669644Y-89454068D01*
X129676482Y-89378841D01*
X129702739Y-89279434D01*
X129745847Y-89191263D01*
X129814489Y-89105499D01*
X129882623Y-89048625D01*
X129967708Y-88999327D01*
X130064386Y-88962138D01*
X130172658Y-88937057D01*
X130274690Y-88925196D01*
X130366224Y-88922107D01*
X132071039Y-88922107D01*
X132029732Y-89017850D01*
G37*
G36*
X133181367Y-89641158D02*
G01*
X133139214Y-89735490D01*
X133066793Y-89805993D01*
X133054849Y-89813593D01*
X132960333Y-89852341D01*
X132891695Y-89860000D01*
X132317236Y-89860000D01*
X132219713Y-89849799D01*
X132135193Y-89799046D01*
X132115491Y-89731039D01*
X132041236Y-89799046D01*
X131952192Y-89841864D01*
X131848360Y-89859496D01*
X131825819Y-89860000D01*
X131584019Y-89860000D01*
X131484979Y-89845589D01*
X131410607Y-89802358D01*
X131359776Y-89716897D01*
X131352965Y-89660209D01*
X131370844Y-89561380D01*
X131372016Y-89558115D01*
X131603070Y-88922107D01*
X132101814Y-88922107D01*
X131844870Y-89641158D01*
X132123796Y-89641158D01*
X132379274Y-88922107D01*
X132872156Y-88922107D01*
X132622540Y-89641158D01*
X133181367Y-89641158D01*
G37*
G36*
X134366434Y-89641158D02*
G01*
X134949197Y-89641158D01*
X134900074Y-89736901D01*
X134815718Y-89805289D01*
X134713006Y-89842689D01*
X134603497Y-89858076D01*
X134541311Y-89860000D01*
X134296580Y-89860000D01*
X134258441Y-89957992D01*
X134212737Y-90063872D01*
X134167102Y-90156974D01*
X134113948Y-90249445D01*
X134053314Y-90333831D01*
X133983487Y-90406542D01*
X133893601Y-90472359D01*
X133794646Y-90517700D01*
X133686621Y-90542564D01*
X133603907Y-90547787D01*
X133505508Y-90537917D01*
X133408269Y-90500801D01*
X133358688Y-90464256D01*
X133299544Y-90386062D01*
X133270552Y-90286423D01*
X133267341Y-90233203D01*
X133269264Y-90201451D01*
X133557501Y-90201451D01*
X133585055Y-90297762D01*
X133635659Y-90348974D01*
X133801744Y-89891263D01*
X133704887Y-89924029D01*
X133634682Y-89994822D01*
X133584710Y-90078883D01*
X133558707Y-90175676D01*
X133557501Y-90201451D01*
X133269264Y-90201451D01*
X133273472Y-90131972D01*
X133296122Y-90032101D01*
X133342444Y-89942006D01*
X133420613Y-89871303D01*
X133441730Y-89860000D01*
X133344367Y-89825079D01*
X133261838Y-89770326D01*
X133228750Y-89738367D01*
X133169514Y-89654950D01*
X133137617Y-89559306D01*
X133137346Y-89556161D01*
X133631263Y-89556161D01*
X133673883Y-89645554D01*
X133771277Y-89674304D01*
X133801744Y-89675352D01*
X133833496Y-89673886D01*
X133866224Y-89672421D01*
X134043545Y-89140949D01*
X133750942Y-89140949D01*
X133641032Y-89497055D01*
X133631263Y-89556161D01*
X133137346Y-89556161D01*
X133131542Y-89488750D01*
X133144409Y-89388132D01*
X133149616Y-89368583D01*
X133182063Y-89274513D01*
X133235804Y-89179998D01*
X133307314Y-89099345D01*
X133396592Y-89032552D01*
X133409002Y-89025177D01*
X133501386Y-88980084D01*
X133602686Y-88947875D01*
X133712901Y-88928549D01*
X133816651Y-88922208D01*
X133832030Y-88922107D01*
X134618004Y-88922107D01*
X134366434Y-89641158D01*
G37*
G36*
X136802023Y-89641158D02*
G01*
X136755300Y-89734337D01*
X136677536Y-89803579D01*
X136649616Y-89818967D01*
X136556898Y-89850984D01*
X136469364Y-89860000D01*
X135884159Y-89860000D01*
X135783583Y-89841376D01*
X135728972Y-89754102D01*
X135728820Y-89747159D01*
X135746852Y-89647983D01*
X135749337Y-89640181D01*
X135848499Y-89359790D01*
X135327773Y-89778422D01*
X135241420Y-89834188D01*
X135144126Y-89859283D01*
X135124075Y-89860000D01*
X134841242Y-89860000D01*
X135429378Y-88203056D01*
X135923726Y-88203056D01*
X135510467Y-89343182D01*
X135929588Y-89017362D01*
X136013394Y-88962010D01*
X136114171Y-88918643D01*
X136209525Y-88896898D01*
X136297418Y-88890844D01*
X136391585Y-88919081D01*
X136433960Y-89012003D01*
X136435170Y-89038367D01*
X136418724Y-89136003D01*
X136410258Y-89161465D01*
X136235868Y-89641158D01*
X136802023Y-89641158D01*
G37*
D12*
G36*
X129963258Y-97397341D02*
G01*
X130088799Y-97386106D01*
X130097783Y-97436995D01*
X130113903Y-97484874D01*
X130130321Y-97515554D01*
X130162838Y-97553448D01*
X130203373Y-97582775D01*
X130231681Y-97597376D01*
X130281025Y-97615036D01*
X130329340Y-97624729D01*
X130380945Y-97628364D01*
X130386287Y-97628394D01*
X130436570Y-97625710D01*
X130486619Y-97616660D01*
X130520865Y-97605680D01*
X130566359Y-97582365D01*
X130604155Y-97547820D01*
X130607815Y-97542909D01*
X130630113Y-97498351D01*
X130636392Y-97455715D01*
X130627659Y-97405921D01*
X130608792Y-97372428D01*
X130572461Y-97339455D01*
X130525945Y-97315413D01*
X130518178Y-97312344D01*
X130469031Y-97296543D01*
X130416022Y-97282203D01*
X130364053Y-97269127D01*
X130338904Y-97263007D01*
X130289800Y-97250505D01*
X130239891Y-97236266D01*
X130192584Y-97220452D01*
X130144487Y-97199504D01*
X130099280Y-97171005D01*
X130062732Y-97138235D01*
X130037020Y-97104738D01*
X130015439Y-97060499D01*
X130003818Y-97012414D01*
X130001605Y-96978220D01*
X130006713Y-96926538D01*
X130022038Y-96877281D01*
X130044836Y-96834605D01*
X130075872Y-96795927D01*
X130114636Y-96763546D01*
X130161128Y-96737461D01*
X130171353Y-96733000D01*
X130219552Y-96716235D01*
X130270727Y-96704956D01*
X130324876Y-96699164D01*
X130356245Y-96698318D01*
X130410528Y-96700592D01*
X130461514Y-96707416D01*
X130509202Y-96718788D01*
X130553593Y-96734710D01*
X130598549Y-96757767D01*
X130641158Y-96789776D01*
X130676039Y-96828512D01*
X130684996Y-96841444D01*
X130709673Y-96887373D01*
X130726002Y-96936928D01*
X130733983Y-96990108D01*
X130734577Y-97001179D01*
X130606838Y-97010949D01*
X130597165Y-96960292D01*
X130577263Y-96912798D01*
X130544242Y-96871244D01*
X130536985Y-96864891D01*
X130494357Y-96838874D01*
X130446529Y-96823697D01*
X130396490Y-96816759D01*
X130361618Y-96815554D01*
X130311857Y-96817693D01*
X130262657Y-96825375D01*
X130212664Y-96842835D01*
X130185275Y-96860251D01*
X130151638Y-96896200D01*
X130132017Y-96944740D01*
X130130076Y-96967718D01*
X130139907Y-97017543D01*
X130169399Y-97057599D01*
X130215607Y-97084252D01*
X130265799Y-97102326D01*
X130313621Y-97116042D01*
X130370167Y-97129895D01*
X130418437Y-97141199D01*
X130469797Y-97154182D01*
X130520665Y-97168526D01*
X130571745Y-97185697D01*
X130593161Y-97194619D01*
X130638968Y-97219282D01*
X130681301Y-97250719D01*
X130717453Y-97290203D01*
X130722854Y-97297934D01*
X130746771Y-97343172D01*
X130760761Y-97392912D01*
X130764863Y-97442037D01*
X130760355Y-97491659D01*
X130746831Y-97539467D01*
X130724291Y-97585463D01*
X130718702Y-97594445D01*
X130686067Y-97636071D01*
X130645562Y-97671496D01*
X130602378Y-97698076D01*
X130586566Y-97705819D01*
X130536369Y-97725064D01*
X130488894Y-97736883D01*
X130438732Y-97743726D01*
X130392637Y-97745631D01*
X130342901Y-97744197D01*
X130288803Y-97738899D01*
X130238936Y-97729698D01*
X130187126Y-97714402D01*
X130163293Y-97704842D01*
X130119620Y-97681899D01*
X130076435Y-97649993D01*
X130039549Y-97611634D01*
X130018457Y-97582477D01*
X129992860Y-97534752D01*
X129975146Y-97483627D01*
X129966018Y-97435328D01*
X129963258Y-97397341D01*
G37*
G36*
X131541311Y-97612763D02*
G01*
X131541311Y-97730000D01*
X130875505Y-97730000D01*
X130879464Y-97680798D01*
X130889916Y-97644026D01*
X130911126Y-97597437D01*
X130936619Y-97555534D01*
X130968027Y-97514060D01*
X130971493Y-97509937D01*
X131006896Y-97471082D01*
X131044982Y-97433820D01*
X131083417Y-97399112D01*
X131126620Y-97362440D01*
X131133182Y-97357041D01*
X131172551Y-97323972D01*
X131217082Y-97285117D01*
X131256414Y-97249016D01*
X131296748Y-97209331D01*
X131334341Y-97168046D01*
X131354954Y-97141863D01*
X131382936Y-97097888D01*
X131403286Y-97050614D01*
X131412614Y-97000541D01*
X131412840Y-96991653D01*
X131405421Y-96939263D01*
X131383164Y-96893468D01*
X131360083Y-96866601D01*
X131320229Y-96837538D01*
X131272871Y-96820539D01*
X131223307Y-96815554D01*
X131170919Y-96821016D01*
X131121336Y-96839642D01*
X131080181Y-96871486D01*
X131049641Y-96915047D01*
X131032697Y-96963514D01*
X131026257Y-97014354D01*
X131025959Y-97026580D01*
X130898953Y-97013147D01*
X130906349Y-96960822D01*
X130918828Y-96913393D01*
X130939812Y-96864244D01*
X130967715Y-96821757D01*
X130997138Y-96790642D01*
X131037224Y-96760758D01*
X131082897Y-96738215D01*
X131134156Y-96723012D01*
X131182539Y-96715822D01*
X131225994Y-96713949D01*
X131278187Y-96716791D01*
X131333717Y-96727292D01*
X131383473Y-96745529D01*
X131427456Y-96771504D01*
X131455338Y-96794794D01*
X131488266Y-96832010D01*
X131515996Y-96879065D01*
X131533161Y-96930943D01*
X131539516Y-96980294D01*
X131539846Y-96995073D01*
X131535775Y-97044164D01*
X131523561Y-97092610D01*
X131515177Y-97114752D01*
X131492074Y-97159608D01*
X131462809Y-97202296D01*
X131433112Y-97238339D01*
X131394817Y-97278709D01*
X131356725Y-97315397D01*
X131318288Y-97350528D01*
X131274510Y-97389059D01*
X131242358Y-97416636D01*
X131203475Y-97449944D01*
X131165165Y-97483398D01*
X131127073Y-97517858D01*
X131099476Y-97544863D01*
X131067508Y-97582937D01*
X131047452Y-97612763D01*
X131541311Y-97612763D01*
G37*
D10*
X136519968Y-81253678D02*
X136654655Y-81186334D01*
X136654655Y-81186334D02*
X136721999Y-81186334D01*
X136721999Y-81186334D02*
X136823014Y-81220006D01*
X136823014Y-81220006D02*
X136924029Y-81321021D01*
X136924029Y-81321021D02*
X136957701Y-81422037D01*
X136957701Y-81422037D02*
X136957701Y-81489380D01*
X136957701Y-81489380D02*
X136924029Y-81590395D01*
X136924029Y-81590395D02*
X136654655Y-81859769D01*
X136654655Y-81859769D02*
X135947548Y-81152662D01*
X135947548Y-81152662D02*
X136183251Y-80916960D01*
X136183251Y-80916960D02*
X136284266Y-80883288D01*
X136284266Y-80883288D02*
X136351610Y-80883288D01*
X136351610Y-80883288D02*
X136452625Y-80916960D01*
X136452625Y-80916960D02*
X136519968Y-80984304D01*
X136519968Y-80984304D02*
X136553640Y-81085319D01*
X136553640Y-81085319D02*
X136553640Y-81152662D01*
X136553640Y-81152662D02*
X136519968Y-81253678D01*
X136519968Y-81253678D02*
X136284266Y-81489380D01*
X136789342Y-80310869D02*
X136924029Y-80176182D01*
X136924029Y-80176182D02*
X137025045Y-80142510D01*
X137025045Y-80142510D02*
X137159732Y-80142510D01*
X137159732Y-80142510D02*
X137328090Y-80243525D01*
X137328090Y-80243525D02*
X137563793Y-80479227D01*
X137563793Y-80479227D02*
X137664808Y-80647586D01*
X137664808Y-80647586D02*
X137664808Y-80782273D01*
X137664808Y-80782273D02*
X137631136Y-80883288D01*
X137631136Y-80883288D02*
X137496449Y-81017975D01*
X137496449Y-81017975D02*
X137395434Y-81051647D01*
X137395434Y-81051647D02*
X137260747Y-81051647D01*
X137260747Y-81051647D02*
X137092388Y-80950632D01*
X137092388Y-80950632D02*
X136856686Y-80714930D01*
X136856686Y-80714930D02*
X136755671Y-80546571D01*
X136755671Y-80546571D02*
X136755671Y-80411884D01*
X136755671Y-80411884D02*
X136789342Y-80310869D01*
X137530121Y-79570090D02*
X137664808Y-79435403D01*
X137664808Y-79435403D02*
X137765823Y-79401731D01*
X137765823Y-79401731D02*
X137900510Y-79401731D01*
X137900510Y-79401731D02*
X138068869Y-79502747D01*
X138068869Y-79502747D02*
X138304571Y-79738449D01*
X138304571Y-79738449D02*
X138405586Y-79906808D01*
X138405586Y-79906808D02*
X138405586Y-80041495D01*
X138405586Y-80041495D02*
X138371915Y-80142510D01*
X138371915Y-80142510D02*
X138237228Y-80277197D01*
X138237228Y-80277197D02*
X138136212Y-80310869D01*
X138136212Y-80310869D02*
X138001525Y-80310869D01*
X138001525Y-80310869D02*
X137833167Y-80209853D01*
X137833167Y-80209853D02*
X137597464Y-79974151D01*
X137597464Y-79974151D02*
X137496449Y-79805792D01*
X137496449Y-79805792D02*
X137496449Y-79671105D01*
X137496449Y-79671105D02*
X137530121Y-79570090D01*
X138035197Y-79065014D02*
X138439258Y-78660953D01*
X138944334Y-79570090D02*
X138237228Y-78862983D01*
D11*
G36*
X128567585Y-90414717D02*
G01*
X128562285Y-90466078D01*
X128547209Y-90515198D01*
X128522357Y-90562077D01*
X128504326Y-90587152D01*
X128062491Y-91126685D01*
X128028178Y-91161796D01*
X127986151Y-91193577D01*
X127941972Y-91215471D01*
X127888849Y-91228385D01*
X127861235Y-91230000D01*
X127685380Y-91230000D01*
X127754745Y-90432791D01*
X127436741Y-90432791D01*
X127539078Y-90260844D01*
X127871737Y-90260844D01*
X127922784Y-90269453D01*
X127965038Y-90295282D01*
X127994577Y-90337181D01*
X128002896Y-90382965D01*
X128002163Y-90396643D01*
X127930600Y-91097131D01*
X128351186Y-90573475D01*
X128302306Y-90557993D01*
X128260843Y-90531788D01*
X128244207Y-90516078D01*
X128215323Y-90473669D01*
X128202614Y-90425090D01*
X128201953Y-90410076D01*
X128209475Y-90361751D01*
X128234601Y-90315677D01*
X128255443Y-90293572D01*
X128298800Y-90264103D01*
X128348270Y-90248235D01*
X128384647Y-90245212D01*
X128434492Y-90251158D01*
X128482681Y-90271205D01*
X128514584Y-90295526D01*
X128547111Y-90335758D01*
X128565216Y-90385388D01*
X128567585Y-90414717D01*
G37*
G36*
X129561165Y-90461612D02*
G01*
X129291277Y-91230000D01*
X129041905Y-91230000D01*
X129313258Y-90432791D01*
X129095638Y-90432791D01*
X129186985Y-90260844D01*
X129455408Y-90260844D01*
X129506243Y-90269805D01*
X129541137Y-90292595D01*
X129568008Y-90335025D01*
X129575575Y-90383454D01*
X129569369Y-90433312D01*
X129561165Y-90461612D01*
G37*
G36*
X130033042Y-91128394D02*
G01*
X130021914Y-91178395D01*
X129997871Y-91211193D01*
X129956626Y-91238064D01*
X129913363Y-91245631D01*
X129864507Y-91235912D01*
X129828611Y-91211193D01*
X129800567Y-91168045D01*
X129793928Y-91128394D01*
X129804902Y-91078394D01*
X129828611Y-91045596D01*
X129869804Y-91018725D01*
X129913363Y-91011158D01*
X129961907Y-91020877D01*
X129997871Y-91045596D01*
X130025314Y-91086116D01*
X130033042Y-91128394D01*
G37*
G36*
X130703207Y-90248134D02*
G01*
X130757101Y-90256900D01*
X130807286Y-90271509D01*
X130853763Y-90291962D01*
X130896530Y-90318259D01*
X130935589Y-90350399D01*
X130950174Y-90364891D01*
X130983174Y-90404128D01*
X131010581Y-90447037D01*
X131032395Y-90493620D01*
X131048615Y-90543876D01*
X131059242Y-90597805D01*
X131064276Y-90655407D01*
X131064724Y-90679476D01*
X131062556Y-90739251D01*
X131056053Y-90796331D01*
X131045215Y-90850717D01*
X131030041Y-90902409D01*
X131010532Y-90951406D01*
X130986688Y-90997709D01*
X130958509Y-91041318D01*
X130925994Y-91082233D01*
X130888480Y-91120529D01*
X130848111Y-91153719D01*
X130804888Y-91181804D01*
X130758810Y-91204781D01*
X130709877Y-91222653D01*
X130658090Y-91235419D01*
X130603448Y-91243078D01*
X130545952Y-91245631D01*
X130488542Y-91242739D01*
X130434769Y-91234063D01*
X130384634Y-91219603D01*
X130338136Y-91199358D01*
X130295275Y-91173330D01*
X130256052Y-91141518D01*
X130241381Y-91127173D01*
X130208240Y-91088212D01*
X130180716Y-91045519D01*
X130158810Y-90999092D01*
X130142520Y-90948933D01*
X130132303Y-90897341D01*
X130415038Y-90897341D01*
X130417990Y-90957149D01*
X130426845Y-91006821D01*
X130445263Y-91053046D01*
X130483044Y-91091972D01*
X130535938Y-91104947D01*
X130584845Y-91095188D01*
X130628983Y-91065911D01*
X130663021Y-91025282D01*
X130688709Y-90980470D01*
X130711965Y-90925701D01*
X130720586Y-90901004D01*
X130735010Y-90853283D01*
X130746990Y-90805525D01*
X130758138Y-90748169D01*
X130765766Y-90690762D01*
X130769873Y-90633303D01*
X130770655Y-90594968D01*
X130768789Y-90545967D01*
X130761208Y-90493903D01*
X130744412Y-90444902D01*
X130714204Y-90406313D01*
X130665684Y-90386713D01*
X130651221Y-90385896D01*
X130602481Y-90395690D01*
X130558416Y-90425072D01*
X130524367Y-90465848D01*
X130498617Y-90510820D01*
X130475251Y-90565787D01*
X130466573Y-90590572D01*
X130451727Y-90638891D01*
X130439396Y-90687067D01*
X130429582Y-90735100D01*
X130421127Y-90792550D01*
X130416296Y-90849794D01*
X130415038Y-90897341D01*
X130132303Y-90897341D01*
X130131848Y-90895041D01*
X130126792Y-90837416D01*
X130126343Y-90813321D01*
X130128533Y-90753921D01*
X130135105Y-90697107D01*
X130146058Y-90642882D01*
X130161392Y-90591243D01*
X130181107Y-90542193D01*
X130205203Y-90495729D01*
X130233680Y-90451853D01*
X130266538Y-90410565D01*
X130304144Y-90371810D01*
X130344543Y-90338223D01*
X130387736Y-90309803D01*
X130433722Y-90286550D01*
X130482502Y-90268465D01*
X130534076Y-90255547D01*
X130588443Y-90247796D01*
X130645603Y-90245212D01*
X130703207Y-90248134D01*
G37*
D10*
G36*
X99216748Y-100253527D02*
G01*
X99476622Y-100231545D01*
X99498861Y-100330974D01*
X99537711Y-100423958D01*
X99597637Y-100504973D01*
X99610467Y-100517309D01*
X99695349Y-100575653D01*
X99792459Y-100607069D01*
X99863991Y-100613053D01*
X99970084Y-100599600D01*
X100065491Y-100559243D01*
X100150213Y-100491981D01*
X100165875Y-100475300D01*
X100225853Y-100390742D01*
X100266202Y-100292043D01*
X100285589Y-100192438D01*
X100289951Y-100110401D01*
X100282501Y-100007910D01*
X100256312Y-99906257D01*
X100211266Y-99819055D01*
X100170760Y-99768949D01*
X100089368Y-99703004D01*
X99993570Y-99661482D01*
X99895033Y-99644996D01*
X99859595Y-99643897D01*
X99759698Y-99654743D01*
X99662418Y-99690435D01*
X99644173Y-99700561D01*
X99562971Y-99760739D01*
X99499802Y-99835944D01*
X99492742Y-99847107D01*
X99260711Y-99816821D01*
X99455617Y-98784162D01*
X100457501Y-98784162D01*
X100457501Y-99018635D01*
X99653454Y-99018635D01*
X99545010Y-99559877D01*
X99636937Y-99507732D01*
X99731001Y-99470484D01*
X99827202Y-99448136D01*
X99925540Y-99440687D01*
X100036995Y-99449476D01*
X100140548Y-99475843D01*
X100236201Y-99519787D01*
X100323954Y-99581310D01*
X100370551Y-99624357D01*
X100441356Y-99709549D01*
X100494771Y-99804838D01*
X100530795Y-99910225D01*
X100547831Y-100008593D01*
X100552267Y-100096235D01*
X100546669Y-100196556D01*
X100525986Y-100306955D01*
X100490062Y-100410201D01*
X100438898Y-100506295D01*
X100393021Y-100570554D01*
X100315335Y-100654057D01*
X100227722Y-100720283D01*
X100130183Y-100769232D01*
X100022718Y-100800906D01*
X99925582Y-100814103D01*
X99863991Y-100816263D01*
X99764414Y-100810853D01*
X99657228Y-100790868D01*
X99559718Y-100756156D01*
X99471885Y-100706718D01*
X99415073Y-100662390D01*
X99346311Y-100590065D01*
X99291761Y-100508156D01*
X99251422Y-100416664D01*
X99225296Y-100315588D01*
X99216748Y-100253527D01*
G37*
G36*
X101450104Y-100785000D02*
G01*
X100669504Y-98752899D01*
X100958199Y-98752899D01*
X101481856Y-100230568D01*
X101515679Y-100328808D01*
X101546256Y-100423493D01*
X101576424Y-100524530D01*
X101587369Y-100563715D01*
X101618109Y-100459607D01*
X101648222Y-100365909D01*
X101680654Y-100272212D01*
X101695812Y-100230568D01*
X102239986Y-98752899D01*
X102512072Y-98752899D01*
X101723656Y-100785000D01*
X101450104Y-100785000D01*
G37*
D12*
X143469673Y-60643409D02*
X143803006Y-60643409D01*
X143945863Y-61167219D02*
X143469673Y-61167219D01*
X143469673Y-61167219D02*
X143469673Y-60167219D01*
X143469673Y-60167219D02*
X143945863Y-60167219D01*
X144326816Y-61119600D02*
X144469673Y-61167219D01*
X144469673Y-61167219D02*
X144707768Y-61167219D01*
X144707768Y-61167219D02*
X144803006Y-61119600D01*
X144803006Y-61119600D02*
X144850625Y-61071980D01*
X144850625Y-61071980D02*
X144898244Y-60976742D01*
X144898244Y-60976742D02*
X144898244Y-60881504D01*
X144898244Y-60881504D02*
X144850625Y-60786266D01*
X144850625Y-60786266D02*
X144803006Y-60738647D01*
X144803006Y-60738647D02*
X144707768Y-60691028D01*
X144707768Y-60691028D02*
X144517292Y-60643409D01*
X144517292Y-60643409D02*
X144422054Y-60595790D01*
X144422054Y-60595790D02*
X144374435Y-60548171D01*
X144374435Y-60548171D02*
X144326816Y-60452933D01*
X144326816Y-60452933D02*
X144326816Y-60357695D01*
X144326816Y-60357695D02*
X144374435Y-60262457D01*
X144374435Y-60262457D02*
X144422054Y-60214838D01*
X144422054Y-60214838D02*
X144517292Y-60167219D01*
X144517292Y-60167219D02*
X144755387Y-60167219D01*
X144755387Y-60167219D02*
X144898244Y-60214838D01*
X145326816Y-61167219D02*
X145326816Y-60167219D01*
X145326816Y-60167219D02*
X145707768Y-60167219D01*
X145707768Y-60167219D02*
X145803006Y-60214838D01*
X145803006Y-60214838D02*
X145850625Y-60262457D01*
X145850625Y-60262457D02*
X145898244Y-60357695D01*
X145898244Y-60357695D02*
X145898244Y-60500552D01*
X145898244Y-60500552D02*
X145850625Y-60595790D01*
X145850625Y-60595790D02*
X145803006Y-60643409D01*
X145803006Y-60643409D02*
X145707768Y-60691028D01*
X145707768Y-60691028D02*
X145326816Y-60691028D01*
D10*
G36*
X140179832Y-74031395D02*
G01*
X140179832Y-73914159D01*
X140606280Y-73913426D01*
X140606280Y-74289316D01*
X140563020Y-74321556D01*
X140519152Y-74350103D01*
X140474677Y-74374958D01*
X140429593Y-74396118D01*
X140403558Y-74406552D01*
X140351062Y-74423649D01*
X140297862Y-74435861D01*
X140243961Y-74443189D01*
X140189357Y-74445631D01*
X140134706Y-74443390D01*
X140081944Y-74436667D01*
X140031071Y-74425461D01*
X139982087Y-74409773D01*
X139934992Y-74389603D01*
X139919713Y-74381884D01*
X139876371Y-74355886D01*
X139837201Y-74325887D01*
X139796778Y-74285831D01*
X139766650Y-74247163D01*
X139740696Y-74204493D01*
X139736775Y-74196992D01*
X139715775Y-74150658D01*
X139699120Y-74102332D01*
X139686810Y-74052015D01*
X139678844Y-73999705D01*
X139675223Y-73945403D01*
X139674982Y-73926859D01*
X139677137Y-73872134D01*
X139683603Y-73818782D01*
X139694379Y-73766804D01*
X139709466Y-73716200D01*
X139728863Y-73666970D01*
X139736287Y-73650865D01*
X139761257Y-73605106D01*
X139790005Y-73564002D01*
X139822531Y-73527552D01*
X139865254Y-73490908D01*
X139913119Y-73460600D01*
X139957669Y-73439434D01*
X140004676Y-73422647D01*
X140054138Y-73410239D01*
X140106055Y-73402210D01*
X140160429Y-73398561D01*
X140179099Y-73398318D01*
X140232375Y-73400501D01*
X140283025Y-73407049D01*
X140331049Y-73417964D01*
X140376448Y-73433244D01*
X140423148Y-73455074D01*
X140467923Y-73484450D01*
X140505208Y-73519216D01*
X140514933Y-73530697D01*
X140543994Y-73573473D01*
X140566071Y-73618293D01*
X140584283Y-73669103D01*
X140591137Y-73693607D01*
X140470969Y-73726580D01*
X140454054Y-73678225D01*
X140432639Y-73634296D01*
X140414549Y-73607390D01*
X140379708Y-73572668D01*
X140337392Y-73546371D01*
X140318562Y-73537780D01*
X140269744Y-73521855D01*
X140217079Y-73513280D01*
X140179832Y-73511646D01*
X140130401Y-73513888D01*
X140080054Y-73521635D01*
X140030238Y-73536548D01*
X140021807Y-73539979D01*
X139975405Y-73563735D01*
X139933275Y-73595130D01*
X139914096Y-73614473D01*
X139883978Y-73653312D01*
X139858306Y-73698566D01*
X139850837Y-73715589D01*
X139833954Y-73764102D01*
X139821894Y-73814630D01*
X139814658Y-73867172D01*
X139812247Y-73921730D01*
X139813878Y-73971458D01*
X139819905Y-74025524D01*
X139830374Y-74075336D01*
X139847776Y-74127054D01*
X139858653Y-74150830D01*
X139884481Y-74193908D01*
X139919815Y-74235292D01*
X139961796Y-74269179D01*
X139993475Y-74287606D01*
X140038492Y-74307161D01*
X140090778Y-74322481D01*
X140144803Y-74330731D01*
X140181786Y-74332302D01*
X140235548Y-74329011D01*
X140288451Y-74319136D01*
X140335330Y-74304620D01*
X140350802Y-74298597D01*
X140398487Y-74277102D01*
X140441904Y-74252465D01*
X140475854Y-74226789D01*
X140475854Y-74031395D01*
X140179832Y-74031395D01*
G37*
G36*
X140795568Y-74430000D02*
G01*
X140795568Y-73413949D01*
X140932100Y-73413949D01*
X141461130Y-74211646D01*
X141461130Y-73413949D01*
X141588869Y-73413949D01*
X141588869Y-74430000D01*
X141452337Y-74430000D01*
X140923307Y-73631570D01*
X140923307Y-74430000D01*
X140795568Y-74430000D01*
G37*
G36*
X142209307Y-73414865D02*
G01*
X142263154Y-73418085D01*
X142312651Y-73424382D01*
X142333321Y-73428604D01*
X142384879Y-73444317D01*
X142431476Y-73466423D01*
X142473112Y-73494921D01*
X142480844Y-73501388D01*
X142518244Y-73537704D01*
X142550575Y-73578752D01*
X142577839Y-73624532D01*
X142600034Y-73675045D01*
X142615452Y-73722656D01*
X142627082Y-73773166D01*
X142634926Y-73826574D01*
X142638983Y-73882880D01*
X142639602Y-73916357D01*
X142638316Y-73965744D01*
X142633698Y-74019096D01*
X142625722Y-74069151D01*
X142612735Y-74121521D01*
X142596543Y-74169370D01*
X142575696Y-74216826D01*
X142549294Y-74262084D01*
X142544103Y-74269532D01*
X142511645Y-74309992D01*
X142473925Y-74345917D01*
X142452512Y-74361856D01*
X142408602Y-74386383D01*
X142361988Y-74404300D01*
X142332100Y-74412658D01*
X142281258Y-74422531D01*
X142230730Y-74427950D01*
X142181748Y-74429932D01*
X142170411Y-74430000D01*
X141806978Y-74430000D01*
X141806978Y-74312763D01*
X141940334Y-74312763D01*
X142155268Y-74312763D01*
X142207922Y-74311275D01*
X142258449Y-74306133D01*
X142308000Y-74295113D01*
X142311584Y-74293956D01*
X142356770Y-74274555D01*
X142397651Y-74245170D01*
X142401953Y-74240956D01*
X142434537Y-74200198D01*
X142459216Y-74154629D01*
X142475715Y-74111507D01*
X142488584Y-74063033D01*
X142497242Y-74009111D01*
X142501401Y-73956606D01*
X142502337Y-73914403D01*
X142500508Y-73856763D01*
X142495021Y-73804379D01*
X142483997Y-73749906D01*
X142467993Y-73702585D01*
X142450314Y-73667718D01*
X142419410Y-73623722D01*
X142384952Y-73588729D01*
X142342496Y-73560407D01*
X142324284Y-73552191D01*
X142274962Y-73539391D01*
X142225890Y-73533668D01*
X142173576Y-73531370D01*
X142151849Y-73531186D01*
X141940334Y-73531186D01*
X141940334Y-74312763D01*
X141806978Y-74312763D01*
X141806978Y-73413949D01*
X142154047Y-73413949D01*
X142209307Y-73414865D01*
G37*
G36*
X136079832Y-83431395D02*
G01*
X136079832Y-83314159D01*
X136506280Y-83313426D01*
X136506280Y-83689316D01*
X136463020Y-83721556D01*
X136419152Y-83750103D01*
X136374677Y-83774958D01*
X136329593Y-83796118D01*
X136303558Y-83806552D01*
X136251062Y-83823649D01*
X136197862Y-83835861D01*
X136143961Y-83843189D01*
X136089357Y-83845631D01*
X136034706Y-83843390D01*
X135981944Y-83836667D01*
X135931071Y-83825461D01*
X135882087Y-83809773D01*
X135834992Y-83789603D01*
X135819713Y-83781884D01*
X135776371Y-83755886D01*
X135737201Y-83725887D01*
X135696778Y-83685831D01*
X135666650Y-83647163D01*
X135640696Y-83604493D01*
X135636775Y-83596992D01*
X135615775Y-83550658D01*
X135599120Y-83502332D01*
X135586810Y-83452015D01*
X135578844Y-83399705D01*
X135575223Y-83345403D01*
X135574982Y-83326859D01*
X135577137Y-83272134D01*
X135583603Y-83218782D01*
X135594379Y-83166804D01*
X135609466Y-83116200D01*
X135628863Y-83066970D01*
X135636287Y-83050865D01*
X135661257Y-83005106D01*
X135690005Y-82964002D01*
X135722531Y-82927552D01*
X135765254Y-82890908D01*
X135813119Y-82860600D01*
X135857669Y-82839434D01*
X135904676Y-82822647D01*
X135954138Y-82810239D01*
X136006055Y-82802210D01*
X136060429Y-82798561D01*
X136079099Y-82798318D01*
X136132375Y-82800501D01*
X136183025Y-82807049D01*
X136231049Y-82817964D01*
X136276448Y-82833244D01*
X136323148Y-82855074D01*
X136367923Y-82884450D01*
X136405208Y-82919216D01*
X136414933Y-82930697D01*
X136443994Y-82973473D01*
X136466071Y-83018293D01*
X136484283Y-83069103D01*
X136491137Y-83093607D01*
X136370969Y-83126580D01*
X136354054Y-83078225D01*
X136332639Y-83034296D01*
X136314549Y-83007390D01*
X136279708Y-82972668D01*
X136237392Y-82946371D01*
X136218562Y-82937780D01*
X136169744Y-82921855D01*
X136117079Y-82913280D01*
X136079832Y-82911646D01*
X136030401Y-82913888D01*
X135980054Y-82921635D01*
X135930238Y-82936548D01*
X135921807Y-82939979D01*
X135875405Y-82963735D01*
X135833275Y-82995130D01*
X135814096Y-83014473D01*
X135783978Y-83053312D01*
X135758306Y-83098566D01*
X135750837Y-83115589D01*
X135733954Y-83164102D01*
X135721894Y-83214630D01*
X135714658Y-83267172D01*
X135712247Y-83321730D01*
X135713878Y-83371458D01*
X135719905Y-83425524D01*
X135730374Y-83475336D01*
X135747776Y-83527054D01*
X135758653Y-83550830D01*
X135784481Y-83593908D01*
X135819815Y-83635292D01*
X135861796Y-83669179D01*
X135893475Y-83687606D01*
X135938492Y-83707161D01*
X135990778Y-83722481D01*
X136044803Y-83730731D01*
X136081786Y-83732302D01*
X136135548Y-83729011D01*
X136188451Y-83719136D01*
X136235330Y-83704620D01*
X136250802Y-83698597D01*
X136298487Y-83677102D01*
X136341904Y-83652465D01*
X136375854Y-83626789D01*
X136375854Y-83431395D01*
X136079832Y-83431395D01*
G37*
G36*
X136695568Y-83830000D02*
G01*
X136695568Y-82813949D01*
X136832100Y-82813949D01*
X137361130Y-83611646D01*
X137361130Y-82813949D01*
X137488869Y-82813949D01*
X137488869Y-83830000D01*
X137352337Y-83830000D01*
X136823307Y-83031570D01*
X136823307Y-83830000D01*
X136695568Y-83830000D01*
G37*
G36*
X138109307Y-82814865D02*
G01*
X138163154Y-82818085D01*
X138212651Y-82824382D01*
X138233321Y-82828604D01*
X138284879Y-82844317D01*
X138331476Y-82866423D01*
X138373112Y-82894921D01*
X138380844Y-82901388D01*
X138418244Y-82937704D01*
X138450575Y-82978752D01*
X138477839Y-83024532D01*
X138500034Y-83075045D01*
X138515452Y-83122656D01*
X138527082Y-83173166D01*
X138534926Y-83226574D01*
X138538983Y-83282880D01*
X138539602Y-83316357D01*
X138538316Y-83365744D01*
X138533698Y-83419096D01*
X138525722Y-83469151D01*
X138512735Y-83521521D01*
X138496543Y-83569370D01*
X138475696Y-83616826D01*
X138449294Y-83662084D01*
X138444103Y-83669532D01*
X138411645Y-83709992D01*
X138373925Y-83745917D01*
X138352512Y-83761856D01*
X138308602Y-83786383D01*
X138261988Y-83804300D01*
X138232100Y-83812658D01*
X138181258Y-83822531D01*
X138130730Y-83827950D01*
X138081748Y-83829932D01*
X138070411Y-83830000D01*
X137706978Y-83830000D01*
X137706978Y-83712763D01*
X137840334Y-83712763D01*
X138055268Y-83712763D01*
X138107922Y-83711275D01*
X138158449Y-83706133D01*
X138208000Y-83695113D01*
X138211584Y-83693956D01*
X138256770Y-83674555D01*
X138297651Y-83645170D01*
X138301953Y-83640956D01*
X138334537Y-83600198D01*
X138359216Y-83554629D01*
X138375715Y-83511507D01*
X138388584Y-83463033D01*
X138397242Y-83409111D01*
X138401401Y-83356606D01*
X138402337Y-83314403D01*
X138400508Y-83256763D01*
X138395021Y-83204379D01*
X138383997Y-83149906D01*
X138367993Y-83102585D01*
X138350314Y-83067718D01*
X138319410Y-83023722D01*
X138284952Y-82988729D01*
X138242496Y-82960407D01*
X138224284Y-82952191D01*
X138174962Y-82939391D01*
X138125890Y-82933668D01*
X138073576Y-82931370D01*
X138051849Y-82931186D01*
X137840334Y-82931186D01*
X137840334Y-83712763D01*
X137706978Y-83712763D01*
X137706978Y-82813949D01*
X138054047Y-82813949D01*
X138109307Y-82814865D01*
G37*
G36*
X116035700Y-86015857D02*
G01*
X116084778Y-86021582D01*
X116133166Y-86032584D01*
X116165806Y-86044480D01*
X116210251Y-86069226D01*
X116247539Y-86101823D01*
X116275226Y-86138269D01*
X116297753Y-86182452D01*
X116311664Y-86232232D01*
X116314794Y-86270648D01*
X116308989Y-86321631D01*
X116291575Y-86370195D01*
X116279623Y-86391793D01*
X116248379Y-86431234D01*
X116207037Y-86464562D01*
X116173866Y-86483384D01*
X116221906Y-86501824D01*
X116267444Y-86529473D01*
X116304729Y-86564659D01*
X116314305Y-86576685D01*
X116340194Y-86620109D01*
X116356494Y-86668257D01*
X116363206Y-86721127D01*
X116363398Y-86732267D01*
X116359208Y-86784898D01*
X116346637Y-86834712D01*
X116333600Y-86866357D01*
X116309260Y-86908901D01*
X116275827Y-86948464D01*
X116259839Y-86962100D01*
X116217070Y-86988293D01*
X116169653Y-87007090D01*
X116149441Y-87012903D01*
X116100386Y-87022636D01*
X116049629Y-87027979D01*
X115998931Y-87029933D01*
X115987020Y-87030000D01*
X115603070Y-87030000D01*
X115603070Y-86912763D01*
X115736427Y-86912763D01*
X115987020Y-86912763D01*
X116036100Y-86911828D01*
X116077634Y-86907878D01*
X116124697Y-86894629D01*
X116154570Y-86879302D01*
X116190444Y-86845231D01*
X116205373Y-86821172D01*
X116221567Y-86774400D01*
X116225401Y-86733000D01*
X116219068Y-86681602D01*
X116198353Y-86634112D01*
X116196580Y-86631395D01*
X116162142Y-86594637D01*
X116116468Y-86570823D01*
X116067536Y-86559437D01*
X116014482Y-86554337D01*
X115969190Y-86553237D01*
X115736427Y-86553237D01*
X115736427Y-86912763D01*
X115603070Y-86912763D01*
X115603070Y-86436001D01*
X115736427Y-86436001D01*
X115954047Y-86436001D01*
X116004546Y-86434856D01*
X116055504Y-86429944D01*
X116081053Y-86424277D01*
X116125750Y-86404188D01*
X116157745Y-86374207D01*
X116178482Y-86328999D01*
X116183391Y-86286036D01*
X116176636Y-86236024D01*
X116159455Y-86197620D01*
X116123712Y-86160812D01*
X116090823Y-86145352D01*
X116039512Y-86135668D01*
X115987920Y-86132071D01*
X115937683Y-86131186D01*
X115736427Y-86131186D01*
X115736427Y-86436001D01*
X115603070Y-86436001D01*
X115603070Y-86013949D01*
X115980914Y-86013949D01*
X116035700Y-86015857D01*
G37*
G36*
X117373342Y-87030000D02*
G01*
X117221667Y-87030000D01*
X117104187Y-86717369D01*
X116683112Y-86717369D01*
X116572470Y-87030000D01*
X116431053Y-87030000D01*
X116591656Y-86607948D01*
X116721458Y-86607948D01*
X117062909Y-86607948D01*
X116957885Y-86328778D01*
X116940709Y-86282656D01*
X116922862Y-86232885D01*
X116905357Y-86181327D01*
X116889349Y-86130112D01*
X116886322Y-86119706D01*
X116875789Y-86168097D01*
X116863241Y-86216304D01*
X116848678Y-86264329D01*
X116832100Y-86312170D01*
X116721458Y-86607948D01*
X116591656Y-86607948D01*
X116817690Y-86013949D01*
X116961304Y-86013949D01*
X117373342Y-87030000D01*
G37*
G36*
X117627110Y-87030000D02*
G01*
X117627110Y-86131186D01*
X117295429Y-86131186D01*
X117295429Y-86013949D01*
X118093614Y-86013949D01*
X118093614Y-86131186D01*
X117760467Y-86131186D01*
X117760467Y-87030000D01*
X117627110Y-87030000D01*
G37*
G36*
X118481960Y-87030000D02*
G01*
X118481960Y-86131186D01*
X118150279Y-86131186D01*
X118150279Y-86013949D01*
X118948464Y-86013949D01*
X118948464Y-86131186D01*
X118615317Y-86131186D01*
X118615317Y-87030000D01*
X118481960Y-87030000D01*
G37*
G36*
X125263258Y-97297341D02*
G01*
X125388799Y-97286106D01*
X125397783Y-97336995D01*
X125413903Y-97384874D01*
X125430321Y-97415554D01*
X125462838Y-97453448D01*
X125503373Y-97482775D01*
X125531681Y-97497376D01*
X125581025Y-97515036D01*
X125629340Y-97524729D01*
X125680945Y-97528364D01*
X125686287Y-97528394D01*
X125736570Y-97525710D01*
X125786619Y-97516660D01*
X125820865Y-97505680D01*
X125866359Y-97482365D01*
X125904155Y-97447820D01*
X125907815Y-97442909D01*
X125930113Y-97398351D01*
X125936392Y-97355715D01*
X125927659Y-97305921D01*
X125908792Y-97272428D01*
X125872461Y-97239455D01*
X125825945Y-97215413D01*
X125818178Y-97212344D01*
X125769031Y-97196543D01*
X125716022Y-97182203D01*
X125664053Y-97169127D01*
X125638904Y-97163007D01*
X125589800Y-97150505D01*
X125539891Y-97136266D01*
X125492584Y-97120452D01*
X125444487Y-97099504D01*
X125399280Y-97071005D01*
X125362732Y-97038235D01*
X125337020Y-97004738D01*
X125315439Y-96960499D01*
X125303818Y-96912414D01*
X125301605Y-96878220D01*
X125306713Y-96826538D01*
X125322038Y-96777281D01*
X125344836Y-96734605D01*
X125375872Y-96695927D01*
X125414636Y-96663546D01*
X125461128Y-96637461D01*
X125471353Y-96633000D01*
X125519552Y-96616235D01*
X125570727Y-96604956D01*
X125624876Y-96599164D01*
X125656245Y-96598318D01*
X125710528Y-96600592D01*
X125761514Y-96607416D01*
X125809202Y-96618788D01*
X125853593Y-96634710D01*
X125898549Y-96657767D01*
X125941158Y-96689776D01*
X125976039Y-96728512D01*
X125984996Y-96741444D01*
X126009673Y-96787373D01*
X126026002Y-96836928D01*
X126033983Y-96890108D01*
X126034577Y-96901179D01*
X125906838Y-96910949D01*
X125897165Y-96860292D01*
X125877263Y-96812798D01*
X125844242Y-96771244D01*
X125836985Y-96764891D01*
X125794357Y-96738874D01*
X125746529Y-96723697D01*
X125696490Y-96716759D01*
X125661618Y-96715554D01*
X125611857Y-96717693D01*
X125562657Y-96725375D01*
X125512664Y-96742835D01*
X125485275Y-96760251D01*
X125451638Y-96796200D01*
X125432017Y-96844740D01*
X125430076Y-96867718D01*
X125439907Y-96917543D01*
X125469399Y-96957599D01*
X125515607Y-96984252D01*
X125565799Y-97002326D01*
X125613621Y-97016042D01*
X125670167Y-97029895D01*
X125718437Y-97041199D01*
X125769797Y-97054182D01*
X125820665Y-97068526D01*
X125871745Y-97085697D01*
X125893161Y-97094619D01*
X125938968Y-97119282D01*
X125981301Y-97150719D01*
X126017453Y-97190203D01*
X126022854Y-97197934D01*
X126046771Y-97243172D01*
X126060761Y-97292912D01*
X126064863Y-97342037D01*
X126060355Y-97391659D01*
X126046831Y-97439467D01*
X126024291Y-97485463D01*
X126018702Y-97494445D01*
X125986067Y-97536071D01*
X125945562Y-97571496D01*
X125902378Y-97598076D01*
X125886566Y-97605819D01*
X125836369Y-97625064D01*
X125788894Y-97636883D01*
X125738732Y-97643726D01*
X125692637Y-97645631D01*
X125642901Y-97644197D01*
X125588803Y-97638899D01*
X125538936Y-97629698D01*
X125487126Y-97614402D01*
X125463293Y-97604842D01*
X125419620Y-97581899D01*
X125376435Y-97549993D01*
X125339549Y-97511634D01*
X125318457Y-97482477D01*
X125292860Y-97434752D01*
X125275146Y-97383627D01*
X125266018Y-97335328D01*
X125263258Y-97297341D01*
G37*
G36*
X126192114Y-97365240D02*
G01*
X126315701Y-97348632D01*
X126328188Y-97396915D01*
X126346688Y-97442586D01*
X126375701Y-97485969D01*
X126387997Y-97498353D01*
X126429591Y-97526185D01*
X126477435Y-97541171D01*
X126512805Y-97544026D01*
X126564783Y-97538111D01*
X126611418Y-97520365D01*
X126652710Y-97490789D01*
X126660327Y-97483454D01*
X126692012Y-97442782D01*
X126711962Y-97396480D01*
X126720177Y-97344550D01*
X126720411Y-97333489D01*
X126714973Y-97283147D01*
X126696429Y-97234548D01*
X126664724Y-97193049D01*
X126622889Y-97161483D01*
X126573954Y-97143020D01*
X126523307Y-97137606D01*
X126472665Y-97142949D01*
X126435868Y-97151284D01*
X126449790Y-97034780D01*
X126469574Y-97036001D01*
X126522074Y-97031210D01*
X126570765Y-97016837D01*
X126611723Y-96995457D01*
X126647739Y-96962387D01*
X126669978Y-96914462D01*
X126674982Y-96870404D01*
X126667364Y-96819819D01*
X126642119Y-96773817D01*
X126628820Y-96759518D01*
X126587078Y-96731053D01*
X126536468Y-96717100D01*
X126510118Y-96715554D01*
X126459445Y-96721874D01*
X126412147Y-96742984D01*
X126389951Y-96760495D01*
X126358707Y-96800520D01*
X126338575Y-96848314D01*
X126328157Y-96895317D01*
X126204570Y-96873335D01*
X126217171Y-96821931D01*
X126235312Y-96775856D01*
X126262827Y-96729724D01*
X126297578Y-96690554D01*
X126307397Y-96681849D01*
X126350032Y-96652143D01*
X126397583Y-96630924D01*
X126450050Y-96618193D01*
X126499990Y-96614016D01*
X126507431Y-96613949D01*
X126557611Y-96617384D01*
X126609888Y-96629096D01*
X126659106Y-96649120D01*
X126702927Y-96676360D01*
X126739014Y-96709717D01*
X126765108Y-96745352D01*
X126787582Y-96792029D01*
X126799683Y-96840836D01*
X126801988Y-96874556D01*
X126796224Y-96925449D01*
X126778931Y-96972552D01*
X126767062Y-96993014D01*
X126733081Y-97032688D01*
X126691767Y-97062942D01*
X126663258Y-97077766D01*
X126710373Y-97092980D01*
X126755291Y-97118177D01*
X126792386Y-97152104D01*
X126801988Y-97163984D01*
X126828135Y-97208115D01*
X126844597Y-97258685D01*
X126851134Y-97309705D01*
X126851570Y-97327871D01*
X126846965Y-97384072D01*
X126833150Y-97436417D01*
X126810126Y-97484905D01*
X126777892Y-97529536D01*
X126755338Y-97553307D01*
X126717474Y-97584683D01*
X126668806Y-97613083D01*
X126615299Y-97632648D01*
X126565585Y-97642385D01*
X126512316Y-97645631D01*
X126456444Y-97641903D01*
X126404872Y-97630718D01*
X126357602Y-97612077D01*
X126314632Y-97585979D01*
X126292009Y-97567718D01*
X126257343Y-97531315D01*
X126229852Y-97490494D01*
X126209538Y-97445255D01*
X126196400Y-97395599D01*
X126192114Y-97365240D01*
G37*
G36*
X115963258Y-97297341D02*
G01*
X116088799Y-97286106D01*
X116097783Y-97336995D01*
X116113903Y-97384874D01*
X116130321Y-97415554D01*
X116162838Y-97453448D01*
X116203373Y-97482775D01*
X116231681Y-97497376D01*
X116281025Y-97515036D01*
X116329340Y-97524729D01*
X116380945Y-97528364D01*
X116386287Y-97528394D01*
X116436570Y-97525710D01*
X116486619Y-97516660D01*
X116520865Y-97505680D01*
X116566359Y-97482365D01*
X116604155Y-97447820D01*
X116607815Y-97442909D01*
X116630113Y-97398351D01*
X116636392Y-97355715D01*
X116627659Y-97305921D01*
X116608792Y-97272428D01*
X116572461Y-97239455D01*
X116525945Y-97215413D01*
X116518178Y-97212344D01*
X116469031Y-97196543D01*
X116416022Y-97182203D01*
X116364053Y-97169127D01*
X116338904Y-97163007D01*
X116289800Y-97150505D01*
X116239891Y-97136266D01*
X116192584Y-97120452D01*
X116144487Y-97099504D01*
X116099280Y-97071005D01*
X116062732Y-97038235D01*
X116037020Y-97004738D01*
X116015439Y-96960499D01*
X116003818Y-96912414D01*
X116001605Y-96878220D01*
X116006713Y-96826538D01*
X116022038Y-96777281D01*
X116044836Y-96734605D01*
X116075872Y-96695927D01*
X116114636Y-96663546D01*
X116161128Y-96637461D01*
X116171353Y-96633000D01*
X116219552Y-96616235D01*
X116270727Y-96604956D01*
X116324876Y-96599164D01*
X116356245Y-96598318D01*
X116410528Y-96600592D01*
X116461514Y-96607416D01*
X116509202Y-96618788D01*
X116553593Y-96634710D01*
X116598549Y-96657767D01*
X116641158Y-96689776D01*
X116676039Y-96728512D01*
X116684996Y-96741444D01*
X116709673Y-96787373D01*
X116726002Y-96836928D01*
X116733983Y-96890108D01*
X116734577Y-96901179D01*
X116606838Y-96910949D01*
X116597165Y-96860292D01*
X116577263Y-96812798D01*
X116544242Y-96771244D01*
X116536985Y-96764891D01*
X116494357Y-96738874D01*
X116446529Y-96723697D01*
X116396490Y-96716759D01*
X116361618Y-96715554D01*
X116311857Y-96717693D01*
X116262657Y-96725375D01*
X116212664Y-96742835D01*
X116185275Y-96760251D01*
X116151638Y-96796200D01*
X116132017Y-96844740D01*
X116130076Y-96867718D01*
X116139907Y-96917543D01*
X116169399Y-96957599D01*
X116215607Y-96984252D01*
X116265799Y-97002326D01*
X116313621Y-97016042D01*
X116370167Y-97029895D01*
X116418437Y-97041199D01*
X116469797Y-97054182D01*
X116520665Y-97068526D01*
X116571745Y-97085697D01*
X116593161Y-97094619D01*
X116638968Y-97119282D01*
X116681301Y-97150719D01*
X116717453Y-97190203D01*
X116722854Y-97197934D01*
X116746771Y-97243172D01*
X116760761Y-97292912D01*
X116764863Y-97342037D01*
X116760355Y-97391659D01*
X116746831Y-97439467D01*
X116724291Y-97485463D01*
X116718702Y-97494445D01*
X116686067Y-97536071D01*
X116645562Y-97571496D01*
X116602378Y-97598076D01*
X116586566Y-97605819D01*
X116536369Y-97625064D01*
X116488894Y-97636883D01*
X116438732Y-97643726D01*
X116392637Y-97645631D01*
X116342901Y-97644197D01*
X116288803Y-97638899D01*
X116238936Y-97629698D01*
X116187126Y-97614402D01*
X116163293Y-97604842D01*
X116119620Y-97581899D01*
X116076435Y-97549993D01*
X116039549Y-97511634D01*
X116018457Y-97482477D01*
X115992860Y-97434752D01*
X115975146Y-97383627D01*
X115966018Y-97335328D01*
X115963258Y-97297341D01*
G37*
G36*
X116891381Y-97364263D02*
G01*
X117021318Y-97353272D01*
X117032438Y-97402987D01*
X117051863Y-97449479D01*
X117081826Y-97489986D01*
X117088241Y-97496154D01*
X117130682Y-97525326D01*
X117179237Y-97541034D01*
X117215003Y-97544026D01*
X117268049Y-97537300D01*
X117315753Y-97517121D01*
X117358114Y-97483490D01*
X117365945Y-97475150D01*
X117395934Y-97432871D01*
X117416108Y-97383521D01*
X117425802Y-97333719D01*
X117427983Y-97292700D01*
X117424258Y-97241455D01*
X117411163Y-97190628D01*
X117388641Y-97147027D01*
X117368387Y-97121974D01*
X117327691Y-97089002D01*
X117279792Y-97068241D01*
X117230524Y-97059998D01*
X117212805Y-97059448D01*
X117162856Y-97064871D01*
X117114216Y-97082717D01*
X117105094Y-97087780D01*
X117064493Y-97117869D01*
X117032908Y-97155472D01*
X117029378Y-97161053D01*
X116913363Y-97145910D01*
X117010816Y-96629581D01*
X117511758Y-96629581D01*
X117511758Y-96746817D01*
X117109734Y-96746817D01*
X117055512Y-97017438D01*
X117101476Y-96991366D01*
X117148508Y-96972742D01*
X117196608Y-96961568D01*
X117245778Y-96957843D01*
X117301505Y-96962238D01*
X117353282Y-96975421D01*
X117401108Y-96997393D01*
X117444984Y-97028155D01*
X117468283Y-97049678D01*
X117503686Y-97092274D01*
X117530393Y-97139919D01*
X117548405Y-97192612D01*
X117556923Y-97241796D01*
X117559141Y-97285617D01*
X117556342Y-97335778D01*
X117546000Y-97390977D01*
X117528038Y-97442600D01*
X117502456Y-97490647D01*
X117479518Y-97522777D01*
X117440675Y-97564528D01*
X117396869Y-97597641D01*
X117348099Y-97622116D01*
X117294367Y-97637953D01*
X117245798Y-97644551D01*
X117215003Y-97645631D01*
X117165215Y-97642926D01*
X117111621Y-97632934D01*
X117062866Y-97615578D01*
X117018950Y-97590859D01*
X116990544Y-97568695D01*
X116956163Y-97532532D01*
X116928888Y-97491578D01*
X116908719Y-97445832D01*
X116895655Y-97395294D01*
X116891381Y-97364263D01*
G37*
G36*
X137059106Y-86065240D02*
G01*
X137182693Y-86048632D01*
X137195180Y-86096915D01*
X137213680Y-86142586D01*
X137242693Y-86185969D01*
X137254989Y-86198353D01*
X137296583Y-86226185D01*
X137344428Y-86241171D01*
X137379797Y-86244026D01*
X137431775Y-86238111D01*
X137478410Y-86220365D01*
X137519702Y-86190789D01*
X137527320Y-86183454D01*
X137559005Y-86142782D01*
X137578954Y-86096480D01*
X137587169Y-86044550D01*
X137587404Y-86033489D01*
X137581965Y-85983147D01*
X137563421Y-85934548D01*
X137531716Y-85893049D01*
X137489881Y-85861483D01*
X137440947Y-85843020D01*
X137390300Y-85837606D01*
X137339657Y-85842949D01*
X137302861Y-85851284D01*
X137316782Y-85734780D01*
X137336566Y-85736001D01*
X137389066Y-85731210D01*
X137437757Y-85716837D01*
X137478715Y-85695457D01*
X137514731Y-85662387D01*
X137536971Y-85614462D01*
X137541974Y-85570404D01*
X137534356Y-85519819D01*
X137509111Y-85473817D01*
X137495812Y-85459518D01*
X137454070Y-85431053D01*
X137403460Y-85417100D01*
X137377110Y-85415554D01*
X137326438Y-85421874D01*
X137279139Y-85442984D01*
X137256943Y-85460495D01*
X137225699Y-85500520D01*
X137205567Y-85548314D01*
X137195150Y-85595317D01*
X137071563Y-85573335D01*
X137084163Y-85521931D01*
X137102304Y-85475856D01*
X137129819Y-85429724D01*
X137164571Y-85390554D01*
X137174389Y-85381849D01*
X137217025Y-85352143D01*
X137264576Y-85330924D01*
X137317042Y-85318193D01*
X137366982Y-85314016D01*
X137374424Y-85313949D01*
X137424603Y-85317384D01*
X137476881Y-85329096D01*
X137526099Y-85349120D01*
X137569920Y-85376360D01*
X137606006Y-85409717D01*
X137632100Y-85445352D01*
X137654574Y-85492029D01*
X137666676Y-85540836D01*
X137668981Y-85574556D01*
X137663216Y-85625449D01*
X137645924Y-85672552D01*
X137634054Y-85693014D01*
X137600073Y-85732688D01*
X137558760Y-85762942D01*
X137530251Y-85777766D01*
X137577366Y-85792980D01*
X137622284Y-85818177D01*
X137659378Y-85852104D01*
X137668981Y-85863984D01*
X137695127Y-85908115D01*
X137711590Y-85958685D01*
X137718126Y-86009705D01*
X137718562Y-86027871D01*
X137713957Y-86084072D01*
X137700143Y-86136417D01*
X137677118Y-86184905D01*
X137644885Y-86229536D01*
X137622330Y-86253307D01*
X137584466Y-86284683D01*
X137535798Y-86313083D01*
X137482291Y-86332648D01*
X137432577Y-86342385D01*
X137379309Y-86345631D01*
X137323436Y-86341903D01*
X137271865Y-86330718D01*
X137224594Y-86312077D01*
X137181625Y-86285979D01*
X137159002Y-86267718D01*
X137124335Y-86231315D01*
X137096845Y-86190494D01*
X137076530Y-86145255D01*
X137063392Y-86095599D01*
X137059106Y-86065240D01*
G37*
G36*
X138175052Y-86330000D02*
G01*
X137784752Y-85313949D01*
X137929099Y-85313949D01*
X138190928Y-86052784D01*
X138207839Y-86101904D01*
X138223128Y-86149246D01*
X138238212Y-86199765D01*
X138243684Y-86219357D01*
X138259054Y-86167303D01*
X138274111Y-86120454D01*
X138290327Y-86073606D01*
X138297906Y-86052784D01*
X138569993Y-85313949D01*
X138706036Y-85313949D01*
X138311828Y-86330000D01*
X138175052Y-86330000D01*
G37*
G36*
X136858374Y-93864263D02*
G01*
X136988311Y-93853272D01*
X136999430Y-93902987D01*
X137018855Y-93949479D01*
X137048818Y-93989986D01*
X137055233Y-93996154D01*
X137097674Y-94025326D01*
X137146229Y-94041034D01*
X137181995Y-94044026D01*
X137235042Y-94037300D01*
X137282745Y-94017121D01*
X137325106Y-93983490D01*
X137332937Y-93975150D01*
X137362926Y-93932871D01*
X137383101Y-93883521D01*
X137392794Y-93833719D01*
X137394975Y-93792700D01*
X137391250Y-93741455D01*
X137378156Y-93690628D01*
X137355633Y-93647027D01*
X137335380Y-93621974D01*
X137294684Y-93589002D01*
X137246785Y-93568241D01*
X137197516Y-93559998D01*
X137179797Y-93559448D01*
X137129849Y-93564871D01*
X137081209Y-93582717D01*
X137072086Y-93587780D01*
X137031485Y-93617869D01*
X136999901Y-93655472D01*
X136996371Y-93661053D01*
X136880355Y-93645910D01*
X136977808Y-93129581D01*
X137478750Y-93129581D01*
X137478750Y-93246817D01*
X137076727Y-93246817D01*
X137022505Y-93517438D01*
X137068468Y-93491366D01*
X137115500Y-93472742D01*
X137163601Y-93461568D01*
X137212770Y-93457843D01*
X137268497Y-93462238D01*
X137320274Y-93475421D01*
X137368100Y-93497393D01*
X137411977Y-93528155D01*
X137435275Y-93549678D01*
X137470678Y-93592274D01*
X137497385Y-93639919D01*
X137515397Y-93692612D01*
X137523915Y-93741796D01*
X137526133Y-93785617D01*
X137523334Y-93835778D01*
X137512993Y-93890977D01*
X137495031Y-93942600D01*
X137469449Y-93990647D01*
X137446510Y-94022777D01*
X137407667Y-94064528D01*
X137363861Y-94097641D01*
X137315091Y-94122116D01*
X137261359Y-94137953D01*
X137212791Y-94144551D01*
X137181995Y-94145631D01*
X137132207Y-94142926D01*
X137078614Y-94132934D01*
X137029859Y-94115578D01*
X136985942Y-94090859D01*
X136957536Y-94068695D01*
X136923155Y-94032532D01*
X136895880Y-93991578D01*
X136875711Y-93945832D01*
X136862648Y-93895294D01*
X136858374Y-93864263D01*
G37*
G36*
X137975052Y-94130000D02*
G01*
X137584752Y-93113949D01*
X137729099Y-93113949D01*
X137990928Y-93852784D01*
X138007839Y-93901904D01*
X138023128Y-93949246D01*
X138038212Y-93999765D01*
X138043684Y-94019357D01*
X138059054Y-93967303D01*
X138074111Y-93920454D01*
X138090327Y-93873606D01*
X138097906Y-93852784D01*
X138369993Y-93113949D01*
X138506036Y-93113949D01*
X138111828Y-94130000D01*
X137975052Y-94130000D01*
G37*
X136058716Y-69855708D02*
X135486297Y-69754693D01*
X135654655Y-70259769D02*
X134947548Y-69552662D01*
X134947548Y-69552662D02*
X135216922Y-69283288D01*
X135216922Y-69283288D02*
X135317938Y-69249617D01*
X135317938Y-69249617D02*
X135385281Y-69249617D01*
X135385281Y-69249617D02*
X135486297Y-69283288D01*
X135486297Y-69283288D02*
X135587312Y-69384304D01*
X135587312Y-69384304D02*
X135620984Y-69485319D01*
X135620984Y-69485319D02*
X135620984Y-69552662D01*
X135620984Y-69552662D02*
X135587312Y-69653678D01*
X135587312Y-69653678D02*
X135317938Y-69923052D01*
X136294419Y-69552662D02*
X136429106Y-69485319D01*
X136429106Y-69485319D02*
X136597464Y-69316960D01*
X136597464Y-69316960D02*
X136631136Y-69215945D01*
X136631136Y-69215945D02*
X136631136Y-69148601D01*
X136631136Y-69148601D02*
X136597464Y-69047586D01*
X136597464Y-69047586D02*
X136530121Y-68980243D01*
X136530121Y-68980243D02*
X136429106Y-68946571D01*
X136429106Y-68946571D02*
X136361762Y-68946571D01*
X136361762Y-68946571D02*
X136260747Y-68980243D01*
X136260747Y-68980243D02*
X136092388Y-69081258D01*
X136092388Y-69081258D02*
X135991373Y-69114930D01*
X135991373Y-69114930D02*
X135924029Y-69114930D01*
X135924029Y-69114930D02*
X135823014Y-69081258D01*
X135823014Y-69081258D02*
X135755671Y-69013914D01*
X135755671Y-69013914D02*
X135721999Y-68912899D01*
X135721999Y-68912899D02*
X135721999Y-68845556D01*
X135721999Y-68845556D02*
X135755671Y-68744540D01*
X135755671Y-68744540D02*
X135924029Y-68576182D01*
X135924029Y-68576182D02*
X136058716Y-68508838D01*
X136227075Y-68273136D02*
X136631136Y-67869075D01*
X137136212Y-68778212D02*
X136429106Y-68071105D01*
G36*
X102579832Y-74131395D02*
G01*
X102579832Y-74014159D01*
X103006280Y-74013426D01*
X103006280Y-74389316D01*
X102963020Y-74421556D01*
X102919152Y-74450103D01*
X102874677Y-74474958D01*
X102829593Y-74496118D01*
X102803558Y-74506552D01*
X102751062Y-74523649D01*
X102697862Y-74535861D01*
X102643961Y-74543189D01*
X102589357Y-74545631D01*
X102534706Y-74543390D01*
X102481944Y-74536667D01*
X102431071Y-74525461D01*
X102382087Y-74509773D01*
X102334992Y-74489603D01*
X102319713Y-74481884D01*
X102276371Y-74455886D01*
X102237201Y-74425887D01*
X102196778Y-74385831D01*
X102166650Y-74347163D01*
X102140696Y-74304493D01*
X102136775Y-74296992D01*
X102115775Y-74250658D01*
X102099120Y-74202332D01*
X102086810Y-74152015D01*
X102078844Y-74099705D01*
X102075223Y-74045403D01*
X102074982Y-74026859D01*
X102077137Y-73972134D01*
X102083603Y-73918782D01*
X102094379Y-73866804D01*
X102109466Y-73816200D01*
X102128863Y-73766970D01*
X102136287Y-73750865D01*
X102161257Y-73705106D01*
X102190005Y-73664002D01*
X102222531Y-73627552D01*
X102265254Y-73590908D01*
X102313119Y-73560600D01*
X102357669Y-73539434D01*
X102404676Y-73522647D01*
X102454138Y-73510239D01*
X102506055Y-73502210D01*
X102560429Y-73498561D01*
X102579099Y-73498318D01*
X102632375Y-73500501D01*
X102683025Y-73507049D01*
X102731049Y-73517964D01*
X102776448Y-73533244D01*
X102823148Y-73555074D01*
X102867923Y-73584450D01*
X102905208Y-73619216D01*
X102914933Y-73630697D01*
X102943994Y-73673473D01*
X102966071Y-73718293D01*
X102984283Y-73769103D01*
X102991137Y-73793607D01*
X102870969Y-73826580D01*
X102854054Y-73778225D01*
X102832639Y-73734296D01*
X102814549Y-73707390D01*
X102779708Y-73672668D01*
X102737392Y-73646371D01*
X102718562Y-73637780D01*
X102669744Y-73621855D01*
X102617079Y-73613280D01*
X102579832Y-73611646D01*
X102530401Y-73613888D01*
X102480054Y-73621635D01*
X102430238Y-73636548D01*
X102421807Y-73639979D01*
X102375405Y-73663735D01*
X102333275Y-73695130D01*
X102314096Y-73714473D01*
X102283978Y-73753312D01*
X102258306Y-73798566D01*
X102250837Y-73815589D01*
X102233954Y-73864102D01*
X102221894Y-73914630D01*
X102214658Y-73967172D01*
X102212247Y-74021730D01*
X102213878Y-74071458D01*
X102219905Y-74125524D01*
X102230374Y-74175336D01*
X102247776Y-74227054D01*
X102258653Y-74250830D01*
X102284481Y-74293908D01*
X102319815Y-74335292D01*
X102361796Y-74369179D01*
X102393475Y-74387606D01*
X102438492Y-74407161D01*
X102490778Y-74422481D01*
X102544803Y-74430731D01*
X102581786Y-74432302D01*
X102635548Y-74429011D01*
X102688451Y-74419136D01*
X102735330Y-74404620D01*
X102750802Y-74398597D01*
X102798487Y-74377102D01*
X102841904Y-74352465D01*
X102875854Y-74326789D01*
X102875854Y-74131395D01*
X102579832Y-74131395D01*
G37*
G36*
X103195568Y-74530000D02*
G01*
X103195568Y-73513949D01*
X103332100Y-73513949D01*
X103861130Y-74311646D01*
X103861130Y-73513949D01*
X103988869Y-73513949D01*
X103988869Y-74530000D01*
X103852337Y-74530000D01*
X103323307Y-73731570D01*
X103323307Y-74530000D01*
X103195568Y-74530000D01*
G37*
G36*
X104609307Y-73514865D02*
G01*
X104663154Y-73518085D01*
X104712651Y-73524382D01*
X104733321Y-73528604D01*
X104784879Y-73544317D01*
X104831476Y-73566423D01*
X104873112Y-73594921D01*
X104880844Y-73601388D01*
X104918244Y-73637704D01*
X104950575Y-73678752D01*
X104977839Y-73724532D01*
X105000034Y-73775045D01*
X105015452Y-73822656D01*
X105027082Y-73873166D01*
X105034926Y-73926574D01*
X105038983Y-73982880D01*
X105039602Y-74016357D01*
X105038316Y-74065744D01*
X105033698Y-74119096D01*
X105025722Y-74169151D01*
X105012735Y-74221521D01*
X104996543Y-74269370D01*
X104975696Y-74316826D01*
X104949294Y-74362084D01*
X104944103Y-74369532D01*
X104911645Y-74409992D01*
X104873925Y-74445917D01*
X104852512Y-74461856D01*
X104808602Y-74486383D01*
X104761988Y-74504300D01*
X104732100Y-74512658D01*
X104681258Y-74522531D01*
X104630730Y-74527950D01*
X104581748Y-74529932D01*
X104570411Y-74530000D01*
X104206978Y-74530000D01*
X104206978Y-74412763D01*
X104340334Y-74412763D01*
X104555268Y-74412763D01*
X104607922Y-74411275D01*
X104658449Y-74406133D01*
X104708000Y-74395113D01*
X104711584Y-74393956D01*
X104756770Y-74374555D01*
X104797651Y-74345170D01*
X104801953Y-74340956D01*
X104834537Y-74300198D01*
X104859216Y-74254629D01*
X104875715Y-74211507D01*
X104888584Y-74163033D01*
X104897242Y-74109111D01*
X104901401Y-74056606D01*
X104902337Y-74014403D01*
X104900508Y-73956763D01*
X104895021Y-73904379D01*
X104883997Y-73849906D01*
X104867993Y-73802585D01*
X104850314Y-73767718D01*
X104819410Y-73723722D01*
X104784952Y-73688729D01*
X104742496Y-73660407D01*
X104724284Y-73652191D01*
X104674962Y-73639391D01*
X104625890Y-73633668D01*
X104573576Y-73631370D01*
X104551849Y-73631186D01*
X104340334Y-73631186D01*
X104340334Y-74412763D01*
X104206978Y-74412763D01*
X104206978Y-73513949D01*
X104554047Y-73513949D01*
X104609307Y-73514865D01*
G37*
D12*
X99841101Y-61467219D02*
X99507768Y-60991028D01*
X99269673Y-61467219D02*
X99269673Y-60467219D01*
X99269673Y-60467219D02*
X99650625Y-60467219D01*
X99650625Y-60467219D02*
X99745863Y-60514838D01*
X99745863Y-60514838D02*
X99793482Y-60562457D01*
X99793482Y-60562457D02*
X99841101Y-60657695D01*
X99841101Y-60657695D02*
X99841101Y-60800552D01*
X99841101Y-60800552D02*
X99793482Y-60895790D01*
X99793482Y-60895790D02*
X99745863Y-60943409D01*
X99745863Y-60943409D02*
X99650625Y-60991028D01*
X99650625Y-60991028D02*
X99269673Y-60991028D01*
X100269673Y-61467219D02*
X100269673Y-60467219D01*
X100269673Y-60467219D02*
X100650625Y-60467219D01*
X100650625Y-60467219D02*
X100745863Y-60514838D01*
X100745863Y-60514838D02*
X100793482Y-60562457D01*
X100793482Y-60562457D02*
X100841101Y-60657695D01*
X100841101Y-60657695D02*
X100841101Y-60800552D01*
X100841101Y-60800552D02*
X100793482Y-60895790D01*
X100793482Y-60895790D02*
X100745863Y-60943409D01*
X100745863Y-60943409D02*
X100650625Y-60991028D01*
X100650625Y-60991028D02*
X100269673Y-60991028D01*
X101222054Y-60562457D02*
X101269673Y-60514838D01*
X101269673Y-60514838D02*
X101364911Y-60467219D01*
X101364911Y-60467219D02*
X101603006Y-60467219D01*
X101603006Y-60467219D02*
X101698244Y-60514838D01*
X101698244Y-60514838D02*
X101745863Y-60562457D01*
X101745863Y-60562457D02*
X101793482Y-60657695D01*
X101793482Y-60657695D02*
X101793482Y-60752933D01*
X101793482Y-60752933D02*
X101745863Y-60895790D01*
X101745863Y-60895790D02*
X101174435Y-61467219D01*
X101174435Y-61467219D02*
X101793482Y-61467219D01*
X102412530Y-60467219D02*
X102507768Y-60467219D01*
X102507768Y-60467219D02*
X102603006Y-60514838D01*
X102603006Y-60514838D02*
X102650625Y-60562457D01*
X102650625Y-60562457D02*
X102698244Y-60657695D01*
X102698244Y-60657695D02*
X102745863Y-60848171D01*
X102745863Y-60848171D02*
X102745863Y-61086266D01*
X102745863Y-61086266D02*
X102698244Y-61276742D01*
X102698244Y-61276742D02*
X102650625Y-61371980D01*
X102650625Y-61371980D02*
X102603006Y-61419600D01*
X102603006Y-61419600D02*
X102507768Y-61467219D01*
X102507768Y-61467219D02*
X102412530Y-61467219D01*
X102412530Y-61467219D02*
X102317292Y-61419600D01*
X102317292Y-61419600D02*
X102269673Y-61371980D01*
X102269673Y-61371980D02*
X102222054Y-61276742D01*
X102222054Y-61276742D02*
X102174435Y-61086266D01*
X102174435Y-61086266D02*
X102174435Y-60848171D01*
X102174435Y-60848171D02*
X102222054Y-60657695D01*
X102222054Y-60657695D02*
X102269673Y-60562457D01*
X102269673Y-60562457D02*
X102317292Y-60514838D01*
X102317292Y-60514838D02*
X102412530Y-60467219D01*
X103603006Y-60800552D02*
X103603006Y-61467219D01*
X103364911Y-60419600D02*
X103126816Y-61133885D01*
X103126816Y-61133885D02*
X103745863Y-61133885D01*
X104317292Y-60467219D02*
X104412530Y-60467219D01*
X104412530Y-60467219D02*
X104507768Y-60514838D01*
X104507768Y-60514838D02*
X104555387Y-60562457D01*
X104555387Y-60562457D02*
X104603006Y-60657695D01*
X104603006Y-60657695D02*
X104650625Y-60848171D01*
X104650625Y-60848171D02*
X104650625Y-61086266D01*
X104650625Y-61086266D02*
X104603006Y-61276742D01*
X104603006Y-61276742D02*
X104555387Y-61371980D01*
X104555387Y-61371980D02*
X104507768Y-61419600D01*
X104507768Y-61419600D02*
X104412530Y-61467219D01*
X104412530Y-61467219D02*
X104317292Y-61467219D01*
X104317292Y-61467219D02*
X104222054Y-61419600D01*
X104222054Y-61419600D02*
X104174435Y-61371980D01*
X104174435Y-61371980D02*
X104126816Y-61276742D01*
X104126816Y-61276742D02*
X104079197Y-61086266D01*
X104079197Y-61086266D02*
X104079197Y-60848171D01*
X104079197Y-60848171D02*
X104126816Y-60657695D01*
X104126816Y-60657695D02*
X104174435Y-60562457D01*
X104174435Y-60562457D02*
X104222054Y-60514838D01*
X104222054Y-60514838D02*
X104317292Y-60467219D01*
D10*
G36*
X120663258Y-97297341D02*
G01*
X120788799Y-97286106D01*
X120797783Y-97336995D01*
X120813903Y-97384874D01*
X120830321Y-97415554D01*
X120862838Y-97453448D01*
X120903373Y-97482775D01*
X120931681Y-97497376D01*
X120981025Y-97515036D01*
X121029340Y-97524729D01*
X121080945Y-97528364D01*
X121086287Y-97528394D01*
X121136570Y-97525710D01*
X121186619Y-97516660D01*
X121220865Y-97505680D01*
X121266359Y-97482365D01*
X121304155Y-97447820D01*
X121307815Y-97442909D01*
X121330113Y-97398351D01*
X121336392Y-97355715D01*
X121327659Y-97305921D01*
X121308792Y-97272428D01*
X121272461Y-97239455D01*
X121225945Y-97215413D01*
X121218178Y-97212344D01*
X121169031Y-97196543D01*
X121116022Y-97182203D01*
X121064053Y-97169127D01*
X121038904Y-97163007D01*
X120989800Y-97150505D01*
X120939891Y-97136266D01*
X120892584Y-97120452D01*
X120844487Y-97099504D01*
X120799280Y-97071005D01*
X120762732Y-97038235D01*
X120737020Y-97004738D01*
X120715439Y-96960499D01*
X120703818Y-96912414D01*
X120701605Y-96878220D01*
X120706713Y-96826538D01*
X120722038Y-96777281D01*
X120744836Y-96734605D01*
X120775872Y-96695927D01*
X120814636Y-96663546D01*
X120861128Y-96637461D01*
X120871353Y-96633000D01*
X120919552Y-96616235D01*
X120970727Y-96604956D01*
X121024876Y-96599164D01*
X121056245Y-96598318D01*
X121110528Y-96600592D01*
X121161514Y-96607416D01*
X121209202Y-96618788D01*
X121253593Y-96634710D01*
X121298549Y-96657767D01*
X121341158Y-96689776D01*
X121376039Y-96728512D01*
X121384996Y-96741444D01*
X121409673Y-96787373D01*
X121426002Y-96836928D01*
X121433983Y-96890108D01*
X121434577Y-96901179D01*
X121306838Y-96910949D01*
X121297165Y-96860292D01*
X121277263Y-96812798D01*
X121244242Y-96771244D01*
X121236985Y-96764891D01*
X121194357Y-96738874D01*
X121146529Y-96723697D01*
X121096490Y-96716759D01*
X121061618Y-96715554D01*
X121011857Y-96717693D01*
X120962657Y-96725375D01*
X120912664Y-96742835D01*
X120885275Y-96760251D01*
X120851638Y-96796200D01*
X120832017Y-96844740D01*
X120830076Y-96867718D01*
X120839907Y-96917543D01*
X120869399Y-96957599D01*
X120915607Y-96984252D01*
X120965799Y-97002326D01*
X121013621Y-97016042D01*
X121070167Y-97029895D01*
X121118437Y-97041199D01*
X121169797Y-97054182D01*
X121220665Y-97068526D01*
X121271745Y-97085697D01*
X121293161Y-97094619D01*
X121338968Y-97119282D01*
X121381301Y-97150719D01*
X121417453Y-97190203D01*
X121422854Y-97197934D01*
X121446771Y-97243172D01*
X121460761Y-97292912D01*
X121464863Y-97342037D01*
X121460355Y-97391659D01*
X121446831Y-97439467D01*
X121424291Y-97485463D01*
X121418702Y-97494445D01*
X121386067Y-97536071D01*
X121345562Y-97571496D01*
X121302378Y-97598076D01*
X121286566Y-97605819D01*
X121236369Y-97625064D01*
X121188894Y-97636883D01*
X121138732Y-97643726D01*
X121092637Y-97645631D01*
X121042901Y-97644197D01*
X120988803Y-97638899D01*
X120938936Y-97629698D01*
X120887126Y-97614402D01*
X120863293Y-97604842D01*
X120819620Y-97581899D01*
X120776435Y-97549993D01*
X120739549Y-97511634D01*
X120718457Y-97482477D01*
X120692860Y-97434752D01*
X120675146Y-97383627D01*
X120666018Y-97335328D01*
X120663258Y-97297341D01*
G37*
G36*
X122111374Y-97270474D02*
G01*
X122247418Y-97270474D01*
X122247418Y-97383803D01*
X122111374Y-97383803D01*
X122111374Y-97630000D01*
X121987787Y-97630000D01*
X121987787Y-97383803D01*
X121550837Y-97383803D01*
X121550837Y-97270474D01*
X121672470Y-97270474D01*
X121987787Y-97270474D01*
X121987787Y-96813740D01*
X121672470Y-97270474D01*
X121550837Y-97270474D01*
X122010502Y-96613949D01*
X122111374Y-96613949D01*
X122111374Y-97270474D01*
G37*
X108446321Y-68119968D02*
X108513665Y-68254655D01*
X108513665Y-68254655D02*
X108513665Y-68321999D01*
X108513665Y-68321999D02*
X108479993Y-68423014D01*
X108479993Y-68423014D02*
X108378978Y-68524029D01*
X108378978Y-68524029D02*
X108277962Y-68557701D01*
X108277962Y-68557701D02*
X108210619Y-68557701D01*
X108210619Y-68557701D02*
X108109604Y-68524029D01*
X108109604Y-68524029D02*
X107840230Y-68254655D01*
X107840230Y-68254655D02*
X108547337Y-67547548D01*
X108547337Y-67547548D02*
X108783039Y-67783251D01*
X108783039Y-67783251D02*
X108816711Y-67884266D01*
X108816711Y-67884266D02*
X108816711Y-67951610D01*
X108816711Y-67951610D02*
X108783039Y-68052625D01*
X108783039Y-68052625D02*
X108715695Y-68119968D01*
X108715695Y-68119968D02*
X108614680Y-68153640D01*
X108614680Y-68153640D02*
X108547337Y-68153640D01*
X108547337Y-68153640D02*
X108446321Y-68119968D01*
X108446321Y-68119968D02*
X108210619Y-67884266D01*
X109389130Y-68389342D02*
X109523817Y-68524029D01*
X109523817Y-68524029D02*
X109557489Y-68625045D01*
X109557489Y-68625045D02*
X109557489Y-68759732D01*
X109557489Y-68759732D02*
X109456474Y-68928090D01*
X109456474Y-68928090D02*
X109220772Y-69163793D01*
X109220772Y-69163793D02*
X109052413Y-69264808D01*
X109052413Y-69264808D02*
X108917726Y-69264808D01*
X108917726Y-69264808D02*
X108816711Y-69231136D01*
X108816711Y-69231136D02*
X108682024Y-69096449D01*
X108682024Y-69096449D02*
X108648352Y-68995434D01*
X108648352Y-68995434D02*
X108648352Y-68860747D01*
X108648352Y-68860747D02*
X108749367Y-68692388D01*
X108749367Y-68692388D02*
X108985069Y-68456686D01*
X108985069Y-68456686D02*
X109153428Y-68355671D01*
X109153428Y-68355671D02*
X109288115Y-68355671D01*
X109288115Y-68355671D02*
X109389130Y-68389342D01*
X110129909Y-69130121D02*
X110264596Y-69264808D01*
X110264596Y-69264808D02*
X110298268Y-69365823D01*
X110298268Y-69365823D02*
X110298268Y-69500510D01*
X110298268Y-69500510D02*
X110197252Y-69668869D01*
X110197252Y-69668869D02*
X109961550Y-69904571D01*
X109961550Y-69904571D02*
X109793191Y-70005586D01*
X109793191Y-70005586D02*
X109658504Y-70005586D01*
X109658504Y-70005586D02*
X109557489Y-69971915D01*
X109557489Y-69971915D02*
X109422802Y-69837228D01*
X109422802Y-69837228D02*
X109389130Y-69736212D01*
X109389130Y-69736212D02*
X109389130Y-69601525D01*
X109389130Y-69601525D02*
X109490146Y-69433167D01*
X109490146Y-69433167D02*
X109725848Y-69197464D01*
X109725848Y-69197464D02*
X109894207Y-69096449D01*
X109894207Y-69096449D02*
X110028894Y-69096449D01*
X110028894Y-69096449D02*
X110129909Y-69130121D01*
X110634985Y-69635197D02*
X111039046Y-70039258D01*
X110129909Y-70544334D02*
X110837016Y-69837228D01*
G36*
X134563258Y-97397341D02*
G01*
X134688799Y-97386106D01*
X134697783Y-97436995D01*
X134713903Y-97484874D01*
X134730321Y-97515554D01*
X134762838Y-97553448D01*
X134803373Y-97582775D01*
X134831681Y-97597376D01*
X134881025Y-97615036D01*
X134929340Y-97624729D01*
X134980945Y-97628364D01*
X134986287Y-97628394D01*
X135036570Y-97625710D01*
X135086619Y-97616660D01*
X135120865Y-97605680D01*
X135166359Y-97582365D01*
X135204155Y-97547820D01*
X135207815Y-97542909D01*
X135230113Y-97498351D01*
X135236392Y-97455715D01*
X135227659Y-97405921D01*
X135208792Y-97372428D01*
X135172461Y-97339455D01*
X135125945Y-97315413D01*
X135118178Y-97312344D01*
X135069031Y-97296543D01*
X135016022Y-97282203D01*
X134964053Y-97269127D01*
X134938904Y-97263007D01*
X134889800Y-97250505D01*
X134839891Y-97236266D01*
X134792584Y-97220452D01*
X134744487Y-97199504D01*
X134699280Y-97171005D01*
X134662732Y-97138235D01*
X134637020Y-97104738D01*
X134615439Y-97060499D01*
X134603818Y-97012414D01*
X134601605Y-96978220D01*
X134606713Y-96926538D01*
X134622038Y-96877281D01*
X134644836Y-96834605D01*
X134675872Y-96795927D01*
X134714636Y-96763546D01*
X134761128Y-96737461D01*
X134771353Y-96733000D01*
X134819552Y-96716235D01*
X134870727Y-96704956D01*
X134924876Y-96699164D01*
X134956245Y-96698318D01*
X135010528Y-96700592D01*
X135061514Y-96707416D01*
X135109202Y-96718788D01*
X135153593Y-96734710D01*
X135198549Y-96757767D01*
X135241158Y-96789776D01*
X135276039Y-96828512D01*
X135284996Y-96841444D01*
X135309673Y-96887373D01*
X135326002Y-96936928D01*
X135333983Y-96990108D01*
X135334577Y-97001179D01*
X135206838Y-97010949D01*
X135197165Y-96960292D01*
X135177263Y-96912798D01*
X135144242Y-96871244D01*
X135136985Y-96864891D01*
X135094357Y-96838874D01*
X135046529Y-96823697D01*
X134996490Y-96816759D01*
X134961618Y-96815554D01*
X134911857Y-96817693D01*
X134862657Y-96825375D01*
X134812664Y-96842835D01*
X134785275Y-96860251D01*
X134751638Y-96896200D01*
X134732017Y-96944740D01*
X134730076Y-96967718D01*
X134739907Y-97017543D01*
X134769399Y-97057599D01*
X134815607Y-97084252D01*
X134865799Y-97102326D01*
X134913621Y-97116042D01*
X134970167Y-97129895D01*
X135018437Y-97141199D01*
X135069797Y-97154182D01*
X135120665Y-97168526D01*
X135171745Y-97185697D01*
X135193161Y-97194619D01*
X135238968Y-97219282D01*
X135281301Y-97250719D01*
X135317453Y-97290203D01*
X135322854Y-97297934D01*
X135346771Y-97343172D01*
X135360761Y-97392912D01*
X135364863Y-97442037D01*
X135360355Y-97491659D01*
X135346831Y-97539467D01*
X135324291Y-97585463D01*
X135318702Y-97594445D01*
X135286067Y-97636071D01*
X135245562Y-97671496D01*
X135202378Y-97698076D01*
X135186566Y-97705819D01*
X135136369Y-97725064D01*
X135088894Y-97736883D01*
X135038732Y-97743726D01*
X134992637Y-97745631D01*
X134942901Y-97744197D01*
X134888803Y-97738899D01*
X134838936Y-97729698D01*
X134787126Y-97714402D01*
X134763293Y-97704842D01*
X134719620Y-97681899D01*
X134676435Y-97649993D01*
X134639549Y-97611634D01*
X134618457Y-97582477D01*
X134592860Y-97534752D01*
X134575146Y-97483627D01*
X134566018Y-97435328D01*
X134563258Y-97397341D01*
G37*
G36*
X135957152Y-97730000D02*
G01*
X135833565Y-97730000D01*
X135833565Y-96938164D01*
X135796128Y-96970587D01*
X135754930Y-97000309D01*
X135716329Y-97024626D01*
X135672446Y-97049394D01*
X135627536Y-97071790D01*
X135586147Y-97089106D01*
X135586147Y-96964054D01*
X135630311Y-96941926D01*
X135677721Y-96914262D01*
X135721864Y-96884064D01*
X135762740Y-96851331D01*
X135767620Y-96847062D01*
X135803615Y-96813005D01*
X135837322Y-96775312D01*
X135866345Y-96734201D01*
X135877529Y-96713949D01*
X135957152Y-96713949D01*
X135957152Y-97730000D01*
G37*
G36*
X110963258Y-97297341D02*
G01*
X111088799Y-97286106D01*
X111097783Y-97336995D01*
X111113903Y-97384874D01*
X111130321Y-97415554D01*
X111162838Y-97453448D01*
X111203373Y-97482775D01*
X111231681Y-97497376D01*
X111281025Y-97515036D01*
X111329340Y-97524729D01*
X111380945Y-97528364D01*
X111386287Y-97528394D01*
X111436570Y-97525710D01*
X111486619Y-97516660D01*
X111520865Y-97505680D01*
X111566359Y-97482365D01*
X111604155Y-97447820D01*
X111607815Y-97442909D01*
X111630113Y-97398351D01*
X111636392Y-97355715D01*
X111627659Y-97305921D01*
X111608792Y-97272428D01*
X111572461Y-97239455D01*
X111525945Y-97215413D01*
X111518178Y-97212344D01*
X111469031Y-97196543D01*
X111416022Y-97182203D01*
X111364053Y-97169127D01*
X111338904Y-97163007D01*
X111289800Y-97150505D01*
X111239891Y-97136266D01*
X111192584Y-97120452D01*
X111144487Y-97099504D01*
X111099280Y-97071005D01*
X111062732Y-97038235D01*
X111037020Y-97004738D01*
X111015439Y-96960499D01*
X111003818Y-96912414D01*
X111001605Y-96878220D01*
X111006713Y-96826538D01*
X111022038Y-96777281D01*
X111044836Y-96734605D01*
X111075872Y-96695927D01*
X111114636Y-96663546D01*
X111161128Y-96637461D01*
X111171353Y-96633000D01*
X111219552Y-96616235D01*
X111270727Y-96604956D01*
X111324876Y-96599164D01*
X111356245Y-96598318D01*
X111410528Y-96600592D01*
X111461514Y-96607416D01*
X111509202Y-96618788D01*
X111553593Y-96634710D01*
X111598549Y-96657767D01*
X111641158Y-96689776D01*
X111676039Y-96728512D01*
X111684996Y-96741444D01*
X111709673Y-96787373D01*
X111726002Y-96836928D01*
X111733983Y-96890108D01*
X111734577Y-96901179D01*
X111606838Y-96910949D01*
X111597165Y-96860292D01*
X111577263Y-96812798D01*
X111544242Y-96771244D01*
X111536985Y-96764891D01*
X111494357Y-96738874D01*
X111446529Y-96723697D01*
X111396490Y-96716759D01*
X111361618Y-96715554D01*
X111311857Y-96717693D01*
X111262657Y-96725375D01*
X111212664Y-96742835D01*
X111185275Y-96760251D01*
X111151638Y-96796200D01*
X111132017Y-96844740D01*
X111130076Y-96867718D01*
X111139907Y-96917543D01*
X111169399Y-96957599D01*
X111215607Y-96984252D01*
X111265799Y-97002326D01*
X111313621Y-97016042D01*
X111370167Y-97029895D01*
X111418437Y-97041199D01*
X111469797Y-97054182D01*
X111520665Y-97068526D01*
X111571745Y-97085697D01*
X111593161Y-97094619D01*
X111638968Y-97119282D01*
X111681301Y-97150719D01*
X111717453Y-97190203D01*
X111722854Y-97197934D01*
X111746771Y-97243172D01*
X111760761Y-97292912D01*
X111764863Y-97342037D01*
X111760355Y-97391659D01*
X111746831Y-97439467D01*
X111724291Y-97485463D01*
X111718702Y-97494445D01*
X111686067Y-97536071D01*
X111645562Y-97571496D01*
X111602378Y-97598076D01*
X111586566Y-97605819D01*
X111536369Y-97625064D01*
X111488894Y-97636883D01*
X111438732Y-97643726D01*
X111392637Y-97645631D01*
X111342901Y-97644197D01*
X111288803Y-97638899D01*
X111238936Y-97629698D01*
X111187126Y-97614402D01*
X111163293Y-97604842D01*
X111119620Y-97581899D01*
X111076435Y-97549993D01*
X111039549Y-97511634D01*
X111018457Y-97482477D01*
X110992860Y-97434752D01*
X110975146Y-97383627D01*
X110966018Y-97335328D01*
X110963258Y-97297341D01*
G37*
G36*
X112297213Y-96617210D02*
G01*
X112349256Y-96628922D01*
X112395895Y-96649152D01*
X112437130Y-96677901D01*
X112441905Y-96682093D01*
X112476083Y-96719294D01*
X112502660Y-96762998D01*
X112521635Y-96813206D01*
X112532001Y-96862471D01*
X112533007Y-96869916D01*
X112410153Y-96879685D01*
X112395773Y-96829036D01*
X112374135Y-96784530D01*
X112363258Y-96770265D01*
X112322409Y-96736926D01*
X112274965Y-96718974D01*
X112239672Y-96715554D01*
X112190711Y-96721772D01*
X112144376Y-96742233D01*
X112135868Y-96748039D01*
X112098651Y-96781480D01*
X112067264Y-96824042D01*
X112043789Y-96870648D01*
X112027498Y-96921278D01*
X112017266Y-96975396D01*
X112011594Y-97029788D01*
X112009170Y-97081637D01*
X112008862Y-97099993D01*
X112041929Y-97059755D01*
X112079671Y-97027368D01*
X112118039Y-97004738D01*
X112167406Y-96985687D01*
X112218422Y-96975429D01*
X112253349Y-96973475D01*
X112305749Y-96977846D01*
X112354595Y-96990959D01*
X112399889Y-97012815D01*
X112441630Y-97043412D01*
X112463886Y-97064822D01*
X112497767Y-97107238D01*
X112523325Y-97154774D01*
X112540562Y-97207430D01*
X112548714Y-97256637D01*
X112550837Y-97300516D01*
X112547591Y-97352916D01*
X112537854Y-97403230D01*
X112521625Y-97451457D01*
X112509804Y-97477348D01*
X112484426Y-97520221D01*
X112450518Y-97560788D01*
X112410600Y-97593914D01*
X112397452Y-97602400D01*
X112350994Y-97625198D01*
X112300767Y-97639552D01*
X112246771Y-97645462D01*
X112235519Y-97645631D01*
X112179552Y-97641621D01*
X112127602Y-97629591D01*
X112079671Y-97609541D01*
X112035759Y-97581471D01*
X111995866Y-97545382D01*
X111983461Y-97531570D01*
X111950342Y-97483602D01*
X111927977Y-97435692D01*
X111910371Y-97380566D01*
X111899712Y-97331271D01*
X111894921Y-97297341D01*
X112028157Y-97297341D01*
X112032632Y-97349399D01*
X112046055Y-97399603D01*
X112055268Y-97422149D01*
X112080843Y-97465894D01*
X112116319Y-97502546D01*
X112130983Y-97513007D01*
X112177852Y-97535272D01*
X112226868Y-97543905D01*
X112233565Y-97544026D01*
X112284730Y-97536407D01*
X112330758Y-97513549D01*
X112368143Y-97479546D01*
X112397896Y-97434714D01*
X112415252Y-97386616D01*
X112423186Y-97337699D01*
X112424563Y-97304180D01*
X112421083Y-97253759D01*
X112408847Y-97203786D01*
X112384919Y-97156646D01*
X112368876Y-97136385D01*
X112331257Y-97104056D01*
X112283374Y-97082324D01*
X112233934Y-97075140D01*
X112228681Y-97075080D01*
X112178802Y-97081067D01*
X112129665Y-97101482D01*
X112090204Y-97132613D01*
X112086531Y-97136385D01*
X112055748Y-97178445D01*
X112036366Y-97227995D01*
X112028670Y-97278993D01*
X112028157Y-97297341D01*
X111894921Y-97297341D01*
X111892099Y-97277359D01*
X111887531Y-97218828D01*
X111886008Y-97155680D01*
X111886955Y-97102175D01*
X111889795Y-97051478D01*
X111896527Y-96988250D01*
X111906624Y-96930013D01*
X111920088Y-96876768D01*
X111936918Y-96828515D01*
X111962689Y-96775218D01*
X111993719Y-96729720D01*
X112031283Y-96690376D01*
X112073449Y-96659172D01*
X112120218Y-96636109D01*
X112171589Y-96621185D01*
X112227562Y-96614401D01*
X112247243Y-96613949D01*
X112297213Y-96617210D01*
G37*
D13*
X122228572Y-90471185D02*
X123371429Y-90471185D01*
D14*
X115206129Y-72976946D02*
X115374487Y-73145305D01*
X115138785Y-73246320D02*
X115374487Y-73145305D01*
X115374487Y-73145305D02*
X115475503Y-72909603D01*
X115408159Y-73381007D02*
X115374487Y-73145305D01*
X115374487Y-73145305D02*
X115610190Y-73178977D01*
X115206129Y-72976946D02*
X115374487Y-73145305D01*
X115138785Y-73246320D02*
X115374487Y-73145305D01*
X115374487Y-73145305D02*
X115475503Y-72909603D01*
X115408159Y-73381007D02*
X115374487Y-73145305D01*
X115374487Y-73145305D02*
X115610190Y-73178977D01*
D15*
%TO.C,U9*%
X113600000Y-29500000D02*
X113600000Y-35700000D01*
X113600000Y-29500000D02*
X132000000Y-29500000D01*
X113600000Y-54350000D02*
X113600000Y-55350000D01*
X113600000Y-55350000D02*
X115100000Y-55350000D01*
X132000000Y-29500000D02*
X132000000Y-35700000D01*
X132000000Y-55350000D02*
X130500000Y-55350000D01*
X132000000Y-55350000D02*
X132000000Y-54350000D01*
X113600000Y-36375000D02*
X113100000Y-36375000D01*
X113600000Y-35875000D01*
X113600000Y-36375000D01*
G36*
X113600000Y-36375000D02*
G01*
X113100000Y-36375000D01*
X113600000Y-35875000D01*
X113600000Y-36375000D01*
G37*
D16*
%TO.C,J1*%
X105069200Y-83402800D02*
X105069200Y-89397200D01*
X105069200Y-89397200D02*
X115330800Y-89397200D01*
X115330800Y-83402800D02*
X105069200Y-83402800D01*
X115330800Y-89397200D02*
X115330800Y-83402800D01*
D17*
X114851000Y-86970200D02*
G75*
G02*
X114089000Y-86970200I-381000J0D01*
G01*
X114089000Y-86970200D02*
G75*
G02*
X114851000Y-86970200I381000J0D01*
G01*
D15*
%TO.C,D1*%
X102950000Y-58200000D02*
X107850000Y-58200000D01*
X107850000Y-54600000D02*
X102950000Y-54600000D01*
X107850000Y-58200000D02*
X107850000Y-57300000D01*
D16*
%TO.C,J13*%
X102902801Y-90564300D02*
X102902801Y-100825900D01*
X102902801Y-100825900D02*
X108897201Y-100825900D01*
X108897201Y-90564300D02*
X102902801Y-90564300D01*
X108897201Y-100825900D02*
X108897201Y-90564300D01*
D17*
X105710801Y-102603900D02*
G75*
G02*
X104948801Y-102603900I-381000J0D01*
G01*
X104948801Y-102603900D02*
G75*
G02*
X105710801Y-102603900I381000J0D01*
G01*
D15*
%TO.C,D7*%
X133600000Y-56835000D02*
X136060000Y-56835000D01*
X136060000Y-55365000D02*
X133600000Y-55365000D01*
X136060000Y-56835000D02*
X136060000Y-55365000D01*
%TO.C,D10*%
X109250000Y-97810000D02*
X109250000Y-94550000D01*
X109250000Y-97810000D02*
X110950000Y-97810000D01*
X110950000Y-97810000D02*
X110950000Y-94550000D01*
%TO.C,R29*%
X145054724Y-55877500D02*
X144545276Y-55877500D01*
X145054724Y-56922500D02*
X144545276Y-56922500D01*
%TO.C,C7*%
X124053733Y-95190000D02*
X124346267Y-95190000D01*
X124053733Y-96210000D02*
X124346267Y-96210000D01*
D18*
%TO.C,_*%
G36*
X122014323Y-87311629D02*
G01*
X122238673Y-87313430D01*
X122430639Y-87315370D01*
X122593335Y-87317545D01*
X122729878Y-87320053D01*
X122843381Y-87322992D01*
X122936960Y-87326457D01*
X123013731Y-87330548D01*
X123076808Y-87335360D01*
X123129307Y-87340992D01*
X123174342Y-87347540D01*
X123176651Y-87347927D01*
X123458983Y-87405432D01*
X123711874Y-87478337D01*
X123938445Y-87567897D01*
X124141814Y-87675364D01*
X124325101Y-87801992D01*
X124344252Y-87817210D01*
X124509998Y-87973312D01*
X124652292Y-88154937D01*
X124769967Y-88359975D01*
X124861857Y-88586316D01*
X124926796Y-88831851D01*
X124937862Y-88891195D01*
X124942248Y-88936907D01*
X124933530Y-88955096D01*
X124926346Y-88955995D01*
X124906007Y-88953511D01*
X124852750Y-88946736D01*
X124768857Y-88935966D01*
X124656612Y-88921495D01*
X124518299Y-88903620D01*
X124356200Y-88882637D01*
X124172599Y-88858842D01*
X123969779Y-88832529D01*
X123750024Y-88803996D01*
X123515616Y-88773537D01*
X123268840Y-88741450D01*
X123011979Y-88708028D01*
X122968624Y-88702385D01*
X121033893Y-88450537D01*
X121029207Y-87877468D01*
X121024522Y-87304399D01*
X122014323Y-87311629D01*
G37*
G36*
X121082705Y-88923384D02*
G01*
X121111377Y-88924865D01*
X121171569Y-88928711D01*
X121260704Y-88934733D01*
X121376206Y-88942741D01*
X121515499Y-88952547D01*
X121676007Y-88963960D01*
X121855153Y-88976791D01*
X122050363Y-88990851D01*
X122259059Y-89005951D01*
X122478665Y-89021901D01*
X122706607Y-89038512D01*
X122940306Y-89055594D01*
X123177188Y-89072959D01*
X123414676Y-89090416D01*
X123650194Y-89107777D01*
X123881166Y-89124851D01*
X124105016Y-89141451D01*
X124319168Y-89157386D01*
X124521045Y-89172467D01*
X124708073Y-89186504D01*
X124877674Y-89199309D01*
X125027272Y-89210692D01*
X125154292Y-89220463D01*
X125256158Y-89228434D01*
X125330292Y-89234414D01*
X125374120Y-89238215D01*
X125385185Y-89239643D01*
X125344328Y-89241558D01*
X125271548Y-89245206D01*
X125169624Y-89250437D01*
X125041339Y-89257104D01*
X124889474Y-89265057D01*
X124716812Y-89274146D01*
X124526134Y-89284224D01*
X124320222Y-89295140D01*
X124101857Y-89306745D01*
X123873822Y-89318892D01*
X123638898Y-89331430D01*
X123399866Y-89344211D01*
X123159509Y-89357085D01*
X122920609Y-89369904D01*
X122685946Y-89382519D01*
X122458303Y-89394780D01*
X122240462Y-89406539D01*
X122035204Y-89417646D01*
X121845311Y-89427952D01*
X121673565Y-89437309D01*
X121522748Y-89445568D01*
X121395640Y-89452578D01*
X121295025Y-89458192D01*
X121223683Y-89462261D01*
X121184397Y-89464634D01*
X121180329Y-89464914D01*
X121025018Y-89476271D01*
X121025018Y-89199264D01*
X121025018Y-88922257D01*
X121082705Y-88923384D01*
G37*
G36*
X124938440Y-89583987D02*
G01*
X124944450Y-89604405D01*
X124941545Y-89648442D01*
X124938524Y-89672187D01*
X124928195Y-89733151D01*
X124911673Y-89813869D01*
X124891992Y-89899812D01*
X124885425Y-89926432D01*
X124805742Y-90176378D01*
X124697997Y-90404614D01*
X124562046Y-90611325D01*
X124397748Y-90796695D01*
X124204958Y-90960910D01*
X123983534Y-91104153D01*
X123967051Y-91113348D01*
X123910280Y-91145947D01*
X123868051Y-91172549D01*
X123847943Y-91188314D01*
X123847240Y-91189815D01*
X123855158Y-91207679D01*
X123877453Y-91252668D01*
X123911941Y-91320508D01*
X123956433Y-91406926D01*
X124008743Y-91507648D01*
X124060238Y-91606114D01*
X124117654Y-91715865D01*
X124169208Y-91814995D01*
X124212718Y-91899256D01*
X124246000Y-91964404D01*
X124266869Y-92006192D01*
X124273236Y-92020307D01*
X124255900Y-92021498D01*
X124205549Y-92022637D01*
X124124667Y-92023711D01*
X124015738Y-92024708D01*
X123881246Y-92025615D01*
X123723677Y-92026420D01*
X123545513Y-92027111D01*
X123349240Y-92027674D01*
X123137342Y-92028097D01*
X122912302Y-92028369D01*
X122676606Y-92028476D01*
X122649127Y-92028477D01*
X121025018Y-92028477D01*
X121025018Y-90990112D01*
X121025211Y-90801782D01*
X121025769Y-90624449D01*
X121026657Y-90461218D01*
X121027838Y-90315196D01*
X121029279Y-90189491D01*
X121030945Y-90087210D01*
X121032800Y-90011459D01*
X121034809Y-89965345D01*
X121036692Y-89951747D01*
X121055569Y-89950069D01*
X121107493Y-89945180D01*
X121190178Y-89937302D01*
X121301340Y-89926655D01*
X121438692Y-89913458D01*
X121599948Y-89897933D01*
X121782823Y-89880299D01*
X121985030Y-89860777D01*
X122204285Y-89839586D01*
X122438300Y-89816948D01*
X122684790Y-89793083D01*
X122941469Y-89768210D01*
X122970724Y-89765374D01*
X123228810Y-89740378D01*
X123477238Y-89716367D01*
X123713697Y-89693561D01*
X123935872Y-89672182D01*
X124141451Y-89652450D01*
X124328121Y-89634587D01*
X124493568Y-89618813D01*
X124635479Y-89605350D01*
X124751541Y-89594418D01*
X124839440Y-89586238D01*
X124896865Y-89581031D01*
X124921500Y-89579018D01*
X124922071Y-89579001D01*
X124938440Y-89583987D01*
G37*
D15*
%TO.C,J7*%
X124670000Y-103655000D02*
X124670000Y-98515000D01*
X127330000Y-98515000D02*
X124670000Y-98515000D01*
X127330000Y-103655000D02*
X124670000Y-103655000D01*
X127330000Y-103655000D02*
X127330000Y-98515000D01*
X127330000Y-104925000D02*
X127330000Y-106255000D01*
X127330000Y-106255000D02*
X126000000Y-106255000D01*
%TO.C,J6*%
X129320000Y-103655000D02*
X129320000Y-98515000D01*
X131980000Y-98515000D02*
X129320000Y-98515000D01*
X131980000Y-103655000D02*
X129320000Y-103655000D01*
X131980000Y-103655000D02*
X131980000Y-98515000D01*
X131980000Y-104925000D02*
X131980000Y-106255000D01*
X131980000Y-106255000D02*
X130650000Y-106255000D01*
%TO.C,R30*%
X145054724Y-54377500D02*
X144545276Y-54377500D01*
X145054724Y-55422500D02*
X144545276Y-55422500D01*
%TO.C,J12*%
X99470000Y-72645000D02*
X100800000Y-72645000D01*
X99470000Y-73975000D02*
X99470000Y-72645000D01*
X99470000Y-75245000D02*
X99470000Y-98165000D01*
X99470000Y-75245000D02*
X102130000Y-75245000D01*
X99470000Y-98165000D02*
X102130000Y-98165000D01*
X102130000Y-75245000D02*
X102130000Y-98165000D01*
%TO.C,D5*%
X137750000Y-54600000D02*
X137750000Y-55500000D01*
X137750000Y-58200000D02*
X142650000Y-58200000D01*
X142650000Y-54600000D02*
X137750000Y-54600000D01*
%TO.C,C25*%
X132292802Y-76185949D02*
X132085949Y-76392802D01*
X133014051Y-76907198D02*
X132807198Y-77114051D01*
%TO.C,R14*%
X100545276Y-54377500D02*
X101054724Y-54377500D01*
X100545276Y-55422500D02*
X101054724Y-55422500D01*
%TO.C,R31*%
X145054724Y-53127500D02*
X144545276Y-53127500D01*
X145054724Y-54172500D02*
X144545276Y-54172500D01*
%TO.C,C401*%
X111540000Y-37753733D02*
X111540000Y-38046267D01*
X112560000Y-37753733D02*
X112560000Y-38046267D01*
%TO.C,J4*%
X110270000Y-103655000D02*
X110270000Y-98515000D01*
X112930000Y-98515000D02*
X110270000Y-98515000D01*
X112930000Y-103655000D02*
X110270000Y-103655000D01*
X112930000Y-103655000D02*
X112930000Y-98515000D01*
X112930000Y-104925000D02*
X112930000Y-106255000D01*
X112930000Y-106255000D02*
X111600000Y-106255000D01*
%TO.C,J9*%
X115370000Y-103655000D02*
X115370000Y-98515000D01*
X118030000Y-98515000D02*
X115370000Y-98515000D01*
X118030000Y-103655000D02*
X115370000Y-103655000D01*
X118030000Y-103655000D02*
X118030000Y-98515000D01*
X118030000Y-104925000D02*
X118030000Y-106255000D01*
X118030000Y-106255000D02*
X116700000Y-106255000D01*
%TO.C,U7*%
X116760000Y-62680000D02*
X116760000Y-63440000D01*
X116760000Y-63440000D02*
X117840000Y-63440000D01*
X117080000Y-62360000D02*
X117840000Y-62360000D01*
X117840000Y-63440000D02*
X117840000Y-62360000D01*
X116760000Y-62360000D02*
X116260000Y-62360000D01*
X116760000Y-61860000D01*
X116760000Y-62360000D01*
G36*
X116760000Y-62360000D02*
G01*
X116260000Y-62360000D01*
X116760000Y-61860000D01*
X116760000Y-62360000D01*
G37*
%TO.C,SW4*%
X131123045Y-67248528D02*
X131971573Y-68097056D01*
X133102944Y-69228427D02*
X133951472Y-70076955D01*
X133951472Y-70076955D02*
X138476955Y-65551472D01*
X135648528Y-62723045D02*
X131123045Y-67248528D01*
X136497056Y-63571573D02*
X135648528Y-62723045D01*
X138476955Y-65551472D02*
X137628427Y-64702944D01*
%TO.C,U2*%
X117694689Y-67400000D02*
X118154308Y-66940381D01*
X118154308Y-67859619D02*
X117694689Y-67400000D01*
X122340381Y-72045692D02*
X122587868Y-72293179D01*
X122800000Y-62294689D02*
X122340381Y-62754308D01*
X123259619Y-62754308D02*
X122800000Y-62294689D01*
X123259619Y-72045692D02*
X122969706Y-72335605D01*
X127445692Y-66940381D02*
X127905311Y-67400000D01*
X127905311Y-67400000D02*
X127445692Y-67859619D01*
X122736360Y-72908362D02*
X122396949Y-72568951D01*
X122800000Y-72505311D01*
X122736360Y-72908362D01*
G36*
X122736360Y-72908362D02*
G01*
X122396949Y-72568951D01*
X122800000Y-72505311D01*
X122736360Y-72908362D01*
G37*
%TO.C,SW301*%
X107123045Y-65551472D02*
X111648528Y-70076955D01*
X107971573Y-64702944D02*
X107123045Y-65551472D01*
X109951472Y-62723045D02*
X109102944Y-63571573D01*
X111648528Y-70076955D02*
X112497056Y-69228427D01*
X113628427Y-68097056D02*
X114476955Y-67248528D01*
X114476955Y-67248528D02*
X109951472Y-62723045D01*
%TO.C,SW1*%
X107123045Y-78051472D02*
X111648528Y-82576955D01*
X107971573Y-77202944D02*
X107123045Y-78051472D01*
X109951472Y-75223045D02*
X109102944Y-76071573D01*
X111648528Y-82576955D02*
X112497056Y-81728427D01*
X113628427Y-80597056D02*
X114476955Y-79748528D01*
X114476955Y-79748528D02*
X109951472Y-75223045D01*
D16*
%TO.C,U11*%
X132802800Y-40642200D02*
X132802800Y-53367600D01*
X132802800Y-53367600D02*
X138797200Y-53367600D01*
X138797200Y-40642200D02*
X132802800Y-40642200D01*
X138797200Y-53367600D02*
X138797200Y-40642200D01*
D17*
X136689000Y-38864200D02*
G75*
G02*
X135927000Y-38864200I-381000J0D01*
G01*
X135927000Y-38864200D02*
G75*
G02*
X136689000Y-38864200I381000J0D01*
G01*
D15*
%TO.C,C11*%
X113514051Y-76392802D02*
X113307198Y-76185949D01*
X112792802Y-77114051D02*
X112585949Y-76907198D01*
%TO.C,J8*%
X120020000Y-103655000D02*
X120020000Y-98515000D01*
X122680000Y-98515000D02*
X120020000Y-98515000D01*
X122680000Y-103655000D02*
X120020000Y-103655000D01*
X122680000Y-103655000D02*
X122680000Y-98515000D01*
X122680000Y-104925000D02*
X122680000Y-106255000D01*
X122680000Y-106255000D02*
X121350000Y-106255000D01*
%TO.C,U1*%
X120075000Y-77675000D02*
X120075000Y-77935000D01*
X120075000Y-83125000D02*
X120075000Y-82865000D01*
X122800000Y-77675000D02*
X120075000Y-77675000D01*
X122800000Y-77675000D02*
X125525000Y-77675000D01*
X122800000Y-83125000D02*
X120075000Y-83125000D01*
X122800000Y-83125000D02*
X125525000Y-83125000D01*
X125525000Y-77675000D02*
X125525000Y-77935000D01*
X125525000Y-83125000D02*
X125525000Y-82865000D01*
X126547500Y-83195000D02*
X126067500Y-83195000D01*
X126307500Y-82865000D01*
X126547500Y-83195000D01*
G36*
X126547500Y-83195000D02*
G01*
X126067500Y-83195000D01*
X126307500Y-82865000D01*
X126547500Y-83195000D01*
G37*
%TO.C,C405*%
X110030000Y-38046267D02*
X110030000Y-37753733D01*
X111050000Y-38046267D02*
X111050000Y-37753733D01*
D16*
%TO.C,U6*%
X115629672Y-72900000D02*
X116072362Y-73342690D01*
X115895586Y-72634086D02*
X115629672Y-72900000D01*
X116857310Y-74127638D02*
X117300000Y-74570328D01*
X117300000Y-71229672D02*
X117034086Y-71495586D01*
X117300000Y-74570328D02*
X117565914Y-74304414D01*
X117742690Y-71672362D02*
X117300000Y-71229672D01*
X118704414Y-73165914D02*
X118970328Y-72900000D01*
X118970328Y-72900000D02*
X118527638Y-72457310D01*
D18*
G36*
X116265149Y-72302847D02*
G01*
X115995742Y-72572255D01*
X115816136Y-72392649D01*
X116085544Y-72123242D01*
X116265149Y-72302847D01*
G37*
D15*
%TO.C,C18*%
X115367802Y-75614051D02*
X115160949Y-75407198D01*
X116089051Y-74892802D02*
X115882198Y-74685949D01*
%TO.C,C402*%
X133642802Y-61635949D02*
X133435949Y-61842802D01*
X134364051Y-62357198D02*
X134157198Y-62564051D01*
%TO.C,D8*%
X105100000Y-68535000D02*
X107560000Y-68535000D01*
X107560000Y-67065000D02*
X105100000Y-67065000D01*
X107560000Y-68535000D02*
X107560000Y-67065000D01*
%TO.C,R32*%
X145054724Y-57377500D02*
X144545276Y-57377500D01*
X145054724Y-58422500D02*
X144545276Y-58422500D01*
%TO.C,R28*%
X100545276Y-58877500D02*
X101054724Y-58877500D01*
X100545276Y-59922500D02*
X101054724Y-59922500D01*
%TO.C,J5*%
X133970000Y-103655000D02*
X133970000Y-98515000D01*
X136630000Y-98515000D02*
X133970000Y-98515000D01*
X136630000Y-103655000D02*
X133970000Y-103655000D01*
X136630000Y-103655000D02*
X136630000Y-98515000D01*
X136630000Y-104925000D02*
X136630000Y-106255000D01*
X136630000Y-106255000D02*
X135300000Y-106255000D01*
%TO.C,D9*%
X138800000Y-68535000D02*
X141260000Y-68535000D01*
X141260000Y-67065000D02*
X138800000Y-67065000D01*
X141260000Y-68535000D02*
X141260000Y-67065000D01*
%TO.C,J10*%
X141660000Y-67210000D02*
X141660000Y-67660000D01*
X142110000Y-67660000D02*
X141660000Y-67660000D01*
X142340000Y-62140000D02*
X142340000Y-62560000D01*
X142340000Y-69660000D02*
X142340000Y-69240000D01*
X144320000Y-62140000D02*
X142340000Y-62140000D01*
X144320000Y-69660000D02*
X142340000Y-69660000D01*
X146290000Y-62140000D02*
X146690000Y-62140000D01*
X146690000Y-69660000D02*
X146290000Y-69660000D01*
%TO.C,R16*%
X100545276Y-57377500D02*
X101054724Y-57377500D01*
X100545276Y-58422500D02*
X101054724Y-58422500D01*
%TO.C,R46*%
X120545276Y-93477500D02*
X121054724Y-93477500D01*
X120545276Y-94522500D02*
X121054724Y-94522500D01*
%TO.C,J2*%
X138970000Y-81995000D02*
X140300000Y-81995000D01*
X138970000Y-83325000D02*
X138970000Y-81995000D01*
X138970000Y-84595000D02*
X138970000Y-94815000D01*
X138970000Y-84595000D02*
X141630000Y-84595000D01*
X138970000Y-94815000D02*
X141630000Y-94815000D01*
X141630000Y-84595000D02*
X141630000Y-94815000D01*
%TO.C,R48*%
X109577500Y-91845276D02*
X109577500Y-92354724D01*
X110622500Y-91845276D02*
X110622500Y-92354724D01*
%TO.C,R15*%
X100545276Y-55877500D02*
X101054724Y-55877500D01*
X100545276Y-56922500D02*
X101054724Y-56922500D01*
%TO.C,J11*%
X142970000Y-72645000D02*
X144300000Y-72645000D01*
X142970000Y-73975000D02*
X142970000Y-72645000D01*
X142970000Y-75245000D02*
X142970000Y-98165000D01*
X142970000Y-75245000D02*
X145630000Y-75245000D01*
X142970000Y-98165000D02*
X145630000Y-98165000D01*
X145630000Y-75245000D02*
X145630000Y-98165000D01*
%TO.C,U10*%
X121920000Y-74040000D02*
X121640000Y-74040000D01*
X121920000Y-73760000D01*
X121920000Y-74040000D01*
G36*
X121920000Y-74040000D02*
G01*
X121640000Y-74040000D01*
X121920000Y-73760000D01*
X121920000Y-74040000D01*
G37*
D11*
%TO.C,U8*%
X126214035Y-73076777D02*
X126723152Y-72567660D01*
X126369598Y-73232340D02*
X126214035Y-73076777D01*
X128123223Y-74985965D02*
X127967660Y-74830402D01*
X128476777Y-70814035D02*
X127967660Y-71323152D01*
X128476777Y-70814035D02*
X128632340Y-70969598D01*
X128632340Y-74476848D02*
X128123223Y-74985965D01*
X130244544Y-72864645D02*
X129876848Y-73232340D01*
X130640523Y-72977782D02*
X130385965Y-72723223D01*
X130640523Y-72468665D01*
X130640523Y-72977782D01*
G36*
X130640523Y-72977782D02*
G01*
X130385965Y-72723223D01*
X130640523Y-72468665D01*
X130640523Y-72977782D01*
G37*
D15*
%TO.C,SW2*%
X131123045Y-79748528D02*
X131971573Y-80597056D01*
X133102944Y-81728427D02*
X133951472Y-82576955D01*
X133951472Y-82576955D02*
X138476955Y-78051472D01*
X135648528Y-75223045D02*
X131123045Y-79748528D01*
X136497056Y-76071573D02*
X135648528Y-75223045D01*
X138476955Y-78051472D02*
X137628427Y-77202944D01*
%TO.C,J3*%
X98910000Y-62140000D02*
X99310000Y-62140000D01*
X99310000Y-69660000D02*
X98910000Y-69660000D01*
X101280000Y-62140000D02*
X103260000Y-62140000D01*
X101280000Y-69660000D02*
X103260000Y-69660000D01*
X103260000Y-62140000D02*
X103260000Y-62560000D01*
X103260000Y-69660000D02*
X103260000Y-69240000D01*
X103490000Y-64140000D02*
X103940000Y-64140000D01*
X103940000Y-64590000D02*
X103940000Y-64140000D01*
%TO.C,R47*%
X123945276Y-93477500D02*
X124454724Y-93477500D01*
X123945276Y-94522500D02*
X124454724Y-94522500D01*
%TD*%
M02*
